<svg width="31" height="27" viewBox="0 0 31 27" fill="none" xmlns="http://www.w3.org/2000/svg">
<g id="Group">
<path id="Vector" d="M2.34368 23.1131L3.71082 25.4123C3.99489 25.8963 4.40324 26.2766 4.88263 26.5532C6.25573 24.8562 7.21155 23.5539 7.75008 22.6463C8.29658 21.7253 8.96832 20.2847 9.76529 18.3245C7.61758 18.0492 5.99002 17.9116 4.88263 17.9116C3.81996 17.9116 2.19241 18.0492 0 18.3245C0 18.8604 0.142042 19.3963 0.426121 19.8803L2.34368 23.1131Z" fill="#0066DA"/>
<path id="Vector_2" d="M26.1168 26.5532C26.5962 26.2766 27.0046 25.8963 27.2887 25.4123L27.8568 24.4615L30.5733 19.8803C30.8574 19.3963 30.9995 18.8604 30.9995 18.3245C28.7944 18.0492 27.1698 17.9116 26.1257 17.9116C25.0037 17.9116 23.3791 18.0492 21.252 18.3245C22.0395 20.2954 22.7024 21.736 23.2405 22.6463C23.7834 23.5646 24.7422 24.8669 26.1168 26.5532Z" fill="#EA4335"/>
<path id="Vector_3" d="M15.4998 8.64367C17.0886 6.77541 18.1835 5.3348 18.7845 4.32184C19.2685 3.50618 19.8012 2.20387 20.3825 0.414896C19.9031 0.138296 19.3527 0 18.7845 0H12.2152C11.647 0 11.0966 0.155584 10.6172 0.414896C11.3566 2.46667 11.984 3.92689 12.4995 4.79555C13.0691 5.7555 14.0692 7.03821 15.4998 8.64367Z" fill="#00832D"/>
<path id="Vector_4" d="M21.2352 18.3247H9.76543L4.88281 26.5535C5.36221 26.8301 5.91261 26.9684 6.48078 26.9684H24.5199C25.0881 26.9684 25.6385 26.8128 26.1179 26.5535L21.2352 18.3247Z" fill="#2684FC"/>
<path id="Vector_5" d="M15.5002 8.64382L10.6175 0.415039C10.1381 0.691635 9.72975 1.07194 9.44568 1.55601L0.426121 16.7689C0.142042 17.2529 0 17.7888 0 18.3247H9.76529L15.5002 8.64382Z" fill="#00AC47"/>
<path id="Vector_6" d="M26.0642 9.16245L21.5545 1.55601C21.2704 1.07194 20.862 0.691635 20.3826 0.415039L15.5 8.64382L21.2349 18.3247H30.9824C30.9824 17.7888 30.8404 17.2529 30.5563 16.7689L26.0642 9.16245Z" fill="#FFBA00"/>
</g>
</svg>
