<svg width="105" height="104" viewBox="0 0 105 104" fill="none" xmlns="http://www.w3.org/2000/svg">
<g id="Mode_Isolation" clip-path="url(#clip0_409_4890)">
<g id="Group 1171275976">
<g id="Icon">
<g id="UserGear">
<path id="Vector" d="M104.934 52C104.934 23.2812 81.6524 0 52.9336 0C24.2148 0 0.933594 23.2812 0.933594 52C0.933594 80.7188 24.2148 104 52.9336 104C81.6524 104 104.934 80.7188 104.934 52Z" fill="white"/>
<path id="Vector_2" d="M103.835 62.7914C103.835 62.7914 102.934 67 102.408 68.0147C92.9336 94 70.7784 104 52.9329 104C45.2182 104 37.8183 100.935 32.3644 95.479L19.8661 82.9807C18.9399 82.0545 19.015 80.5331 20.0246 79.7023L44.9846 59.1399C45.9941 58.3071 46.0672 56.7857 45.143 55.8615L35.0335 45.752C34.1458 44.8643 34.1722 43.414 35.0924 42.5588L51.1718 27.6231C52.0371 26.8187 53.3818 26.8349 54.2288 27.6596L69.8633 42.8859C70.2675 43.2799 70.8079 43.5054 71.3725 43.5135L75.823 43.5887C76.2354 43.5948 76.6355 43.7166 76.9829 43.9401L86.9173 51.3292L88.2866 51.1283L88.0186 50.9752L88.5742 50.5703L103.835 62.7914Z" fill="url(#paint0_linear_409_4890)"/>
</g>
</g>
<g id="icon">
<path id="Vector_3" d="M65.288 82.4976C64.5101 82.8754 63.657 83.0745 62.7896 83.0785H21.5573C18.2951 83.0785 15.6504 80.4338 15.6504 77.1716C15.6504 77.1615 15.6504 77.1513 15.6504 77.1412C15.6504 63.6191 26.611 52.6585 40.133 52.6585H44.226C46.629 52.6463 49.0218 52.9835 51.3273 53.662C49.8709 56.1726 50.726 59.3881 53.2387 60.8445C53.2427 60.8465 53.2488 60.8506 53.2529 60.8526L53.8155 61.1837C53.7546 61.8357 53.716 62.4877 53.716 63.1906C53.716 63.8934 53.716 64.5048 53.8155 65.1974L53.2529 65.5184C50.7341 66.9707 49.8688 70.1902 51.3212 72.711L51.3273 72.7212L54.0755 77.4845C55.5198 80.0012 58.7332 80.8706 61.2499 79.4263C61.258 79.4202 61.2682 79.4162 61.2763 79.4101L61.7882 79.0688C62.8546 79.8488 63.9982 80.5212 65.1987 81.0757V81.7277C65.2088 81.9877 65.2393 82.2457 65.288 82.4996V82.4976Z" fill="url(#paint1_linear_409_4890)"/>
<path id="Vector_4" d="M42.178 47.4419C49.5013 47.4419 55.438 41.5052 55.438 34.1819C55.438 26.8586 49.5013 20.9219 42.178 20.9219C34.8547 20.9219 28.918 26.8586 28.918 34.1819C28.918 41.5052 34.8547 47.4419 42.178 47.4419Z" fill="url(#paint2_linear_409_4890)"/>
<path id="Vector_5" d="M91.2446 69.0348L88.2363 67.3002C88.9371 64.6717 88.9371 61.9052 88.2363 59.2767L91.2446 57.542C91.8458 57.1967 92.053 56.4309 91.7077 55.8297L91.7057 55.8256L88.9574 50.9811C88.6121 50.3798 87.8463 50.1727 87.2451 50.518L87.241 50.52L84.2327 52.2547C82.2868 50.323 79.8635 48.9377 77.2107 48.243V44.7533C77.2107 44.0606 76.6501 43.5 75.9574 43.5H70.4913C69.7986 43.5 69.238 44.0606 69.238 44.7533V48.2145C66.5852 48.9112 64.164 50.2966 62.216 52.2262L59.2077 50.4916C58.6085 50.1442 57.8407 50.3494 57.4954 50.9486L57.4933 50.9527L54.7654 55.7464C54.416 56.3436 54.6191 57.1114 55.2163 57.4608L58.2246 59.1955C57.5238 61.8239 57.5238 64.5905 58.2246 67.2189L55.2163 68.9536C54.613 69.2928 54.3977 70.0566 54.7369 70.6598C54.7471 70.6761 54.7552 70.6923 54.7654 70.7086L57.5136 75.4719C57.863 76.0691 58.6268 76.2742 59.228 75.933L62.2363 74.1983C64.1802 76.1341 66.6035 77.5173 69.2583 78.21V81.6814C69.2583 82.3741 69.819 82.9347 70.5116 82.9347H76.0183C76.711 82.9347 77.2716 82.3741 77.2716 81.6814V78.21C79.9265 77.5194 82.3497 76.1341 84.2936 74.1983L87.3019 75.933C87.9032 76.2742 88.669 76.0691 89.0163 75.4719L91.7646 70.7086C92.0754 70.1012 91.8438 69.3578 91.2426 69.0328L91.2446 69.0348ZM73.1908 69.6056C69.689 69.6056 66.8513 66.768 66.8513 63.2661C66.8513 59.7642 69.689 56.9266 73.1908 56.9266C76.6927 56.9266 79.5304 59.7642 79.5304 63.2661C79.508 66.7314 76.7069 69.5386 73.2416 69.565L73.1908 69.6056Z" fill="url(#paint3_linear_409_4890)"/>
</g>
</g>
</g>
<defs>
<linearGradient id="paint0_linear_409_4890" x1="36.5854" y1="41.0638" x2="87.0741" y2="91.5526" gradientUnits="userSpaceOnUse">
<stop stop-opacity="0.35"/>
<stop offset="1" stop-opacity="0"/>
</linearGradient>
<linearGradient id="paint1_linear_409_4890" x1="13.1935" y1="53.6634" x2="18.1038" y2="82.1289" gradientUnits="userSpaceOnUse">
<stop stop-color="#881656"/>
<stop offset="1" stop-color="#CE3937"/>
</linearGradient>
<linearGradient id="paint2_linear_409_4890" x1="27.6053" y1="21.7982" x2="34.2702" y2="45.4765" gradientUnits="userSpaceOnUse">
<stop stop-color="#881656"/>
<stop offset="1" stop-color="#CE3937"/>
</linearGradient>
<linearGradient id="paint3_linear_409_4890" x1="52.7286" y1="44.803" x2="63.1104" y2="79.7145" gradientUnits="userSpaceOnUse">
<stop stop-color="#881656"/>
<stop offset="1" stop-color="#CE3937"/>
</linearGradient>
<clipPath id="clip0_409_4890">
<rect width="104" height="104" fill="white" transform="translate(0.933594)"/>
</clipPath>
</defs>
</svg>
