<svg width="105" height="104" viewBox="0 0 105 104" fill="none" xmlns="http://www.w3.org/2000/svg">
<g id="Mode_Isolation" clip-path="url(#clip0_409_4874)">
<g id="InterfaceIcon">
<g id="15.UserAdd">
<path id="Background" d="M104.934 51.9817C104.934 23.273 81.6524 0 52.9336 0C24.2148 0 0.933594 23.273 0.933594 51.9817C0.933594 80.6904 24.2148 103.963 52.9336 103.963C81.6524 103.963 104.934 80.6904 104.934 51.9817Z" fill="white"/>
<path id="Vector" d="M50.5021 103.964C48.8609 103.964 47.2866 103.312 46.1268 102.153L21.3076 58.2275C21.9326 57.001 24.0396 58.2995 26.9341 56.001L27.9332 55.001C30.8257 52.7024 33.7321 52.6123 31.1179 50.001L35.9332 47.001C33.516 44.5846 41.516 36.4153 43.9332 34.001L63.1793 20.3682C63.1793 20.3682 75.0093 33.7337 80.9332 40.4711C80.9332 40.4711 82.265 41.3193 82.9061 41.9597L102.884 66.3665C89.5976 106.654 50.5001 103.966 50.5001 103.966L50.5021 103.964Z" fill="url(#paint0_linear_409_4874)"/>
</g>
</g>
<path id="Vector_2" fill-rule="evenodd" clip-rule="evenodd" d="M44.9695 34.244H51.8549V66.0971C51.8549 66.0971 51.7291 66.1683 51.6572 66.2039L46.2639 69.213C45.2752 69.7649 44.6639 70.7976 44.6639 71.9371V77.8662C44.6639 78.9879 45.2752 80.0384 46.2639 80.5903L51.6572 83.5994C52.61 84.1335 53.7785 84.1335 54.7493 83.5994L60.1426 80.5903C61.1313 80.0384 61.7426 79.0057 61.7426 77.8662V71.9371C61.7426 71.3496 61.5808 70.7976 61.2752 70.3169L71.5044 56.2509C72.7089 56.8207 74.0752 57.1234 75.4954 57.1234C80.7089 57.1234 84.9336 52.9392 84.9336 47.7758C84.9336 42.6123 80.7089 38.4282 75.4954 38.4282C70.2819 38.4282 66.0572 42.6123 66.0572 47.7758C66.0572 50.5712 67.2976 53.0639 69.2392 54.7731L59.1358 68.661L54.7313 66.2039C54.7313 66.2039 54.6055 66.1327 54.5336 66.0971V34.244H62.174C63.1628 34.244 63.9718 33.4428 63.9718 32.4635V21.7805C63.9718 20.8012 63.1628 20 62.174 20H44.1965C43.2078 20 42.3988 20.8012 42.3988 21.7805V32.4635C42.3988 32.6771 42.4347 32.873 42.5066 33.0511L35.3336 42.915H22.7313C21.7426 42.915 20.9336 43.7162 20.9336 44.6955V57.159C20.9336 58.1383 21.7426 58.9395 22.7313 58.9395H35.3156C36.3044 58.9395 37.1134 58.1383 37.1134 57.159V45.0338L44.9695 34.2262V34.244Z" fill="url(#paint1_linear_409_4874)"/>
</g>
<defs>
<linearGradient id="paint0_linear_409_4874" x1="39.1691" y1="48.9367" x2="84.2754" y2="94.0568" gradientUnits="userSpaceOnUse">
<stop stop-opacity="0.35"/>
<stop offset="1" stop-opacity="0"/>
</linearGradient>
<linearGradient id="paint1_linear_409_4874" x1="17.7658" y1="22.1147" x2="33.8499" y2="79.257" gradientUnits="userSpaceOnUse">
<stop stop-color="#881656"/>
<stop offset="1" stop-color="#CE3937"/>
</linearGradient>
<clipPath id="clip0_409_4874">
<rect width="104" height="104" fill="white" transform="translate(0.933594)"/>
</clipPath>
</defs>
</svg>
