<svg width="105" height="104" viewBox="0 0 105 104" fill="none" xmlns="http://www.w3.org/2000/svg">
<g id="Mode_Isolation" clip-path="url(#clip0_409_4880)">
<g id="InterfaceIcon">
<g id="15.UserAdd">
<path id="Background" d="M104.934 51.9817C104.934 23.273 81.6524 0 52.9336 0C24.2148 0 0.933594 23.273 0.933594 51.9817C0.933594 80.6904 24.2148 103.963 52.9336 103.963C81.6524 103.963 104.934 80.6904 104.934 51.9817Z" fill="white"/>
</g>
</g>
<path id="Vector" d="M104.111 61.196C104.111 61.196 102.345 76 89.5797 88.7678C73.3503 105 52.9355 104 52.9355 104L28.6582 80.5906L29.5831 61.723L36.5443 59.9113L44.1912 57.0544L40.6306 52.0793L57.5855 43.4644L64.4175 50.2964L59.0866 44.2395L49.3417 35.0529L59.5123 23.2051L104.261 60.3876L104.111 61.196Z" fill="url(#paint0_linear_409_4880)"/>
<g id="15.UserAdd-2">
<path id="Vector_2" d="M54.0861 37.4268C61.7512 37.4247 67.9666 43.6358 67.9687 51.2982V51.3003C67.9687 52.0148 67.3886 52.5947 66.6738 52.5947H41.5068C40.792 52.5947 40.2119 52.0148 40.2119 51.3003C40.2119 43.64 46.4231 37.4299 54.0861 37.4268Z" fill="url(#paint1_linear_409_4880)"/>
<path id="Vector_3" d="M54.0909 36.8091C58.4516 36.8091 61.9865 33.2754 61.9865 28.9163C61.9865 24.5572 58.4516 21.0234 54.0909 21.0234C49.7303 21.0234 46.1953 24.5572 46.1953 28.9163C46.1953 33.2754 49.7303 36.8091 54.0909 36.8091Z" fill="url(#paint2_linear_409_4880)"/>
</g>
<path id="Vector_4" fill-rule="evenodd" clip-rule="evenodd" d="M80.8766 63.9402C80.8526 63.7697 80.8185 63.6022 80.773 63.4378C80.2867 61.6808 78.7115 60.7308 77.2537 61.3169L65.5235 66.0412C64.1871 66.5802 62.915 67.3551 61.8173 68.4209C60.9242 69.2887 59.757 69.7561 58.4521 69.7561C57.8698 69.7546 57.2887 69.6678 56.724 69.4988L46.9139 66.6472C46.8786 66.638 46.8444 66.6274 46.8091 66.6152C46.012 66.3305 45.5484 65.2845 45.7922 64.3269C46.036 63.3692 46.8343 62.8486 47.6226 63.0967L57.4327 65.9484C57.8142 66.058 59.733 66.5239 60.3583 64.8796C60.5857 64.2675 60.6008 63.5717 60.4 62.946C60.2269 62.3918 59.8745 61.9472 59.4222 61.7143L49.0298 56.4967C47.8563 55.9075 46.5476 55.8405 45.3362 56.3064L36.5366 59.6939C35.3189 60.1629 34.6507 61.7371 35.0486 63.2018L38.2723 75.0681C38.7245 76.7307 39.9448 77.9182 41.3886 78.0994L55.409 79.8518C56.5232 80.1517 57.6879 79.9934 58.7186 79.4042L79.3393 67.6185C80.4749 66.9943 81.1128 65.5205 80.8892 64.0407L80.8779 63.9417L80.8766 63.9402Z" fill="url(#paint3_linear_409_4880)"/>
<path id="Vector_5" d="M28.9989 61.765L26.0335 62.8545C24.6257 63.3717 23.8464 65.1128 24.293 66.7433L27.663 79.0473C28.1096 80.6778 29.613 81.5803 31.0208 81.0631L33.9862 79.9736C35.3941 79.4564 36.1733 77.7153 35.7267 76.0848L32.3567 63.7808C31.9101 62.1503 30.4068 61.2478 28.9989 61.765Z" fill="url(#paint4_linear_409_4880)"/>
</g>
<defs>
<linearGradient id="paint0_linear_409_4880" x1="36.4734" y1="34.975" x2="89.7218" y2="88.2214" gradientUnits="userSpaceOnUse">
<stop stop-opacity="0.35"/>
<stop offset="1" stop-opacity="0"/>
</linearGradient>
<linearGradient id="paint1_linear_409_4880" x1="38.838" y1="37.9279" x2="41.0342" y2="52.2058" gradientUnits="userSpaceOnUse">
<stop stop-color="#881656"/>
<stop offset="1" stop-color="#CE3937"/>
</linearGradient>
<linearGradient id="paint2_linear_409_4880" x1="45.4137" y1="21.545" x2="49.3797" y2="35.64" gradientUnits="userSpaceOnUse">
<stop stop-color="#881656"/>
<stop offset="1" stop-color="#CE3937"/>
</linearGradient>
<linearGradient id="paint3_linear_409_4880" x1="32.6567" y1="56.793" x2="35.9813" y2="79.4309" gradientUnits="userSpaceOnUse">
<stop stop-color="#881656"/>
<stop offset="1" stop-color="#CE3937"/>
</linearGradient>
<linearGradient id="paint4_linear_409_4880" x1="23.25" y1="64.5393" x2="34.7237" y2="73.9873" gradientUnits="userSpaceOnUse">
<stop stop-color="#881656"/>
<stop offset="1" stop-color="#CE3937"/>
</linearGradient>
<clipPath id="clip0_409_4880">
<rect width="104" height="104" fill="white" transform="translate(0.933594)"/>
</clipPath>
</defs>
</svg>
