<svg width="103" height="102" viewBox="0 0 103 102" fill="none" xmlns="http://www.w3.org/2000/svg">
<g id="Mode_Isolation" clip-path="url(#clip0_409_4900)">
<g id="InterfaceIcon">
<g id="15.UserAdd">
<path id="Background" d="M102.934 50.9821C102.934 22.8255 80.1001 0 51.9336 0C23.7671 0 0.933594 22.8255 0.933594 50.9821C0.933594 79.1387 23.7671 101.964 51.9336 101.964C80.1001 101.964 102.934 79.1387 102.934 50.9821Z" fill="white"/>
<path id="Vector" d="M50.2246 101.401C48.6149 101.401 47.071 100.762 45.9334 99.6251L25.2185 68.9531C25.8315 67.75 24.2709 56.6154 27.1098 54.3608L25.2185 50.9999C28.0554 48.7454 27.7825 39.8304 25.2185 37.2692L26.4332 22.5576C24.0625 20.1875 35.8317 24.3628 38.2024 21.9947L56.8379 27.4613C56.8379 27.4613 61.5099 15.3864 67.3199 21.9947C67.3199 21.9947 95.2381 56.7551 101.599 64.527C88.5682 104.044 50.2226 101.403 50.2226 101.403L50.2246 101.401Z" fill="url(#paint0_linear_409_4900)"/>
</g>
</g>
<path id="Union" fill-rule="evenodd" clip-rule="evenodd" d="M74.0779 78.4487C72.3783 79.5394 70.3565 80.1719 68.187 80.1719C62.1548 80.1719 57.2646 75.2818 57.2646 69.2495C57.2646 63.2173 62.1548 58.3271 68.187 58.3271C74.2193 58.3271 79.1094 63.2173 79.1094 69.2495C79.1094 71.4181 78.4774 73.4391 77.3875 75.1384L81.5941 79.3449C82.5081 80.2589 82.5081 81.7409 81.5941 82.6549C80.68 83.5689 79.1981 83.5689 78.2841 82.6549L74.0779 78.4487ZM74.4296 69.2509C74.4296 72.6979 71.6352 75.4923 68.1882 75.4923C64.7412 75.4923 61.9468 72.6979 61.9468 69.2509C61.9468 65.8039 64.7412 63.0095 68.1882 63.0095C71.6352 63.0095 74.4296 65.8039 74.4296 69.2509Z" fill="url(#paint1_linear_409_4900)"/>
<path id="Subtract" fill-rule="evenodd" clip-rule="evenodd" d="M23.5508 31.6152C23.5508 24.9878 28.9234 19.6152 35.5508 19.6152H56.5059C63.1333 19.6152 68.5059 24.9878 68.5059 31.6152V52.0828C68.5053 52.0828 68.5047 52.0828 68.5041 52.0828C65.8232 52.0828 63.2833 52.6862 61.0127 53.7646C60.2076 48.9742 56.039 45.3243 51.0184 45.3257C45.4241 45.328 40.8897 49.8616 40.8897 55.4539C40.8897 55.9756 41.3132 56.3989 41.835 56.3989H57.0023C53.3368 59.6035 51.0216 64.314 51.0216 69.5653C51.0216 69.9852 51.0364 70.4016 51.0655 70.8141H35.5508C28.9234 70.8141 23.5508 65.4415 23.5508 58.8141V31.6152ZM27.2969 26.4833C27.2969 24.7591 28.6946 23.3614 30.4188 23.3614C32.143 23.3614 33.5407 24.7591 33.5407 26.4833V63.9458C33.5407 65.67 32.143 67.0677 30.4188 67.0677C28.6946 67.0677 27.2969 65.67 27.2969 63.9458V26.4833ZM51.0225 44.8756C54.2059 44.8756 56.7866 42.2958 56.7866 39.1135C56.7866 35.9312 54.2059 33.3515 51.0225 33.3515C47.839 33.3515 45.2584 35.9312 45.2584 39.1135C45.2584 42.2958 47.839 44.8756 51.0225 44.8756Z" fill="url(#paint2_linear_409_4900)"/>
</g>
<defs>
<linearGradient id="paint0_linear_409_4900" x1="38.4344" y1="47.9946" x2="82.6733" y2="92.247" gradientUnits="userSpaceOnUse">
<stop stop-opacity="0.35"/>
<stop offset="1" stop-opacity="0"/>
</linearGradient>
<linearGradient id="paint1_linear_409_4900" x1="56.0265" y1="59.1536" x2="62.3123" y2="81.4869" gradientUnits="userSpaceOnUse">
<stop stop-color="#881656"/>
<stop offset="1" stop-color="#CE3937"/>
</linearGradient>
<linearGradient id="paint2_linear_409_4900" x1="21.3256" y1="21.307" x2="35.667" y2="66.0441" gradientUnits="userSpaceOnUse">
<stop stop-color="#881656"/>
<stop offset="1" stop-color="#CE3937"/>
</linearGradient>
<clipPath id="clip0_409_4900">
<rect width="102" height="102" fill="white" transform="translate(0.933594)"/>
</clipPath>
</defs>
</svg>
