<svg width="43" height="43" viewBox="0 0 43 43" fill="none" xmlns="http://www.w3.org/2000/svg">
<g id="Social">
<g id="Linkedin Icon">
<rect id="Rectangle" opacity="0.25" x="0.602539" y="0.5" width="41.0513" height="41.0513" rx="19" stroke="white"/>
<g id="Group 14">
<path id="Vector" d="M21.0414 13.9451C23.0928 13.9451 23.3357 13.9541 24.1425 13.9901C24.8922 14.0231 25.2971 14.149 25.567 14.254C25.9239 14.3919 26.1818 14.5599 26.4487 14.8268C26.7187 15.0967 26.8836 15.3516 27.0216 15.7085C27.1265 15.9784 27.2525 16.3863 27.2855 17.1331C27.3215 17.9428 27.3305 18.1858 27.3305 20.2341C27.3305 22.2855 27.3215 22.5284 27.2855 23.3352C27.2525 24.085 27.1265 24.4898 27.0216 24.7597C26.8836 25.1166 26.7157 25.3746 26.4487 25.6415C26.1788 25.9114 25.9239 26.0763 25.567 26.2143C25.2971 26.3193 24.8892 26.4452 24.1425 26.4782C23.3327 26.5142 23.0898 26.5232 21.0414 26.5232C18.99 26.5232 18.7471 26.5142 17.9404 26.4782C17.1906 26.4452 16.7857 26.3193 16.5158 26.2143C16.1589 26.0763 15.901 25.9084 15.6341 25.6415C15.3642 25.3716 15.1992 25.1166 15.0612 24.7597C14.9563 24.4898 14.8303 24.082 14.7973 23.3352C14.7613 22.5254 14.7523 22.2825 14.7523 20.2341C14.7523 18.1828 14.7613 17.9398 14.7973 17.1331C14.8303 16.3833 14.9563 15.9784 15.0612 15.7085C15.1992 15.3516 15.3672 15.0937 15.6341 14.8268C15.904 14.5569 16.1589 14.3919 16.5158 14.254C16.7857 14.149 17.1936 14.0231 17.9404 13.9901C18.7471 13.9541 18.99 13.9451 21.0414 13.9451ZM21.0414 12.5625C18.957 12.5625 18.6961 12.5715 17.8774 12.6075C17.0616 12.6435 16.5008 12.7754 16.015 12.9644C15.5081 13.1623 15.0792 13.4232 14.6534 13.8521C14.2245 14.278 13.9636 14.7068 13.7656 15.2107C13.5767 15.6995 13.4447 16.2574 13.4088 17.0731C13.3728 17.8949 13.3638 18.1558 13.3638 20.2401C13.3638 22.3245 13.3728 22.5854 13.4088 23.4042C13.4447 24.2199 13.5767 24.7807 13.7656 25.2666C13.9636 25.7734 14.2245 26.2023 14.6534 26.6282C15.0792 27.054 15.5081 27.318 16.012 27.5129C16.5008 27.7018 17.0586 27.8338 17.8744 27.8698C18.6931 27.9058 18.954 27.9148 21.0384 27.9148C23.1228 27.9148 23.3837 27.9058 24.2024 27.8698C25.0182 27.8338 25.579 27.7018 26.0649 27.5129C26.5687 27.318 26.9976 27.054 27.4234 26.6282C27.8493 26.2023 28.1132 25.7734 28.3082 25.2696C28.4971 24.7807 28.6291 24.2229 28.6651 23.4072C28.7011 22.5884 28.71 22.3275 28.71 20.2431C28.71 18.1588 28.7011 17.8979 28.6651 17.0791C28.6291 16.2634 28.4971 15.7025 28.3082 15.2167C28.1192 14.7068 27.8583 14.278 27.4294 13.8521C27.0036 13.4262 26.5747 13.1623 26.0709 12.9674C25.582 12.7784 25.0242 12.6465 24.2084 12.6105C23.3867 12.5715 23.1258 12.5625 21.0414 12.5625Z" fill="white"/>
<path id="Vector_2" d="M21.0414 16.2969C18.8641 16.2969 17.0977 18.0633 17.0977 20.2407C17.0977 22.418 18.8641 24.1844 21.0414 24.1844C23.2188 24.1844 24.9852 22.418 24.9852 20.2407C24.9852 18.0633 23.2188 16.2969 21.0414 16.2969ZM21.0414 22.7989C19.6289 22.7989 18.4832 21.6532 18.4832 20.2407C18.4832 18.8281 19.6289 17.6824 21.0414 17.6824C22.454 17.6824 23.5997 18.8281 23.5997 20.2407C23.5997 21.6532 22.454 22.7989 21.0414 22.7989Z" fill="white"/>
<path id="Vector_3" d="M26.0619 16.1395C26.0619 16.6493 25.648 17.0602 25.1412 17.0602C24.6313 17.0602 24.2205 16.6463 24.2205 16.1395C24.2205 15.6296 24.6343 15.2188 25.1412 15.2188C25.648 15.2188 26.0619 15.6326 26.0619 16.1395Z" fill="white"/>
</g>
</g>
</g>
</svg>
