<svg width="43" height="43" viewBox="0 0 43 43" fill="none" xmlns="http://www.w3.org/2000/svg">
<g id="Social">
<g id="Linkedin Icon">
<rect id="Rectangle" opacity="0.25" x="0.5" y="0.5" width="41.0513" height="41.0513" rx="19" stroke="white"/>
<g id="Group 14">
<path id="Shape" fill-rule="evenodd" clip-rule="evenodd" d="M17.2513 28.0342H14.0166V18.3301H17.2513V28.0342Z" fill="white"/>
<path id="Shape_2" fill-rule="evenodd" clip-rule="evenodd" d="M15.6243 16.1742H15.606C14.6407 16.1742 14.0166 15.455 14.0166 14.5563C14.0166 13.6385 14.6597 12.9395 15.6433 12.9395C16.6269 12.9395 17.2327 13.6385 17.2513 14.5563C17.2513 15.455 16.6269 16.1742 15.6243 16.1742Z" fill="white"/>
<path id="Shape_3" fill-rule="evenodd" clip-rule="evenodd" d="M29.1117 28.034H25.9332V22.9615C25.9332 21.6874 25.4732 20.818 24.3225 20.818C23.4443 20.818 22.9212 21.4041 22.6915 21.9702C22.6074 22.1731 22.5868 22.4557 22.5868 22.7391V28.0342H19.4077C19.4077 28.0342 19.4496 19.4426 19.4077 18.553H22.5868V19.8959C23.0087 19.2503 23.7643 18.3301 25.452 18.3301C27.5437 18.3301 29.1119 19.6855 29.1119 22.5977L29.1117 28.034Z" fill="white"/>
</g>
</g>
</g>
</svg>
