<svg width="49" height="48" viewBox="0 0 49 48" fill="none" xmlns="http://www.w3.org/2000/svg">
<g id="Group 2085662043">
<path id="bg" d="M48.9336 24C48.9336 37.248 38.1936 48 24.9336 48C11.6736 48 0.933594 37.248 0.933594 24C0.933594 10.74 11.6736 0 24.9336 0C38.1936 0 48.9336 10.74 48.9336 24Z" fill="#283544"/>
<path id="vector" d="M16.8878 34.1313C16.6731 33.811 16.485 33.3791 16.3325 32.8625C13.5782 29.7564 15.706 25.1855 17.8107 22.0815C18.0124 21.7497 18.2322 21.429 18.4711 21.1224C20.0768 19.1273 20.4923 17.7389 20.6158 15.8605C20.6305 15.5108 20.6016 15.0479 20.5683 14.5161C20.3984 11.8004 20.1162 7.28849 24.9614 6.88848C31.0179 6.3884 30.5246 11.9502 30.4798 15.211C30.478 15.3459 30.4762 15.4773 30.4748 15.6038C30.4584 17.5695 31.4843 18.9154 32.5551 20.3202C32.9461 20.8332 33.3431 21.354 33.6975 21.9158C33.7081 21.9324 33.7185 21.9491 33.729 21.9658C35.6001 24.6644 37.4473 28.6917 34.8761 32.5117C34.5149 33.8156 33.9676 35.0124 33.2372 35.9863C30.6146 39.4373 28.2836 39.0869 26.4633 38.8133C25.9142 38.7308 25.4116 38.6553 24.9614 38.6931C24.2137 38.7387 23.6144 38.8596 23.0967 38.9641C21.0955 39.3681 20.3135 39.5259 16.8878 34.1313Z" fill="black"/>
<path id="vector_2" d="M28.3857 9.93346C28.3295 11.5319 26.634 12.9202 24.6015 13.0486C22.5691 13.1769 20.9746 11.9635 21.0307 10.3651C21.0869 8.76674 22.7825 7.37835 24.8149 7.25001C26.8473 7.13334 28.4418 8.33506 28.3857 9.93346Z" fill="url(#paint0_linear_493_6156)"/>
<g id="vector_3">
<path fill-rule="evenodd" clip-rule="evenodd" d="M24.7024 13.8187C24.7187 14.6879 25.1168 15.429 25.6758 15.7636C23.8519 15.6003 21.592 16.2671 21.592 17.5288C21.5639 19.6635 20.3758 22.3192 19.5207 24.2308C19.3522 24.6073 19.1967 24.955 19.0655 25.2642C18.536 26.5751 18.2185 27.9771 18.1808 29.3522C16.7787 27.4195 17.7975 24.9402 18.3468 23.8641C19.0779 22.448 19.0638 22.2713 18.7798 22.6031C17.6915 24.4539 15.6418 28.1713 18.2084 30.4045C18.2899 31.4017 18.5329 32.368 18.9644 33.2561C22.4005 40.1864 28.8347 37.3396 30.9569 33.7462C31.2393 33.2353 31.4676 32.7409 31.6489 32.2634C31.7551 32.3303 31.8689 32.382 31.99 32.4161C33.0568 32.7311 34.6513 31.5294 35.0331 30.7827C35.4934 29.791 35.0218 29.1143 33.4498 28.3093C33.3696 28.2696 33.2904 28.2323 33.2122 28.1975C33.8151 25.6587 32.1537 23.0187 30.9671 21.8987C30.7458 21.8442 30.7146 21.9696 31.058 22.3124C31.8053 23.0285 33.4307 25.582 32.5514 27.9585C32.4065 27.9195 32.2671 27.8922 32.1342 27.8771C31.8641 26.2557 31.1438 24.9943 30.6403 24.1128C30.5263 23.9131 30.4234 23.7329 30.3393 23.5724C30.1698 23.2486 29.9672 22.9134 29.7523 22.5578C28.9242 21.1876 27.9139 19.5159 27.9139 17.0388C27.7873 16.4938 27.273 16.1304 26.5883 15.9297C27.3829 15.7694 27.9795 14.8411 27.9588 13.7253C27.9363 12.5236 27.184 11.5669 26.2857 11.5903C25.3874 11.6136 24.6687 12.617 24.7024 13.8187ZM25.4435 14.087C25.4323 14.7521 25.7467 15.2887 26.1622 15.2887C26.5664 15.2887 26.9145 14.7521 26.9257 14.0987C26.937 13.4337 26.6226 12.897 26.2071 12.897C25.7916 12.897 25.4548 13.4337 25.4435 14.087Z" fill="url(#paint1_linear_493_6156)"/>
<path fill-rule="evenodd" clip-rule="evenodd" d="M22.4566 15.6854C23.1079 15.6504 23.5795 14.7754 23.5234 13.737C23.4672 12.6986 22.8946 11.8936 22.2433 11.9286C21.592 11.9636 21.1204 12.8386 21.1765 13.877C21.2327 14.9154 21.8054 15.7204 22.4566 15.6854ZM22.8496 14.0987C22.9058 14.6471 22.7037 15.1137 22.4117 15.1604C22.1198 15.1954 21.839 14.7871 21.7829 14.2387C21.7267 13.6903 21.9289 13.2237 22.2208 13.177C22.5128 13.142 22.7935 13.5503 22.8496 14.0987Z" fill="url(#paint2_linear_493_6156)"/>
</g>
<path id="vector_4" d="M25.6117 13.7139C25.578 14.0872 25.7465 14.3905 25.9823 14.4139C26.2181 14.4372 26.4427 14.1455 26.4763 13.7839C26.51 13.4105 26.3416 13.1072 26.1058 13.0838C25.87 13.0605 25.6454 13.3522 25.6117 13.7139Z" fill="url(#paint3_linear_493_6156)"/>
<path id="vector_5" d="M22.6041 13.8073C22.6378 14.1107 22.5143 14.379 22.3346 14.4023C22.1549 14.4257 21.9865 14.1923 21.9528 13.8773C21.9191 13.574 22.0426 13.3056 22.2223 13.2823C22.402 13.259 22.5704 13.504 22.6041 13.8073Z" fill="url(#paint4_linear_493_6156)"/>
<path id="vector_6" d="M29.5099 25.9757C29.5099 28.0291 27.6122 30.6893 24.3558 30.6659C20.9983 30.6893 19.5723 28.0291 19.5723 25.9757C19.5723 23.9223 21.7956 22.2539 24.5355 22.2539C27.2866 22.2656 29.5099 23.9223 29.5099 25.9757Z" fill="url(#paint5_linear_493_6156)"/>
<path id="vector_7" d="M27.7355 19.5242C27.7018 21.6476 26.3656 22.1493 24.6812 22.1493C22.9969 22.1493 21.7729 21.8343 21.627 19.5242C21.627 18.0775 22.9969 17.2374 24.6812 17.2374C26.3656 17.2258 27.7355 18.0658 27.7355 19.5242Z" fill="url(#paint6_linear_493_6156)"/>
<path id="vector_8" d="M17.5515 22.791C18.652 21.0526 20.9764 18.3808 17.9895 23.1643C15.564 27.1078 17.0911 29.6396 17.8772 30.3396C20.1454 32.4397 20.0556 33.8514 18.2702 32.7431C14.4411 30.3746 15.2384 26.3845 17.5515 22.791Z" fill="url(#paint7_linear_493_6156)"/>
<path id="vector_9" d="M33.4841 23.503C32.5297 21.4613 29.4979 16.2811 33.6301 22.3013C37.3918 27.7499 34.753 31.5417 34.2814 31.915C33.8098 32.2884 32.2265 33.0468 32.6869 31.7284C33.1585 30.41 35.4941 27.9132 33.4841 23.503Z" fill="url(#paint8_linear_493_6156)"/>
<path id="vector_10" d="M16.7205 39.6036C14.2053 38.2152 10.5559 39.8719 11.8809 36.1151C12.1504 35.2634 11.4879 33.98 11.9146 33.1516C12.4199 32.1366 13.5091 32.3583 14.1603 31.6816C14.8004 30.9815 15.2046 29.7681 16.4061 29.9548C17.5964 30.1415 18.3937 31.6582 19.2246 33.525C19.8422 34.855 22.0206 36.7334 21.8746 38.2268C21.695 40.5136 19.1909 40.9453 16.7205 39.6036Z" fill="url(#paint9_linear_493_6156)"/>
<path id="vector_11" fill-rule="evenodd" clip-rule="evenodd" d="M14.4359 31.9552C13.8242 32.6241 12.7008 32.4638 12.2499 33.3391C11.9604 33.9012 12.2767 34.7652 12.3194 35.3808C12.3722 36.1413 11.7417 37.219 12.0627 37.8685C12.4233 38.598 14.0524 38.5034 14.7685 38.608C16.5364 38.8662 19.4581 41.1542 21.0567 39.3283C22.6195 37.5433 19.6157 35.2844 18.8789 33.6976C18.3997 32.6212 17.6827 30.5572 16.3478 30.3476C15.407 30.2016 14.9783 31.3618 14.4359 31.9552ZM16.4616 29.5624C18.1235 29.823 18.9552 31.9776 19.5685 33.3554C20.4995 35.3534 23.6897 37.5009 21.622 39.8626C19.7442 42.0075 16.7795 39.7037 14.6621 39.3944C13.6045 39.2398 11.9363 39.3508 11.3829 38.2313C10.9071 37.2688 11.6237 36.3971 11.5571 35.4379C11.5005 34.6205 11.177 33.7428 11.5748 32.9669C12.1194 31.8763 13.1707 32.1404 13.8853 31.4044C14.644 30.5707 15.0988 29.3506 16.4616 29.5624Z" fill="#E68C3F"/>
<path id="vector_12" d="M34.1585 38.962C36.0001 36.6402 40.0987 37.1186 37.3363 33.9334C36.7524 33.2451 36.9321 31.775 36.2134 31.145C35.3713 30.375 34.4393 31.005 33.5859 30.6083C32.7325 30.1766 31.8342 29.3483 30.7899 29.9316C29.7456 30.5266 29.6333 32.0667 29.5322 34.0968C29.4424 35.5552 28.1623 37.9936 28.8473 39.3353C29.8354 41.4121 32.4068 41.1321 34.1585 38.962Z" fill="url(#paint10_linear_493_6156)"/>
<path id="vector_13" fill-rule="evenodd" clip-rule="evenodd" d="M34.8936 30.3396C35.3658 30.3272 35.9313 30.3603 36.4624 30.8442C37.1229 31.4265 37.1294 32.3772 37.3784 33.1731C37.6734 34.1157 38.7068 34.6541 38.645 35.7593C38.544 37.5662 35.415 38.0014 34.4518 39.2158C33.5264 40.3622 32.3565 41.045 31.2463 41.137C29.5627 41.2765 28.172 39.8608 28.2706 38.1323C28.3503 36.733 29.0632 35.4617 29.1501 34.0737C29.2001 33.0685 29.2542 32.1366 29.4359 31.3799C29.6195 30.6152 29.9504 29.9566 30.6055 29.5834C32.0404 28.7818 33.4265 30.3781 34.8936 30.3396ZM30.9716 30.2805C30.5832 30.5024 30.3362 30.9112 30.1775 31.5721C30.0169 32.241 29.964 33.0981 29.913 34.1221C29.8273 35.5135 29.1131 36.7838 29.0336 38.1793C28.9626 39.4238 29.9184 40.4503 31.1856 40.3453C32.0457 40.274 33.038 39.7308 33.8641 38.708C34.6022 37.7782 37.8148 36.9147 37.882 35.7133C37.9258 34.9288 36.8938 34.1929 36.6515 33.4187C36.4619 32.8127 36.4519 31.874 35.9664 31.4484C35.6562 31.1648 35.3297 31.1226 34.9129 31.1335C33.7049 31.1652 32.0931 29.6556 30.9716 30.2805Z" fill="#E68C3F"/>
<path id="vector_14" d="M33.3603 35.8582C36.2125 31.4831 34.0902 31.5181 33.3715 31.1797C32.6529 30.8297 31.9005 30.1413 31.0584 30.6197C30.2162 31.1097 30.1713 32.3698 30.1488 34.0265C30.1151 35.2165 29.1607 37.2116 29.7334 38.32C30.4295 39.6151 32.1139 37.7366 33.3603 35.8582Z" fill="url(#paint11_linear_493_6156)"/>
<path id="vector_15" d="M16.1353 36.4881C11.8683 33.618 13.8671 32.638 14.5071 32.1829C15.2819 31.5996 15.2932 30.4795 16.2476 30.5845C17.2021 30.6895 17.7635 31.9146 18.4036 33.4313C18.8752 34.5164 20.5146 35.9631 20.3911 37.2115C20.2339 38.6815 17.9769 37.7132 16.1353 36.4881Z" fill="url(#paint12_linear_493_6156)"/>
<path id="vector_16" d="M34.7878 30.7475C34.4509 31.3542 33.081 32.3109 32.1715 32.0542C31.2395 31.8092 30.8128 30.4441 31.0037 29.4174C31.1721 28.2507 32.1715 28.1924 33.4291 28.7757C34.7654 29.4058 35.1808 29.9425 34.7878 30.7475Z" fill="black"/>
<path id="vector_17" d="M33.8669 30.4094C33.6536 30.8294 32.7552 31.4945 32.1264 31.3195C31.4976 31.1444 31.1832 30.1994 31.2842 29.4877C31.3741 28.6827 32.0478 28.636 32.9012 29.0327C33.822 29.476 34.1139 29.8494 33.8669 30.4094Z" fill="url(#paint13_linear_493_6156)"/>
<path id="vector_18" d="M22.254 15.1843C22.7031 14.7526 23.7924 13.4342 25.8585 14.811C26.2403 15.0676 26.5547 15.091 27.2846 15.4177C28.7555 16.0477 28.0594 17.5644 26.4873 18.0778C25.8136 18.2994 25.2072 19.1511 23.9945 19.0695C22.9502 19.0111 22.6807 18.2994 22.0406 17.9144C20.9065 17.2494 20.7381 16.351 21.3557 15.8727C21.9733 15.3943 22.2091 15.2193 22.254 15.1843Z" fill="url(#paint14_linear_493_6156)"/>
<path id="vector_19" fill-rule="evenodd" clip-rule="evenodd" d="M21.4943 16.0635C21.2595 16.2454 21.1848 16.4872 21.2624 16.7546C21.4218 17.3038 22.5715 18.0594 23.0117 18.429C23.262 18.6392 23.5483 18.8058 24.0109 18.8316C25.0018 18.8983 25.5521 18.136 26.4202 17.8504C26.9911 17.6639 28.1991 16.9514 27.7989 16.1348C27.4575 15.4381 26.3072 15.395 25.7359 15.0111C24.7525 14.3559 24.0366 14.3606 23.5266 14.5444C22.9679 14.7458 22.0005 15.6715 21.4943 16.0635ZM23.3763 14.0943C24.0397 13.8552 24.9022 13.8895 25.9846 14.6108C26.696 15.0891 27.7784 15.0429 28.2076 15.9187C28.7542 17.0343 27.4296 18.0201 26.5579 18.3048C25.6244 18.6121 25.103 19.3821 23.9825 19.3071C23.4016 19.2744 23.0288 19.0559 22.7235 18.7996C22.0901 18.2678 21.0199 17.7624 20.7752 16.9192C20.6394 16.4516 20.8375 15.978 21.2203 15.6815C21.839 15.2023 22.675 14.347 23.3763 14.0943Z" fill="#E68C3F"/>
<path id="vector_20" fill-rule="evenodd" clip-rule="evenodd" d="M27.4619 16.4007C27.4665 16.4882 27.4019 16.5631 27.3176 16.5679C26.1291 16.6352 25.294 17.9915 23.9518 17.9915C23.2008 17.9915 22.6063 17.6292 22.1812 17.2807C22.0956 17.2105 21.3398 16.6278 21.3398 16.4793C21.3398 16.3916 21.4083 16.3205 21.4927 16.3205C21.6506 16.3205 22.1271 16.8375 22.3043 16.9828C22.7046 17.3111 23.2992 17.6739 23.9518 17.6739C25.2805 17.6739 26.0958 16.319 27.301 16.2507C27.3853 16.246 27.4573 16.3131 27.4619 16.4007Z" fill="#E68C3F"/>
<path id="vector_21" d="M22.9524 15.0675C23.177 14.8575 23.8844 14.2858 24.8164 14.8692C25.0186 14.9858 25.2207 15.1142 25.5126 15.2892C26.1078 15.6508 25.8158 16.1759 25.0972 16.5026C24.7715 16.6426 24.2325 16.9459 23.8283 16.9226C23.3791 16.8759 23.0759 16.5726 22.784 16.3742C22.2338 16.0009 22.2675 15.6859 22.5257 15.4408C22.7166 15.2542 22.93 15.0792 22.9524 15.0675Z" fill="url(#paint15_linear_493_6156)"/>
</g>
<defs>
<linearGradient id="paint0_linear_493_6156" x1="25.0324" y1="7.382" x2="24.6528" y2="12.5245" gradientUnits="userSpaceOnUse">
<stop stop-color="white" stop-opacity="0.8"/>
<stop offset="1" stop-color="white" stop-opacity="0"/>
</linearGradient>
<linearGradient id="paint1_linear_493_6156" x1="19.6127" y1="35.438" x2="16.7909" y2="26.1798" gradientUnits="userSpaceOnUse">
<stop stop-color="#FFEED7"/>
<stop offset="1" stop-color="#BDBFC2"/>
</linearGradient>
<linearGradient id="paint2_linear_493_6156" x1="19.6127" y1="35.438" x2="16.7909" y2="26.1798" gradientUnits="userSpaceOnUse">
<stop stop-color="#FFEED7"/>
<stop offset="1" stop-color="#BDBFC2"/>
</linearGradient>
<linearGradient id="paint3_linear_493_6156" x1="26.0781" y1="13.1239" x2="25.9181" y2="14.3217" gradientUnits="userSpaceOnUse">
<stop stop-color="white" stop-opacity="0.65"/>
<stop offset="1" stop-color="white" stop-opacity="0"/>
</linearGradient>
<linearGradient id="paint4_linear_493_6156" x1="22.2493" y1="13.3423" x2="22.4213" y2="14.3115" gradientUnits="userSpaceOnUse">
<stop stop-color="white" stop-opacity="0.65"/>
<stop offset="1" stop-color="white" stop-opacity="0"/>
</linearGradient>
<linearGradient id="paint5_linear_493_6156" x1="24.5253" y1="23.3667" x2="24.5538" y2="30.218" gradientUnits="userSpaceOnUse">
<stop stop-color="white" stop-opacity="0.8"/>
<stop offset="1" stop-color="white" stop-opacity="0"/>
</linearGradient>
<linearGradient id="paint6_linear_493_6156" x1="24.6768" y1="19.0708" x2="24.7084" y2="21.795" gradientUnits="userSpaceOnUse">
<stop stop-color="white" stop-opacity="0.65"/>
<stop offset="1" stop-color="white" stop-opacity="0"/>
</linearGradient>
<linearGradient id="paint7_linear_493_6156" x1="17.5967" y1="20.7522" x2="17.5967" y2="30.7494" gradientUnits="userSpaceOnUse">
<stop stop-color="white" stop-opacity="0.65"/>
<stop offset="1" stop-color="white" stop-opacity="0"/>
</linearGradient>
<linearGradient id="paint8_linear_493_6156" x1="33.5611" y1="19.7761" x2="33.5572" y2="28.8091" gradientUnits="userSpaceOnUse">
<stop stop-color="white" stop-opacity="0.65"/>
<stop offset="1" stop-color="white" stop-opacity="0"/>
</linearGradient>
<linearGradient id="paint9_linear_493_6156" x1="17.0971" y1="35.0356" x2="15.566" y2="40.151" gradientUnits="userSpaceOnUse">
<stop stop-color="#FFA63F"/>
<stop offset="1" stop-color="#FFFF00"/>
</linearGradient>
<linearGradient id="paint10_linear_493_6156" x1="31.5881" y1="33.48" x2="35.6744" y2="39.0516" gradientUnits="userSpaceOnUse">
<stop stop-color="#FFA63F"/>
<stop offset="1" stop-color="#FFFF00"/>
</linearGradient>
<linearGradient id="paint11_linear_493_6156" x1="32.6819" y1="29.0285" x2="31.253" y2="35.7607" gradientUnits="userSpaceOnUse">
<stop stop-color="white" stop-opacity="0.65"/>
<stop offset="1" stop-color="white" stop-opacity="0"/>
</linearGradient>
<linearGradient id="paint12_linear_493_6156" x1="16.7837" y1="30.693" x2="17.0671" y2="38.2697" gradientUnits="userSpaceOnUse">
<stop stop-color="white" stop-opacity="0.65"/>
<stop offset="1" stop-color="white" stop-opacity="0"/>
</linearGradient>
<linearGradient id="paint13_linear_493_6156" x1="32.435" y1="28.9055" x2="32.7664" y2="31.1694" gradientUnits="userSpaceOnUse">
<stop stop-color="white" stop-opacity="0.65"/>
<stop offset="1" stop-color="white" stop-opacity="0"/>
</linearGradient>
<linearGradient id="paint14_linear_493_6156" x1="24.5288" y1="15.0582" x2="24.5565" y2="19.0452" gradientUnits="userSpaceOnUse">
<stop stop-color="#FFA63F"/>
<stop offset="1" stop-color="#FFFF00"/>
</linearGradient>
<linearGradient id="paint15_linear_493_6156" x1="24.0949" y1="14.681" x2="24.0874" y2="16.7892" gradientUnits="userSpaceOnUse">
<stop stop-color="white" stop-opacity="0.65"/>
<stop offset="1" stop-color="white" stop-opacity="0"/>
</linearGradient>
</defs>
</svg>
