<svg width="102" height="57" viewBox="0 0 102 57" fill="none" xmlns="http://www.w3.org/2000/svg">
<g id="Group">
<g id="Graphic Elements">
<g id="Group_2">
<g id="Group_3">
<path id="Vector" d="M20.2952 33.9428C18.0087 33.9428 15.7208 33.9428 13.4343 33.9428C12.8673 33.9428 12.3124 33.881 11.7881 33.6534C10.5488 33.1153 9.8187 32.1732 9.56414 30.8754C9.40104 30.0403 9.57633 29.2505 10.0031 28.5179C11.8628 25.3374 13.7255 22.1584 15.5866 18.9779C16.0866 18.1248 16.5774 17.2671 17.0835 16.4169C17.7404 15.3136 18.7084 14.6564 20.0116 14.5659C21.449 14.4664 22.5938 15.0287 23.3697 16.221C23.9504 17.1133 24.461 18.0524 25.0006 18.9719C25.7354 20.2245 26.467 21.4801 27.2002 22.7327C28.1133 24.2928 29.0263 25.8529 29.9394 27.413C30.1543 27.7793 30.3707 28.1456 30.5841 28.5134C31.6908 30.4217 30.8204 32.6586 29.0156 33.56C28.5279 33.8027 28.0035 33.9308 27.4593 33.9338C26.0783 33.9443 24.6958 33.9398 23.3148 33.9413C22.3072 33.9413 21.3012 33.9413 20.2936 33.9413L20.2952 33.9428Z" fill="url(#paint0_linear_749_3360)"/>
<path id="Vector_2" d="M74.1567 29.9563C74.1567 31.7651 74.1552 33.5754 74.1567 35.3842C74.1567 36.058 74.0973 36.7258 73.8702 37.3634C73.137 39.4164 71.6813 40.6675 69.5213 41.1001C68.4391 41.3171 67.3645 41.2312 66.3584 40.773C64.4561 39.9063 63.2626 38.4773 62.9547 36.3972C62.8815 35.9012 62.8739 35.3978 62.9013 34.8989C62.941 34.1964 63.3022 33.69 63.9592 33.4186C64.5979 33.1549 65.1893 33.2905 65.6984 33.7352C66.0444 34.0382 66.2335 34.4301 66.2411 34.8958C66.2472 35.2335 66.2411 35.5711 66.27 35.9103C66.3493 36.7981 67.0489 37.6377 68.0717 37.8502C69.4771 38.1427 70.7697 37.0951 70.8033 35.7128C70.8246 34.8823 70.8094 34.0502 70.8094 33.2182C70.8094 33.188 70.8094 33.1564 70.8048 33.1262C70.788 33.0011 70.756 32.9755 70.6371 33.0071C70.5472 33.0297 70.4588 33.0644 70.3704 33.0946C69.8064 33.2875 69.2272 33.4081 68.6296 33.4232C67.7212 33.4473 66.866 33.2378 66.0566 32.8368C65.2808 32.4509 64.5964 31.9505 64.0552 31.2722C63.5187 30.5984 63.1849 29.8372 63.0263 28.9961C62.8526 28.0751 62.8602 27.1602 63.1224 26.2527C63.351 25.4599 63.758 24.768 64.3357 24.1726C64.7092 23.7867 65.1207 23.4491 65.5734 23.1551C66.2655 22.7044 67.0246 22.4557 67.8462 22.3638C68.7302 22.2643 69.5899 22.3487 70.4268 22.6472C70.5884 22.7044 70.7484 22.7662 70.9024 22.8401C71.0716 22.92 71.2042 22.9049 71.3459 22.7723C71.6127 22.5251 71.9267 22.3623 72.2986 22.3186C73.1095 22.2236 73.9464 22.819 74.1034 23.6058C74.1506 23.8425 74.1552 24.0791 74.1552 24.3188C74.1552 26.197 74.1552 28.0766 74.1552 29.9548L74.1567 29.9563ZM68.5351 30.101C69.5671 30.1598 70.7911 29.278 70.8033 27.8792C70.8155 26.613 69.8033 25.6212 68.5184 25.6272C67.3355 25.6332 66.2578 26.4803 66.2517 27.846C66.2456 29.275 67.4392 30.1402 68.5351 30.0995V30.101Z" fill="url(#paint1_linear_749_3360)"/>
<path id="Vector_3" d="M9.95941 33.8939C9.85424 33.9662 9.76583 33.9421 9.68352 33.9421C7.96716 33.9421 6.24928 33.9466 4.53293 33.9421C3.49032 33.9391 2.62604 33.5201 1.92182 32.7785C1.38984 32.2177 1.06974 31.5485 0.969136 30.7842C0.865484 30.0064 0.984379 29.2603 1.3807 28.576C2.25869 27.0581 3.14583 25.5462 4.03144 24.0328C5.353 21.7718 6.67304 19.5108 8.0007 17.2543C8.26287 16.8081 8.48847 16.3394 8.81314 15.9324C9.5448 15.0159 10.5066 14.532 11.6849 14.5245C13.1132 14.5155 14.1985 15.1425 14.9423 16.3439C15.0521 16.5217 15.1496 16.7056 15.2609 16.882C15.3417 17.0086 15.3295 17.1171 15.2533 17.2453C14.8509 17.9221 14.4545 18.6034 14.0567 19.2832C12.7382 21.5367 11.4197 23.7902 10.1012 26.0436C9.75363 26.6375 9.41219 27.2329 9.05856 27.8223C8.58145 28.6167 8.33909 29.4713 8.3589 30.3968C8.38329 31.5153 8.76742 32.5026 9.48383 33.3663C9.63169 33.5442 9.79174 33.71 9.95789 33.8924L9.95941 33.8939Z" fill="url(#paint2_linear_749_3360)"/>
<path id="Vector_4" d="M88.8891 24.6461C88.8891 23.5307 88.8891 22.4137 88.8891 21.2983C88.8891 20.8401 88.8967 20.8627 88.4349 20.8612C88.0142 20.8597 87.5934 20.8732 87.1727 20.8265C86.3786 20.7391 85.7216 20.0819 85.6606 19.3011C85.5982 18.5052 86.2094 17.7244 87.0127 17.5721C87.1514 17.5465 87.2901 17.533 87.4319 17.5345C87.8297 17.5375 88.2276 17.5375 88.6254 17.5345C88.8495 17.533 88.8845 17.4983 88.8876 17.2782C88.8921 16.9014 88.8815 16.523 88.8906 16.1462C88.912 15.2765 89.6573 14.5454 90.5231 14.5183C91.2274 14.4957 92.1861 15.0278 92.2288 16.1055C92.2425 16.4597 92.2334 16.814 92.2349 17.1682C92.2349 17.23 92.2349 17.2918 92.2364 17.3536C92.2364 17.4651 92.2913 17.5269 92.4056 17.5315C92.4758 17.5345 92.5459 17.536 92.616 17.536C93.4117 17.536 94.2073 17.536 95.003 17.536C95.2149 17.536 95.4253 17.5541 95.6295 17.6023C96.4084 17.7877 96.9419 18.4735 96.9099 19.2408C96.8764 20.0427 96.2743 20.7044 95.4664 20.8235C95.2896 20.8491 95.1113 20.8642 94.9299 20.8642C94.1494 20.8612 93.369 20.8627 92.5886 20.8627C92.5489 20.8627 92.5108 20.8627 92.4712 20.8627C92.2715 20.8732 92.2425 20.9019 92.2349 21.0948C92.2349 21.125 92.2349 21.1566 92.2349 21.1868C92.2349 23.3965 92.2303 25.6048 92.238 27.8146C92.2395 28.4552 92.4498 29.025 92.93 29.4756C93.3416 29.863 93.8354 30.071 94.4025 30.0967C94.6601 30.1087 94.9177 30.0982 95.1753 30.1012C95.5182 30.1057 95.8338 30.1916 96.131 30.368C97.0425 30.9076 97.23 32.2944 96.2834 33.0481C96.1203 33.1777 95.9298 33.2395 95.7301 33.2817C94.5412 33.541 93.3827 33.4339 92.2761 32.938C90.6573 32.213 89.5781 31.0116 89.0873 29.3144C88.9562 28.8607 88.8937 28.3949 88.8921 27.9231C88.8876 26.8303 88.8921 25.7374 88.8921 24.6446L88.8891 24.6461Z" fill="url(#paint3_linear_749_3360)"/>
<path id="Vector_5" d="M61.8265 27.8532C61.8265 29.0923 61.8265 30.3313 61.8265 31.5719C61.8265 31.7573 61.8143 31.9412 61.7747 32.122C61.6238 32.8124 61.0873 33.2887 60.3647 33.3912C59.8678 33.4621 59.4303 33.3309 59.0721 32.9933C58.8953 32.8275 58.7429 32.8109 58.5295 32.9089C57.8115 33.2375 57.0494 33.4018 56.2629 33.4184C55.5236 33.4349 54.8011 33.3083 54.1182 33.0144C52.3195 32.2396 51.1397 30.9282 50.7083 29.029C50.3517 27.4628 50.6733 25.9962 51.6046 24.6803C52.5649 23.3222 53.9124 22.567 55.5617 22.3469C56.5311 22.2173 57.4732 22.3786 58.3755 22.7569C58.4335 22.781 58.4914 22.8036 58.5478 22.8308C58.7383 22.9197 58.8953 22.8926 59.0554 22.7418C59.912 21.9384 61.2336 22.4012 61.6284 23.1699C61.7808 23.4684 61.8235 23.7849 61.8235 24.1105C61.825 25.3571 61.8235 26.6052 61.8235 27.8517L61.8265 27.8532ZM58.4594 27.8683C58.5173 26.7484 57.6088 25.6405 56.2248 25.6284C54.9261 25.6178 53.9322 26.5976 53.9292 27.8683C53.9261 29.1179 55.0008 30.1158 56.2141 30.1082C57.461 30.1007 58.5066 29.0591 58.4609 27.8668L58.4594 27.8683Z" fill="url(#paint4_linear_749_3360)"/>
<path id="Vector_6" d="M40.2405 27.8688C40.2405 29.1079 40.2405 30.3484 40.2405 31.5875C40.2405 31.812 40.2176 32.0336 40.1521 32.2492C39.8137 33.351 38.3946 33.7927 37.4967 33.0209C37.2148 32.7783 37.2071 32.7843 36.8596 32.935C36.099 33.2651 35.3063 33.4445 34.4741 33.4264C33.5168 33.4053 32.6343 33.1189 31.8035 32.6622C31.6694 32.5883 31.6633 32.5627 31.7425 32.3984C31.9117 32.0412 32.0474 31.6734 32.1267 31.2875C32.3736 30.0816 32.1785 28.9451 31.5612 27.8794C31.0337 26.9705 30.5018 26.0645 29.9637 25.1631C29.8646 24.9958 29.8539 24.8662 29.9744 24.7034C30.9499 23.386 32.2471 22.5961 33.8887 22.3746C34.942 22.2329 35.9587 22.364 36.9221 22.8237C37.1218 22.9187 37.2879 22.9051 37.4556 22.7544C38.1385 22.1409 39.0637 22.2193 39.6917 22.7604C40.1018 23.1132 40.2359 23.5729 40.2389 24.0839C40.2435 25.0004 40.2389 25.9168 40.2389 26.8318C40.2389 27.1785 40.2389 27.5252 40.2389 27.8718L40.2405 27.8688ZM36.8718 27.8688C36.9434 26.7187 35.9389 25.6349 34.6372 25.6274C33.3324 25.6199 32.3416 26.5891 32.337 27.8583C32.3324 29.141 33.4193 30.1148 34.6006 30.1118C35.8505 30.1087 36.9282 29.037 36.8718 27.8688Z" fill="url(#paint5_linear_749_3360)"/>
<path id="Vector_7" d="M41.2695 27.5579C41.2695 26.2948 41.2695 25.0331 41.2695 23.77C41.2695 23.2635 41.4235 22.8188 41.8091 22.4631C42.4478 21.8737 43.4249 21.8722 44.0575 22.4661C44.0636 22.4722 44.0697 22.4767 44.0742 22.4827C44.2236 22.6365 44.2099 22.6576 44.4202 22.5249C44.7724 22.3033 45.155 22.1526 45.5665 22.0757C47.4902 21.7125 49.3193 23.1248 49.4336 25.0542C49.4535 25.4009 49.4596 25.7461 49.4596 26.0928C49.4596 27.7479 49.4611 29.4044 49.4596 31.0595C49.4596 31.275 49.4474 31.4906 49.4245 31.7046C49.3544 32.3528 48.7584 32.9422 48.1075 33.0718C47.2158 33.2497 46.1457 32.6015 46.1335 31.4544C46.1259 30.761 46.1305 30.0692 46.1305 29.3758C46.1305 28.3056 46.1305 27.2354 46.1305 26.1651C46.1305 26.0581 46.1366 25.9496 46.1076 25.8441C46.0162 25.514 45.7189 25.2969 45.3577 25.2969C45.0056 25.2969 44.6992 25.5245 44.6169 25.8561C44.5757 26.0204 44.5498 26.1893 44.5696 26.3596C44.6016 26.652 44.591 26.9444 44.591 27.2369C44.591 28.607 44.5894 29.9787 44.5925 31.3489C44.5925 31.8765 44.434 32.3362 44.0209 32.6859C43.5468 33.0884 43.0011 33.215 42.4067 33.0085C41.8091 32.8005 41.4387 32.3784 41.3092 31.7619C41.2756 31.6036 41.2695 31.4424 41.2695 31.2796C41.2711 30.0405 41.2695 28.8 41.2695 27.5609V27.5579Z" fill="url(#paint6_linear_749_3360)"/>
<path id="Vector_8" d="M81.3924 33.4263C80.1364 33.4263 78.8804 33.4263 77.6244 33.4263C77.1229 33.4263 76.6641 33.2922 76.2982 32.941C75.8089 32.4722 75.6794 31.9039 75.8791 31.2678C76.0787 30.6362 76.5269 30.2699 77.1778 30.1418C77.3454 30.1087 77.5177 30.0996 77.6899 30.0996C80.1471 30.1011 82.6042 30.1011 85.0614 30.0996C85.2809 30.0996 85.4989 30.1147 85.7123 30.1584C86.5186 30.3272 87.0582 31.0146 87.0354 31.83C87.0125 32.6003 86.415 33.2605 85.6254 33.3871C85.4486 33.4158 85.2702 33.4278 85.0904 33.4278C83.8587 33.4263 82.6256 33.4278 81.3939 33.4278L81.3924 33.4263Z" fill="url(#paint7_linear_749_3360)"/>
<path id="Vector_9" d="M81.4072 25.6277C80.1359 25.6277 78.8647 25.6277 77.5934 25.6277C77.1422 25.6277 76.723 25.5191 76.3831 25.2177C75.8557 24.7489 75.6545 24.167 75.871 23.4872C76.0889 22.8014 76.5889 22.4306 77.3038 22.3311C77.5202 22.301 77.7382 22.2949 77.9577 22.2949C80.328 22.2964 82.6998 22.2949 85.07 22.2979C85.4145 22.2979 85.7545 22.3311 86.073 22.4818C86.7209 22.7893 87.1263 23.4571 87.0272 24.1339C86.9175 24.8921 86.4983 25.3759 85.7087 25.5749C85.535 25.6186 85.3551 25.6307 85.1752 25.6307C83.9192 25.6292 82.6647 25.6307 81.4087 25.6307L81.4072 25.6277Z" fill="url(#paint8_linear_749_3360)"/>
<path id="Vector_10" d="M101.04 27.8619C101.04 29.1853 101.027 30.5088 101.046 31.8322C101.056 32.4879 100.482 33.2808 99.644 33.3833C99.1959 33.4375 98.7706 33.3607 98.4018 33.0863C97.9414 32.7427 97.7341 32.2693 97.7006 31.7116C97.6975 31.6739 97.7006 31.6348 97.7006 31.5956C97.7006 29.125 97.7006 26.656 97.7006 24.1855C97.7006 23.9217 97.7295 23.6624 97.8256 23.4152C98.0771 22.7761 98.5496 22.3962 99.2432 22.3375C99.9443 22.2787 100.482 22.5726 100.845 23.1695C100.984 23.3986 101.048 23.6413 101.045 23.9141C101.036 25.23 101.04 26.546 101.04 27.8619Z" fill="url(#paint9_linear_749_3360)"/>
<path id="Vector_11" d="M80.7592 29.0955C79.5809 29.0955 78.4026 29.0955 77.2259 29.0955C76.9896 29.0955 76.7595 29.0759 76.54 28.981C76.0674 28.776 75.7488 28.2801 75.7885 27.8083C75.8342 27.249 76.2031 26.8074 76.7351 26.6747C76.8799 26.6386 77.0262 26.625 77.1756 26.625C79.5855 26.625 81.9969 26.625 84.4068 26.625C84.7528 26.625 85.076 26.7064 85.3397 26.9355C85.7116 27.2566 85.8473 27.6711 85.7391 28.1444C85.6263 28.6358 85.2848 28.9177 84.8047 29.0488C84.6294 29.097 84.4495 29.097 84.2696 29.097C83.099 29.097 81.9299 29.097 80.7592 29.097V29.0955Z" fill="url(#paint10_linear_749_3360)"/>
<path id="Vector_12" d="M101.041 19.1955C101.119 20.0471 100.276 20.8294 99.3842 20.837C98.5184 20.843 97.7181 20.0592 97.7227 19.1789C97.7257 18.4674 98.2729 17.5645 99.4024 17.5404C100.315 17.5208 101.038 18.2654 101.04 19.1955H101.041Z" fill="url(#paint11_linear_749_3360)"/>
</g>
</g>
</g>
<path id="Ellipse 19" d="M59.567 52.8899C45.8576 54.693 33.2751 45.1648 31.4535 31.6207C29.6318 18.0767 39.2584 5.62746 52.9679 3.82435C66.6773 2.02124 79.2598 11.5495 81.0814 25.0935C82.9031 38.6376 73.2765 51.0868 59.567 52.8899Z" stroke="url(#paint12_linear_749_3360)"/>
</g>
<defs>
<linearGradient id="paint0_linear_749_3360" x1="0.935123" y1="27.8652" x2="101.048" y2="27.8652" gradientUnits="userSpaceOnUse">
<stop stop-color="#525177"/>
<stop offset="0.14" stop-color="#545073"/>
<stop offset="0.26" stop-color="#5A4E6A"/>
<stop offset="0.52" stop-color="#9394B0"/>
<stop offset="0.56" stop-color="#9F9FB8"/>
<stop offset="0.65" stop-color="#BFBCCE"/>
<stop offset="0.7" stop-color="#D5D0DD"/>
<stop offset="0.73" stop-color="#CBC7D6"/>
<stop offset="0.78" stop-color="#B2B1C6"/>
<stop offset="0.84" stop-color="#898CAA"/>
<stop offset="0.86" stop-color="#8185A5"/>
<stop offset="0.88" stop-color="#797C9C"/>
<stop offset="0.92" stop-color="#646785"/>
<stop offset="0.97" stop-color="#424360"/>
<stop offset="1" stop-color="#282844"/>
</linearGradient>
<linearGradient id="paint1_linear_749_3360" x1="0.932804" y1="27.8656" x2="101.045" y2="27.8656" gradientUnits="userSpaceOnUse">
<stop stop-color="#525177"/>
<stop offset="0.14" stop-color="#545073"/>
<stop offset="0.26" stop-color="#5A4E6A"/>
<stop offset="0.52" stop-color="#9394B0"/>
<stop offset="0.56" stop-color="#9F9FB8"/>
<stop offset="0.65" stop-color="#BFBCCE"/>
<stop offset="0.7" stop-color="#D5D0DD"/>
<stop offset="0.73" stop-color="#CBC7D6"/>
<stop offset="0.78" stop-color="#B2B1C6"/>
<stop offset="0.84" stop-color="#898CAA"/>
<stop offset="0.86" stop-color="#8185A5"/>
<stop offset="0.88" stop-color="#797C9C"/>
<stop offset="0.92" stop-color="#646785"/>
<stop offset="0.97" stop-color="#424360"/>
<stop offset="1" stop-color="#282844"/>
</linearGradient>
<linearGradient id="paint2_linear_749_3360" x1="0.934077" y1="27.866" x2="101.047" y2="27.866" gradientUnits="userSpaceOnUse">
<stop stop-color="#525177"/>
<stop offset="0.14" stop-color="#545073"/>
<stop offset="0.26" stop-color="#5A4E6A"/>
<stop offset="0.52" stop-color="#9394B0"/>
<stop offset="0.56" stop-color="#9F9FB8"/>
<stop offset="0.65" stop-color="#BFBCCE"/>
<stop offset="0.7" stop-color="#D5D0DD"/>
<stop offset="0.73" stop-color="#CBC7D6"/>
<stop offset="0.78" stop-color="#B2B1C6"/>
<stop offset="0.84" stop-color="#898CAA"/>
<stop offset="0.86" stop-color="#8185A5"/>
<stop offset="0.88" stop-color="#797C9C"/>
<stop offset="0.92" stop-color="#646785"/>
<stop offset="0.97" stop-color="#424360"/>
<stop offset="1" stop-color="#282844"/>
</linearGradient>
<linearGradient id="paint3_linear_749_3360" x1="0.934409" y1="27.8658" x2="101.047" y2="27.8658" gradientUnits="userSpaceOnUse">
<stop stop-color="#525177"/>
<stop offset="0.14" stop-color="#545073"/>
<stop offset="0.26" stop-color="#5A4E6A"/>
<stop offset="0.52" stop-color="#9394B0"/>
<stop offset="0.56" stop-color="#9F9FB8"/>
<stop offset="0.65" stop-color="#BFBCCE"/>
<stop offset="0.7" stop-color="#D5D0DD"/>
<stop offset="0.73" stop-color="#CBC7D6"/>
<stop offset="0.78" stop-color="#B2B1C6"/>
<stop offset="0.84" stop-color="#898CAA"/>
<stop offset="0.86" stop-color="#8185A5"/>
<stop offset="0.88" stop-color="#797C9C"/>
<stop offset="0.92" stop-color="#646785"/>
<stop offset="0.97" stop-color="#424360"/>
<stop offset="1" stop-color="#282844"/>
</linearGradient>
<linearGradient id="paint4_linear_749_3360" x1="0.93563" y1="27.8653" x2="101.048" y2="27.8653" gradientUnits="userSpaceOnUse">
<stop stop-color="#525177"/>
<stop offset="0.14" stop-color="#545073"/>
<stop offset="0.26" stop-color="#5A4E6A"/>
<stop offset="0.52" stop-color="#9394B0"/>
<stop offset="0.56" stop-color="#9F9FB8"/>
<stop offset="0.65" stop-color="#BFBCCE"/>
<stop offset="0.7" stop-color="#D5D0DD"/>
<stop offset="0.73" stop-color="#CBC7D6"/>
<stop offset="0.78" stop-color="#B2B1C6"/>
<stop offset="0.84" stop-color="#898CAA"/>
<stop offset="0.86" stop-color="#8185A5"/>
<stop offset="0.88" stop-color="#797C9C"/>
<stop offset="0.92" stop-color="#646785"/>
<stop offset="0.97" stop-color="#424360"/>
<stop offset="1" stop-color="#282844"/>
</linearGradient>
<linearGradient id="paint5_linear_749_3360" x1="0.935071" y1="27.8658" x2="101.048" y2="27.8658" gradientUnits="userSpaceOnUse">
<stop stop-color="#525177"/>
<stop offset="0.14" stop-color="#545073"/>
<stop offset="0.26" stop-color="#5A4E6A"/>
<stop offset="0.52" stop-color="#9394B0"/>
<stop offset="0.56" stop-color="#9F9FB8"/>
<stop offset="0.65" stop-color="#BFBCCE"/>
<stop offset="0.7" stop-color="#D5D0DD"/>
<stop offset="0.73" stop-color="#CBC7D6"/>
<stop offset="0.78" stop-color="#B2B1C6"/>
<stop offset="0.84" stop-color="#898CAA"/>
<stop offset="0.86" stop-color="#8185A5"/>
<stop offset="0.88" stop-color="#797C9C"/>
<stop offset="0.92" stop-color="#646785"/>
<stop offset="0.97" stop-color="#424360"/>
<stop offset="1" stop-color="#282844"/>
</linearGradient>
<linearGradient id="paint6_linear_749_3360" x1="0.932181" y1="27.8654" x2="101.045" y2="27.8654" gradientUnits="userSpaceOnUse">
<stop stop-color="#525177"/>
<stop offset="0.14" stop-color="#545073"/>
<stop offset="0.26" stop-color="#5A4E6A"/>
<stop offset="0.52" stop-color="#9394B0"/>
<stop offset="0.56" stop-color="#9F9FB8"/>
<stop offset="0.65" stop-color="#BFBCCE"/>
<stop offset="0.7" stop-color="#D5D0DD"/>
<stop offset="0.73" stop-color="#CBC7D6"/>
<stop offset="0.78" stop-color="#B2B1C6"/>
<stop offset="0.84" stop-color="#898CAA"/>
<stop offset="0.86" stop-color="#8185A5"/>
<stop offset="0.88" stop-color="#797C9C"/>
<stop offset="0.92" stop-color="#646785"/>
<stop offset="0.97" stop-color="#424360"/>
<stop offset="1" stop-color="#282844"/>
</linearGradient>
<linearGradient id="paint7_linear_749_3360" x1="0.935712" y1="27.8657" x2="101.048" y2="27.8657" gradientUnits="userSpaceOnUse">
<stop stop-color="#525177"/>
<stop offset="0.14" stop-color="#545073"/>
<stop offset="0.26" stop-color="#5A4E6A"/>
<stop offset="0.52" stop-color="#9394B0"/>
<stop offset="0.56" stop-color="#9F9FB8"/>
<stop offset="0.65" stop-color="#BFBCCE"/>
<stop offset="0.7" stop-color="#D5D0DD"/>
<stop offset="0.73" stop-color="#CBC7D6"/>
<stop offset="0.78" stop-color="#B2B1C6"/>
<stop offset="0.84" stop-color="#898CAA"/>
<stop offset="0.86" stop-color="#8185A5"/>
<stop offset="0.88" stop-color="#797C9C"/>
<stop offset="0.92" stop-color="#646785"/>
<stop offset="0.97" stop-color="#424360"/>
<stop offset="1" stop-color="#282844"/>
</linearGradient>
<linearGradient id="paint8_linear_749_3360" x1="0.935223" y1="27.8661" x2="101.048" y2="27.8661" gradientUnits="userSpaceOnUse">
<stop stop-color="#525177"/>
<stop offset="0.14" stop-color="#545073"/>
<stop offset="0.26" stop-color="#5A4E6A"/>
<stop offset="0.52" stop-color="#9394B0"/>
<stop offset="0.56" stop-color="#9F9FB8"/>
<stop offset="0.65" stop-color="#BFBCCE"/>
<stop offset="0.7" stop-color="#D5D0DD"/>
<stop offset="0.73" stop-color="#CBC7D6"/>
<stop offset="0.78" stop-color="#B2B1C6"/>
<stop offset="0.84" stop-color="#898CAA"/>
<stop offset="0.86" stop-color="#8185A5"/>
<stop offset="0.88" stop-color="#797C9C"/>
<stop offset="0.92" stop-color="#646785"/>
<stop offset="0.97" stop-color="#424360"/>
<stop offset="1" stop-color="#282844"/>
</linearGradient>
<linearGradient id="paint9_linear_749_3360" x1="0.933888" y1="27.8664" x2="101.046" y2="27.8664" gradientUnits="userSpaceOnUse">
<stop stop-color="#525177"/>
<stop offset="0.14" stop-color="#545073"/>
<stop offset="0.26" stop-color="#5A4E6A"/>
<stop offset="0.52" stop-color="#9394B0"/>
<stop offset="0.56" stop-color="#9F9FB8"/>
<stop offset="0.65" stop-color="#BFBCCE"/>
<stop offset="0.7" stop-color="#D5D0DD"/>
<stop offset="0.73" stop-color="#CBC7D6"/>
<stop offset="0.78" stop-color="#B2B1C6"/>
<stop offset="0.84" stop-color="#898CAA"/>
<stop offset="0.86" stop-color="#8185A5"/>
<stop offset="0.88" stop-color="#797C9C"/>
<stop offset="0.92" stop-color="#646785"/>
<stop offset="0.97" stop-color="#424360"/>
<stop offset="1" stop-color="#282844"/>
</linearGradient>
<linearGradient id="paint10_linear_749_3360" x1="0.935041" y1="27.8655" x2="101.048" y2="27.8655" gradientUnits="userSpaceOnUse">
<stop stop-color="#525177"/>
<stop offset="0.14" stop-color="#545073"/>
<stop offset="0.26" stop-color="#5A4E6A"/>
<stop offset="0.52" stop-color="#9394B0"/>
<stop offset="0.56" stop-color="#9F9FB8"/>
<stop offset="0.65" stop-color="#BFBCCE"/>
<stop offset="0.7" stop-color="#D5D0DD"/>
<stop offset="0.73" stop-color="#CBC7D6"/>
<stop offset="0.78" stop-color="#B2B1C6"/>
<stop offset="0.84" stop-color="#898CAA"/>
<stop offset="0.86" stop-color="#8185A5"/>
<stop offset="0.88" stop-color="#797C9C"/>
<stop offset="0.92" stop-color="#646785"/>
<stop offset="0.97" stop-color="#424360"/>
<stop offset="1" stop-color="#282844"/>
</linearGradient>
<linearGradient id="paint11_linear_749_3360" x1="0.934611" y1="27.8657" x2="101.047" y2="27.8657" gradientUnits="userSpaceOnUse">
<stop stop-color="#525177"/>
<stop offset="0.14" stop-color="#545073"/>
<stop offset="0.26" stop-color="#5A4E6A"/>
<stop offset="0.52" stop-color="#9394B0"/>
<stop offset="0.56" stop-color="#9F9FB8"/>
<stop offset="0.65" stop-color="#BFBCCE"/>
<stop offset="0.7" stop-color="#D5D0DD"/>
<stop offset="0.73" stop-color="#CBC7D6"/>
<stop offset="0.78" stop-color="#B2B1C6"/>
<stop offset="0.84" stop-color="#898CAA"/>
<stop offset="0.86" stop-color="#8185A5"/>
<stop offset="0.88" stop-color="#797C9C"/>
<stop offset="0.92" stop-color="#646785"/>
<stop offset="0.97" stop-color="#424360"/>
<stop offset="1" stop-color="#282844"/>
</linearGradient>
<linearGradient id="paint12_linear_749_3360" x1="85.5724" y1="20.0466" x2="37.782" y2="40.8648" gradientUnits="userSpaceOnUse">
<stop stop-color="white"/>
<stop offset="1" stop-color="white" stop-opacity="0"/>
</linearGradient>
</defs>
</svg>
