<svg width="228" height="62" viewBox="0 0 228 62" fill="none" xmlns="http://www.w3.org/2000/svg">
<g id="Group">
<g id="Graphic Elements">
<g id="Group_2">
<g id="Group_3">
<path id="Vector" d="M44.0938 45.189C38.8867 45.189 33.676 45.189 28.4688 45.189C27.1774 45.189 25.9138 45.0482 24.7196 44.5299C21.8973 43.3043 20.2345 41.1588 19.6548 38.2031C19.2833 36.3013 19.6825 34.5025 20.6545 32.8341C24.8897 25.5908 29.1318 18.3509 33.3705 11.1075C34.5091 9.16451 35.627 7.21121 36.7795 5.27507C38.2757 2.76221 40.4801 1.26549 43.4482 1.05951C46.7217 0.832944 49.3288 2.1134 51.0958 4.8288C52.4184 6.86105 53.5813 8.99973 54.8102 11.0938C56.4835 13.9465 58.1498 16.8061 59.8196 19.6588C61.899 23.2118 63.9784 26.7648 66.0578 30.3178C66.5473 31.152 67.0402 31.9862 67.5262 32.8238C70.0465 37.1698 68.0643 42.2642 63.9541 44.317C62.8432 44.8697 61.649 45.1615 60.4097 45.1684C57.2646 45.1924 54.116 45.1821 50.9708 45.1856C48.6762 45.1856 46.385 45.1856 44.0904 45.1856L44.0938 45.189Z" fill="white"/>
<path id="Vector_2" d="M166.76 36.1092C166.76 40.2286 166.757 44.3515 166.76 48.4709C166.76 50.0054 166.625 51.5262 166.108 52.9783C164.438 57.6538 161.123 60.5031 156.204 61.4883C153.739 61.9827 151.292 61.787 149 60.7434C144.668 58.7695 141.95 55.5151 141.249 50.7778C141.082 49.6484 141.065 48.5018 141.127 47.3655C141.217 45.7658 142.04 44.6124 143.536 43.9945C144.991 43.3937 146.338 43.7027 147.497 44.7154C148.285 45.4054 148.716 46.2979 148.733 47.3587C148.747 48.1276 148.733 48.8966 148.799 49.669C148.98 51.6909 150.573 53.603 152.902 54.0871C156.103 54.7531 159.047 52.3672 159.123 49.2193C159.172 47.3278 159.137 45.4328 159.137 43.5379C159.137 43.4692 159.137 43.3971 159.127 43.3285C159.088 43.0436 159.016 42.9852 158.745 43.0573C158.54 43.1088 158.339 43.1877 158.137 43.2564C156.853 43.6958 155.534 43.9704 154.173 44.0048C152.104 44.0597 150.156 43.5825 148.313 42.6694C146.546 41.7906 144.987 40.6508 143.755 39.1061C142.533 37.5716 141.773 35.838 141.412 33.9224C141.016 31.8249 141.033 29.7412 141.63 27.6746C142.151 25.8689 143.078 24.2932 144.394 22.9373C145.244 22.0584 146.182 21.2895 147.213 20.6201C148.789 19.5936 150.517 19.0272 152.388 18.8178C154.402 18.5913 156.36 18.7835 158.266 19.4632C158.634 19.5936 158.998 19.7344 159.349 19.9026C159.734 20.0845 160.036 20.0502 160.359 19.7481C160.966 19.1851 161.682 18.8144 162.529 18.7148C164.375 18.4986 166.281 19.8545 166.639 21.6465C166.746 22.1855 166.757 22.7244 166.757 23.2702C166.757 27.5476 166.757 31.8284 166.757 36.1057L166.76 36.1092ZM153.958 36.4387C156.308 36.5726 159.095 34.5644 159.123 31.3787C159.151 28.4951 156.846 26.2362 153.919 26.25C151.226 26.2637 148.771 28.193 148.757 31.3032C148.743 34.5575 151.462 36.528 153.958 36.4353V36.4387Z" fill="white"/>
<path id="Vector_3" d="M20.5556 45.0764C20.3161 45.2412 20.1147 45.1863 19.9273 45.1863C16.0184 45.1863 12.1061 45.1965 8.19722 45.1863C5.82274 45.1794 3.85442 44.225 2.25061 42.5361C1.03907 41.2591 0.310062 39.7349 0.0809451 37.9944C-0.155114 36.223 0.11566 34.5238 1.01824 32.9653C3.0178 29.5084 5.03819 26.0652 7.05511 22.6186C10.0649 17.4693 13.0712 12.32 16.0948 7.18101C16.6919 6.16488 17.2057 5.09726 17.9451 4.17038C19.6114 2.0832 21.8019 0.981251 24.4853 0.964087C27.7381 0.94349 30.2098 2.37156 31.9038 5.10755C32.1538 5.51263 32.376 5.93144 32.6294 6.33309C32.8134 6.62145 32.7856 6.86862 32.612 7.16041C31.6955 8.70177 30.793 10.2534 29.8869 11.8016C26.8841 16.9338 23.8813 22.0659 20.8785 27.198C20.087 28.5506 19.3094 29.9066 18.504 31.2488C17.4174 33.0579 16.8655 35.0044 16.9106 37.1122C16.9661 39.6593 17.8409 41.9079 19.4725 43.8749C19.8093 44.28 20.1738 44.6576 20.5522 45.073L20.5556 45.0764Z" fill="white"/>
<path id="Vector_4" d="M200.312 24.0152C200.312 21.4749 200.312 18.9312 200.312 16.3908C200.312 15.3472 200.329 15.3987 199.277 15.3953C198.319 15.3919 197.361 15.4228 196.403 15.3164C194.594 15.1172 193.098 13.6205 192.959 11.8423C192.817 10.0297 194.209 8.25152 196.038 7.9048C196.354 7.84644 196.67 7.81554 196.993 7.81898C197.899 7.82584 198.805 7.82584 199.711 7.81898C200.222 7.81554 200.301 7.73659 200.308 7.23539C200.319 6.37717 200.294 5.51553 200.315 4.65731C200.364 2.67655 202.061 1.01161 204.033 0.949817C205.637 0.898324 207.821 2.11012 207.918 4.56462C207.949 5.37135 207.928 6.17807 207.932 6.98479C207.932 7.12554 207.932 7.26629 207.935 7.40703C207.935 7.66107 208.06 7.80181 208.32 7.81211C208.48 7.81898 208.64 7.82241 208.8 7.82241C210.612 7.82241 212.424 7.82241 214.236 7.82241C214.718 7.82241 215.197 7.86361 215.663 7.97346C217.437 8.3957 218.652 9.95765 218.579 11.705C218.502 13.5313 217.131 15.0383 215.291 15.3095C214.888 15.3678 214.482 15.4022 214.069 15.4022C212.292 15.3953 210.514 15.3987 208.737 15.3987C208.647 15.3987 208.56 15.3987 208.47 15.3987C208.015 15.4228 207.949 15.488 207.932 15.9274C207.932 15.9961 207.932 16.0682 207.932 16.1368C207.932 21.1694 207.921 26.1985 207.939 31.2311C207.942 32.6901 208.421 33.9877 209.515 35.0141C210.452 35.8964 211.577 36.3701 212.868 36.4285C213.455 36.4559 214.041 36.4319 214.628 36.4388C215.409 36.4491 216.128 36.6447 216.805 37.0464C218.881 38.2754 219.308 41.4336 217.152 43.15C216.78 43.4452 216.346 43.586 215.892 43.6821C213.184 44.2726 210.546 44.0288 208.025 42.8994C204.339 41.2482 201.881 38.5122 200.763 34.6468C200.465 33.6135 200.322 32.5528 200.319 31.4783C200.308 28.9895 200.319 26.5006 200.319 24.0118L200.312 24.0152Z" fill="white"/>
<path id="Vector_5" d="M138.675 31.3203C138.675 34.1421 138.675 36.9639 138.675 39.7892C138.675 40.2114 138.648 40.6302 138.557 41.0422C138.214 42.6144 136.992 43.6992 135.346 43.9326C134.215 44.094 133.218 43.7953 132.402 43.0264C132 42.6488 131.653 42.611 131.167 42.8341C129.532 43.5825 127.796 43.9567 126.005 43.9944C124.321 44.0322 122.675 43.7438 121.12 43.0744C117.024 41.3099 114.337 38.3233 113.355 33.9979C112.542 30.4312 113.275 27.091 115.396 24.0941C117.583 21.0011 120.652 19.2812 124.408 18.7801C126.615 18.4848 128.761 18.8521 130.816 19.7138C130.948 19.7687 131.08 19.8202 131.208 19.882C131.642 20.0845 132 20.0227 132.364 19.6795C134.315 17.8497 137.325 18.9036 138.224 20.6544C138.571 21.3341 138.668 22.055 138.668 22.7965C138.672 25.6355 138.668 28.4779 138.668 31.3169L138.675 31.3203ZM131.007 31.3546C131.139 28.804 129.07 26.2809 125.918 26.2534C122.96 26.2294 120.697 28.4607 120.69 31.3546C120.683 34.2005 123.13 36.473 125.893 36.4559C128.733 36.4387 131.115 34.0666 131.01 31.3512L131.007 31.3546Z" fill="white"/>
<path id="Vector_6" d="M89.5194 31.3546C89.5194 34.1764 89.5194 37.0017 89.5194 39.8235C89.5194 40.335 89.4673 40.8396 89.318 41.3305C88.5473 43.8399 85.3154 44.8458 83.2707 43.0881C82.6285 42.5354 82.6111 42.5492 81.8197 42.8925C80.0874 43.6443 78.2822 44.0528 76.3868 44.0116C74.2067 43.9635 72.1968 43.3113 70.3048 42.2711C69.9993 42.1029 69.9854 42.0445 70.166 41.6704C70.5513 40.8568 70.8603 40.0192 71.0408 39.1403C71.6031 36.394 71.1588 33.8057 69.7529 31.3786C68.5517 29.3086 67.3402 27.2455 66.1148 25.1926C65.8891 24.8116 65.8648 24.5163 66.1391 24.1456C68.3608 21.1453 71.315 19.3464 75.0538 18.8418C77.4526 18.5191 79.768 18.8178 81.962 19.8648C82.4167 20.0811 82.7951 20.0502 83.177 19.7069C84.7322 18.3097 86.8394 18.4882 88.2696 19.7206C89.2035 20.5239 89.5089 21.5709 89.5159 22.7347C89.5263 24.8219 89.5159 26.909 89.5159 28.9928C89.5159 29.7823 89.5159 30.5719 89.5159 31.3615L89.5194 31.3546ZM81.8474 31.3546C82.0106 28.7353 79.7229 26.2671 76.7583 26.2499C73.7867 26.2328 71.5302 28.4401 71.5198 31.3306C71.5094 34.2519 73.9846 36.4696 76.675 36.4627C79.5216 36.4558 81.9759 34.0151 81.8474 31.3546Z" fill="white"/>
<path id="Vector_7" d="M91.8672 30.6473C91.8672 27.7705 91.8672 24.8972 91.8672 22.0205C91.8672 20.867 92.2178 19.8543 93.0961 19.0442C94.5506 17.7019 96.7758 17.6985 98.2165 19.051C98.2304 19.0648 98.2443 19.0751 98.2547 19.0888C98.5949 19.439 98.5636 19.487 99.0427 19.1849C99.8446 18.6803 100.716 18.337 101.653 18.1619C106.034 17.3346 110.2 20.5512 110.46 24.9453C110.505 25.7348 110.519 26.521 110.519 27.3105C110.519 31.0798 110.523 34.8525 110.519 38.6218C110.519 39.1127 110.492 39.6036 110.44 40.0911C110.28 41.5672 108.922 42.9094 107.44 43.2047C105.409 43.6098 102.972 42.1336 102.945 39.5212C102.927 37.9421 102.938 36.3664 102.938 34.7873C102.938 32.35 102.938 29.9126 102.938 27.4753C102.938 27.2316 102.952 26.9844 102.886 26.7441C102.677 25.9923 102 25.498 101.178 25.498C100.376 25.498 99.678 26.0163 99.4905 26.7716C99.3968 27.1457 99.3378 27.5302 99.3829 27.9181C99.4558 28.5841 99.4315 29.2501 99.4315 29.9161C99.4315 33.0365 99.428 36.1604 99.435 39.2809C99.435 40.4824 99.0739 41.5294 98.1332 42.3259C97.0535 43.2424 95.8108 43.5308 94.4569 43.0605C93.0961 42.5868 92.2525 41.6256 91.9574 40.2215C91.8811 39.8611 91.8672 39.4937 91.8672 39.123C91.8707 36.3012 91.8672 33.4759 91.8672 30.6541V30.6473Z" fill="white"/>
<path id="Vector_8" d="M183.234 44.0114C180.373 44.0114 177.513 44.0114 174.652 44.0114C173.51 44.0114 172.465 43.7059 171.632 42.906C170.518 41.8384 170.223 40.5442 170.678 39.0955C171.132 37.6572 172.153 36.823 173.635 36.5312C174.017 36.4557 174.409 36.4351 174.802 36.4351C180.398 36.4385 185.994 36.4385 191.59 36.4351C192.09 36.4351 192.586 36.4694 193.072 36.5689C194.908 36.9534 196.137 38.5188 196.085 40.376C196.033 42.1302 194.672 43.6338 192.874 43.9221C192.471 43.9874 192.065 44.0148 191.656 44.0148C188.851 44.0114 186.042 44.0148 183.237 44.0148L183.234 44.0114Z" fill="white"/>
<path id="Vector_9" d="M183.272 26.25C180.377 26.25 177.482 26.25 174.587 26.25C173.559 26.25 172.605 26.0028 171.831 25.3162C170.629 24.2486 170.171 22.9235 170.664 21.3753C171.161 19.8134 172.299 18.9689 173.927 18.7423C174.42 18.6736 174.917 18.6599 175.417 18.6599C180.815 18.6633 186.216 18.6599 191.614 18.6668C192.399 18.6668 193.173 18.7423 193.899 19.0856C195.374 19.7859 196.297 21.3066 196.072 22.848C195.822 24.5747 194.867 25.6767 193.069 26.1298C192.673 26.2294 192.264 26.2568 191.854 26.2568C188.993 26.2534 186.136 26.2568 183.276 26.2568L183.272 26.25Z" fill="white"/>
<path id="Vector_10" d="M227.986 31.3378C227.986 34.3518 227.955 37.3659 228 40.3799C228.021 41.8732 226.715 43.6789 224.806 43.9123C223.786 44.0359 222.817 43.8608 221.977 43.2361C220.929 42.4534 220.456 41.3754 220.38 40.1053C220.373 40.0195 220.38 39.9302 220.38 39.841C220.38 34.2145 220.38 28.5915 220.38 22.965C220.38 22.3642 220.446 21.7738 220.665 21.2108C221.237 19.7553 222.314 18.8902 223.893 18.7563C225.49 18.6224 226.715 19.2918 227.542 20.6512C227.858 21.173 228.003 21.7257 227.996 22.3471C227.976 25.344 227.986 28.3409 227.986 31.3378Z" fill="white"/>
<path id="Vector_11" d="M181.797 34.1489C179.113 34.1489 176.43 34.1489 173.75 34.1489C173.212 34.1489 172.688 34.1043 172.188 33.888C171.112 33.4212 170.386 32.2917 170.476 31.2173C170.58 29.9437 171.421 28.9378 172.632 28.6357C172.962 28.5534 173.295 28.5225 173.635 28.5225C179.124 28.5225 184.616 28.5225 190.104 28.5225C190.892 28.5225 191.628 28.7078 192.229 29.2296C193.076 29.9608 193.385 30.9049 193.138 31.9828C192.881 33.1019 192.104 33.7438 191.01 34.0425C190.611 34.1524 190.201 34.1524 189.792 34.1524C187.125 34.1524 184.463 34.1524 181.797 34.1524V34.1489Z" fill="white"/>
<path id="Vector_12" d="M227.987 11.6017C228.164 13.5413 226.244 15.3229 224.214 15.3401C222.242 15.3538 220.419 13.5687 220.43 11.5639C220.437 9.94362 221.683 7.88733 224.255 7.8324C226.335 7.78778 227.98 9.48361 227.984 11.6017H227.987Z" fill="white"/>
</g>
</g>
</g>
</g>
</svg>
