<svg width="84" height="23" viewBox="0 0 84 23" fill="none" xmlns="http://www.w3.org/2000/svg">
<g id="Group">
<g id="Graphic Elements">
<g id="Group_2">
<g id="Group_3">
<path id="Vector" d="M16.2458 16.2989C14.3274 16.2989 12.4077 16.2989 10.4892 16.2989C10.0135 16.2989 9.54791 16.2471 9.10795 16.0561C8.06816 15.6046 7.45553 14.8141 7.24195 13.7252C7.1051 13.0245 7.25218 12.3618 7.61029 11.7471C9.17062 9.07851 10.7335 6.41118 12.2951 3.74257C12.7146 3.02673 13.1264 2.30709 13.5511 1.59378C14.1023 0.667985 14.9144 0.116558 16.0079 0.0406734C17.214 -0.0427995 18.1745 0.428949 18.8255 1.42936C19.3128 2.17809 19.7412 2.96602 20.194 3.73751C20.8104 4.78851 21.4243 5.84204 22.0395 6.89304C22.8056 8.20205 23.5717 9.51106 24.3378 10.8201C24.5182 11.1274 24.6998 11.4347 24.8788 11.7433C25.8073 13.3445 25.0771 15.2214 23.5628 15.9777C23.1535 16.1813 22.7135 16.2888 22.257 16.2913C21.0982 16.3002 19.9382 16.2964 18.7795 16.2977C17.9341 16.2977 17.0899 16.2977 16.2446 16.2977L16.2458 16.2989Z" fill="url(#paint0_linear_586_3041)"/>
<path id="Vector_2" d="M61.4366 12.9539C61.4366 14.4716 61.4353 15.9906 61.4366 17.5083C61.4366 18.0736 61.3867 18.6339 61.1962 19.1689C60.581 20.8914 59.3596 21.9412 57.5473 22.3041C56.6392 22.4863 55.7375 22.4142 54.8934 22.0297C53.2973 21.3025 52.2959 20.1035 52.0375 18.3582C51.9761 17.9421 51.9697 17.5196 51.9927 17.101C52.026 16.5116 52.3291 16.0867 52.8803 15.859C53.4162 15.6377 53.9125 15.7515 54.3396 16.1246C54.63 16.3788 54.7886 16.7077 54.7949 17.0985C54.8001 17.3818 54.7949 17.6651 54.8192 17.9496C54.8858 18.6946 55.4728 19.399 56.331 19.5774C57.5102 19.8227 58.5947 18.9437 58.6229 17.784C58.6408 17.0871 58.628 16.389 58.628 15.6908C58.628 15.6655 58.628 15.639 58.6242 15.6137C58.6101 15.5087 58.5832 15.4872 58.4835 15.5138C58.408 15.5327 58.3338 15.5618 58.2597 15.5871C57.7864 15.749 57.3004 15.8502 56.7991 15.8628C56.0368 15.8831 55.3193 15.7073 54.6402 15.3708C53.9892 15.0471 53.4149 14.6272 52.9609 14.058C52.5107 13.4927 52.2306 12.854 52.0976 12.1483C51.9518 11.3755 51.9582 10.6078 52.1782 9.84645C52.37 9.18119 52.7115 8.60068 53.1962 8.1011C53.5096 7.77733 53.8549 7.49403 54.2348 7.2474C54.8154 6.86925 55.4523 6.66056 56.1417 6.58341C56.8835 6.49994 57.6048 6.57077 58.307 6.82118C58.4425 6.86924 58.5768 6.9211 58.706 6.98307C58.848 7.0501 58.9592 7.03746 59.0782 6.92616C59.302 6.71874 59.5655 6.58215 59.8775 6.54547C60.5579 6.46579 61.2601 6.96537 61.3918 7.62556C61.4315 7.82412 61.4353 8.02269 61.4353 8.22378C61.4353 9.79965 61.4353 11.3768 61.4353 12.9527L61.4366 12.9539ZM56.7198 13.0753C57.5856 13.1247 58.6126 12.3848 58.6229 11.2111C58.6331 10.1487 57.7839 9.31652 56.7057 9.32158C55.7132 9.32664 54.809 10.0374 54.8039 11.1833C54.7988 12.3823 55.8002 13.1082 56.7198 13.0741V13.0753Z" fill="url(#paint1_linear_586_3041)"/>
<path id="Vector_3" d="M7.57314 16.2579C7.48489 16.3186 7.41071 16.2983 7.34164 16.2983C5.90153 16.2983 4.46014 16.3021 3.02003 16.2983C2.14522 16.2958 1.42005 15.9442 0.829173 15.322C0.382815 14.8515 0.114233 14.2899 0.0298219 13.6487C-0.0571475 12.9961 0.0426116 12.3701 0.375142 11.7959C1.11182 10.5223 1.85618 9.25373 2.59926 7.98393C3.70811 6.08682 4.8157 4.1897 5.92967 2.29639C6.14965 1.92202 6.33894 1.52869 6.61136 1.18721C7.22526 0.418246 8.03228 0.012264 9.02092 0.00594031C10.2193 -0.00164813 11.1299 0.524484 11.7541 1.53248C11.8461 1.68172 11.928 1.83602 12.0214 1.984C12.0891 2.09023 12.0789 2.1813 12.015 2.2888C11.6773 2.85667 11.3448 3.42833 11.011 3.99873C9.90468 5.88952 8.79838 7.7803 7.69208 9.67109C7.40048 10.1694 7.11399 10.669 6.81727 11.1635C6.41695 11.83 6.2136 12.5471 6.23023 13.3237C6.25069 14.2621 6.57299 15.0905 7.1741 15.8152C7.29816 15.9644 7.43245 16.1036 7.57186 16.2566L7.57314 16.2579Z" fill="url(#paint2_linear_586_3041)"/>
<path id="Vector_4" d="M73.7985 8.49838C73.7985 7.56247 73.7985 6.62529 73.7985 5.68939C73.7985 5.3049 73.8049 5.32388 73.4173 5.32261C73.0643 5.32135 72.7113 5.33273 72.3584 5.29352C71.692 5.22017 71.1408 4.66874 71.0896 4.0136C71.0372 3.34582 71.5501 2.69068 72.2241 2.56295C72.3405 2.54145 72.4568 2.53006 72.5758 2.53133C72.9096 2.53386 73.2434 2.53386 73.5772 2.53133C73.7652 2.53006 73.7946 2.50097 73.7972 2.31632C73.801 2.00014 73.7921 1.68269 73.7997 1.3665C73.8177 0.636745 74.4431 0.0233454 75.1695 0.000580024C75.7604 -0.0183911 76.5649 0.428062 76.6007 1.33235C76.6122 1.62957 76.6045 1.92678 76.6058 2.22399C76.6058 2.27585 76.6058 2.3277 76.6071 2.37956C76.6071 2.47315 76.6531 2.525 76.749 2.5288C76.8079 2.53133 76.8667 2.53259 76.9255 2.53259C77.5931 2.53259 78.2608 2.53259 78.9284 2.53259C79.1062 2.53259 79.2827 2.54777 79.454 2.58824C80.1076 2.7438 80.5552 3.31926 80.5284 3.96301C80.5002 4.63586 79.995 5.19108 79.3172 5.29099C79.1688 5.31249 79.0192 5.32514 78.867 5.32514C78.2122 5.32261 77.5573 5.32388 76.9025 5.32388C76.8693 5.32388 76.8373 5.32388 76.804 5.32388C76.6365 5.33273 76.6122 5.35676 76.6058 5.51865C76.6058 5.54394 76.6058 5.5705 76.6058 5.5958C76.6058 7.44991 76.602 9.30275 76.6083 11.1569C76.6096 11.6944 76.7861 12.1725 77.189 12.5506C77.5343 12.8756 77.9487 13.0502 78.4245 13.0717C78.6406 13.0818 78.8568 13.0729 79.0729 13.0755C79.3607 13.0793 79.6254 13.1514 79.8748 13.2993C80.6396 13.7521 80.7969 14.9157 80.0027 15.548C79.8659 15.6568 79.706 15.7087 79.5384 15.7441C78.5409 15.9616 77.5688 15.8718 76.6403 15.4557C75.2821 14.8474 74.3766 13.8394 73.9647 12.4153C73.8547 12.0346 73.8023 11.6438 73.801 11.2479C73.7972 10.331 73.801 9.41405 73.801 8.49711L73.7985 8.49838Z" fill="url(#paint3_linear_586_3041)"/>
<path id="Vector_5" d="M51.0924 11.1904C51.0924 12.23 51.0924 13.2696 51.0924 14.3105C51.0924 14.466 51.0821 14.6203 51.0489 14.7721C50.9223 15.3514 50.4721 15.751 49.8658 15.837C49.4489 15.8965 49.0818 15.7864 48.7813 15.5031C48.6329 15.364 48.505 15.3501 48.326 15.4323C47.7236 15.708 47.0841 15.8459 46.4242 15.8598C45.8039 15.8737 45.1976 15.7675 44.6247 15.5208C43.1155 14.8708 42.1256 13.7704 41.7636 12.1769C41.4644 10.8628 41.7342 9.63221 42.5157 8.52809C43.3214 7.38856 44.452 6.75492 45.8358 6.57027C46.6493 6.4615 47.4397 6.59683 48.1968 6.91428C48.2454 6.93451 48.294 6.95349 48.3413 6.97625C48.5012 7.05087 48.6329 7.02811 48.7672 6.90163C49.486 6.22752 50.5949 6.6158 50.9261 7.26082C51.054 7.51124 51.0898 7.77683 51.0898 8.05002C51.0911 9.09596 51.0898 10.1432 51.0898 11.1891L51.0924 11.1904ZM48.2671 11.203C48.3157 10.2633 47.5535 9.33373 46.3922 9.32361C45.3025 9.31476 44.4686 10.1368 44.4661 11.203C44.4635 12.2515 45.3652 13.0887 46.3832 13.0824C47.4294 13.0761 48.3068 12.2022 48.2684 11.2018L48.2671 11.203Z" fill="url(#paint4_linear_586_3041)"/>
<path id="Vector_6" d="M32.9803 11.2024C32.9803 12.242 32.9803 13.2829 32.9803 14.3225C32.9803 14.5109 32.9611 14.6969 32.9061 14.8777C32.6222 15.8022 31.4315 16.1728 30.6782 15.5253C30.4416 15.3216 30.4352 15.3267 30.1436 15.4532C29.5054 15.7301 28.8403 15.8807 28.142 15.8655C27.3388 15.8478 26.5983 15.6075 25.9013 15.2243C25.7887 15.1623 25.7836 15.1408 25.8501 15.0029C25.9921 14.7032 26.1059 14.3946 26.1724 14.0708C26.3796 13.059 26.2159 12.1054 25.6979 11.2112C25.2554 10.4486 24.809 9.68848 24.3576 8.93216C24.2744 8.79178 24.2655 8.68301 24.3665 8.54642C25.185 7.44103 26.2734 6.77831 27.6509 6.59239C28.5346 6.47351 29.3877 6.58354 30.196 6.96929C30.3636 7.04896 30.503 7.03758 30.6437 6.91111C31.2166 6.39636 31.993 6.46212 32.5199 6.91617C32.8639 7.21212 32.9765 7.59786 32.979 8.02661C32.9829 8.79557 32.979 9.56454 32.979 10.3322C32.979 10.6231 32.979 10.914 32.979 11.2049L32.9803 11.2024ZM30.1538 11.2024C30.2139 10.2374 29.3711 9.32803 28.2789 9.32171C27.1841 9.31538 26.3527 10.1286 26.3489 11.1935C26.3451 12.2698 27.257 13.0868 28.2482 13.0843C29.2969 13.0818 30.2011 12.1825 30.1538 11.2024Z" fill="url(#paint5_linear_586_3041)"/>
<path id="Vector_7" d="M33.8477 10.9418C33.8477 9.88192 33.8477 8.82333 33.8477 7.76348C33.8477 7.33853 33.9768 6.96543 34.3004 6.66695C34.8363 6.17243 35.6561 6.17117 36.1869 6.66948C36.192 6.67454 36.1971 6.67833 36.2009 6.68339C36.3263 6.81239 36.3148 6.8301 36.4913 6.7188C36.7867 6.53289 37.1077 6.40641 37.453 6.34191C39.0671 6.03711 40.6019 7.22217 40.6978 8.84104C40.7144 9.13193 40.7195 9.42156 40.7195 9.71245C40.7195 11.1011 40.7208 12.4911 40.7195 13.8798C40.7195 14.0606 40.7093 14.2415 40.6901 14.4211C40.6313 14.9649 40.1312 15.4594 39.5851 15.5682C38.8369 15.7174 37.9391 15.1736 37.9288 14.2111C37.9224 13.6294 37.9263 13.0488 37.9263 12.4671C37.9263 11.5691 37.9263 10.6711 37.9263 9.77315C37.9263 9.68336 37.9314 9.5923 37.9071 9.50376C37.8303 9.22679 37.5809 9.04466 37.2778 9.04466C36.9824 9.04466 36.7253 9.23564 36.6563 9.51388C36.6217 9.65174 36.6 9.79339 36.6166 9.93631C36.6435 10.1817 36.6345 10.427 36.6345 10.6724C36.6345 11.822 36.6332 12.9729 36.6358 14.1226C36.6358 14.5653 36.5028 14.951 36.1562 15.2444C35.7584 15.5821 35.3006 15.6883 34.8018 15.5151C34.3004 15.3405 33.9896 14.9864 33.8809 14.4691C33.8528 14.3363 33.8477 14.201 33.8477 14.0644C33.8489 13.0248 33.8477 11.9839 33.8477 10.9443V10.9418Z" fill="url(#paint6_linear_586_3041)"/>
<path id="Vector_8" d="M67.5062 15.8655C66.4523 15.8655 65.3985 15.8655 64.3446 15.8655C63.9238 15.8655 63.5389 15.7529 63.2319 15.4583C62.8214 15.0649 62.7127 14.5881 62.8802 14.0544C63.0477 13.5245 63.4238 13.2171 63.9699 13.1096C64.1106 13.0818 64.2551 13.0742 64.3996 13.0742C66.4613 13.0755 68.523 13.0755 70.5847 13.0742C70.7688 13.0742 70.9517 13.0869 71.1308 13.1235C71.8073 13.2652 72.2601 13.8419 72.2409 14.5261C72.2217 15.1724 71.7204 15.7264 71.0579 15.8326C70.9095 15.8566 70.7599 15.8668 70.609 15.8668C69.5756 15.8655 68.5409 15.8668 67.5075 15.8668L67.5062 15.8655Z" fill="url(#paint7_linear_586_3041)"/>
<path id="Vector_9" d="M67.5219 9.32173C66.4552 9.32173 65.3886 9.32173 64.3219 9.32173C63.9433 9.32173 63.5916 9.23067 63.3064 8.97772C62.8639 8.58439 62.6951 8.0962 62.8767 7.5258C63.0596 6.95034 63.4791 6.63922 64.0789 6.55574C64.2605 6.53045 64.4434 6.52539 64.6276 6.52539C66.6164 6.52666 68.6064 6.52539 70.5952 6.52792C70.8842 6.52792 71.1695 6.55574 71.4368 6.68222C71.9803 6.94023 72.3205 7.50051 72.2374 8.06837C72.1453 8.70454 71.7936 9.11052 71.1311 9.27747C70.9853 9.31414 70.8344 9.32426 70.6835 9.32426C69.6296 9.323 68.577 9.32426 67.5231 9.32426L67.5219 9.32173Z" fill="url(#paint8_linear_586_3041)"/>
<path id="Vector_10" d="M83.9948 11.1962C83.9948 12.3066 83.9832 13.417 83.9999 14.5275C84.0075 15.0776 83.5266 15.7429 82.8232 15.8289C82.4472 15.8744 82.0904 15.8099 81.7809 15.5797C81.3946 15.2914 81.2207 14.8943 81.1925 14.4263C81.19 14.3947 81.1925 14.3618 81.1925 14.3289C81.1925 12.256 81.1925 10.1844 81.1925 8.11145C81.1925 7.89012 81.2168 7.67259 81.2974 7.46517C81.5084 6.92892 81.9049 6.6102 82.4869 6.56088C83.0752 6.51155 83.5266 6.75818 83.831 7.25901C83.9474 7.45126 84.0011 7.65488 83.9986 7.8838C83.9909 8.98792 83.9948 10.092 83.9948 11.1962Z" fill="url(#paint9_linear_586_3041)"/>
<path id="Vector_11" d="M66.9782 12.2321C65.9895 12.2321 65.0009 12.2321 64.0135 12.2321C63.8153 12.2321 63.6222 12.2156 63.438 12.136C63.0415 11.964 62.7742 11.5479 62.8075 11.152C62.8458 10.6828 63.1554 10.3122 63.6017 10.2009C63.7232 10.1706 63.846 10.1592 63.9713 10.1592C65.9934 10.1592 68.0167 10.1592 70.0387 10.1592C70.3291 10.1592 70.6002 10.2275 70.8215 10.4197C71.1335 10.6891 71.2473 11.0369 71.1565 11.434C71.0619 11.8463 70.7754 12.0829 70.3725 12.1929C70.2255 12.2334 70.0745 12.2334 69.9236 12.2334C68.9414 12.2334 67.9604 12.2334 66.9782 12.2334V12.2321Z" fill="url(#paint10_linear_586_3041)"/>
<path id="Vector_12" d="M83.9953 3.92514C84.0605 4.63971 83.3532 5.29612 82.605 5.30244C81.8786 5.3075 81.2071 4.64983 81.211 3.91122C81.2135 3.31427 81.6727 2.55669 82.6204 2.53645C83.3865 2.52001 83.9927 3.14479 83.994 3.92514H83.9953Z" fill="url(#paint11_linear_586_3041)"/>
</g>
<g id="Group_4">
<path id="Vector_13" d="M16.2458 16.2989C14.3274 16.2989 12.4077 16.2989 10.4892 16.2989C10.0135 16.2989 9.54791 16.2471 9.10795 16.0561C8.06816 15.6046 7.45553 14.8141 7.24195 13.7252C7.1051 13.0245 7.25218 12.3618 7.61029 11.7471C9.17062 9.07851 10.7335 6.41118 12.2951 3.74257C12.7146 3.02673 13.1264 2.30709 13.5511 1.59378C14.1023 0.667985 14.9144 0.116558 16.0079 0.0406734C17.214 -0.0427995 18.1745 0.428949 18.8255 1.42936C19.3128 2.17809 19.7412 2.96602 20.194 3.73751C20.8104 4.78851 21.4243 5.84204 22.0395 6.89304C22.8056 8.20205 23.5717 9.51106 24.3378 10.8201C24.5182 11.1274 24.6998 11.4347 24.8788 11.7433C25.8073 13.3445 25.0771 15.2214 23.5628 15.9777C23.1535 16.1813 22.7135 16.2888 22.257 16.2913C21.0982 16.3002 19.9382 16.2964 18.7795 16.2977C17.9341 16.2977 17.0899 16.2977 16.2446 16.2977L16.2458 16.2989Z" fill="url(#paint12_linear_586_3041)"/>
<path id="Vector_14" d="M61.4366 12.9539C61.4366 14.4716 61.4353 15.9906 61.4366 17.5083C61.4366 18.0736 61.3867 18.6339 61.1962 19.1689C60.581 20.8914 59.3596 21.9412 57.5473 22.3041C56.6392 22.4863 55.7375 22.4142 54.8934 22.0297C53.2973 21.3025 52.2959 20.1035 52.0375 18.3582C51.9761 17.9421 51.9697 17.5196 51.9927 17.101C52.026 16.5116 52.3291 16.0867 52.8803 15.859C53.4162 15.6377 53.9125 15.7515 54.3396 16.1246C54.63 16.3788 54.7886 16.7077 54.7949 17.0985C54.8001 17.3818 54.7949 17.6651 54.8192 17.9496C54.8858 18.6946 55.4728 19.399 56.331 19.5774C57.5102 19.8227 58.5947 18.9437 58.6229 17.784C58.6408 17.0871 58.628 16.389 58.628 15.6908C58.628 15.6655 58.628 15.639 58.6242 15.6137C58.6101 15.5087 58.5832 15.4872 58.4835 15.5138C58.408 15.5327 58.3338 15.5618 58.2597 15.5871C57.7864 15.749 57.3004 15.8502 56.7991 15.8628C56.0368 15.8831 55.3193 15.7073 54.6402 15.3708C53.9892 15.0471 53.4149 14.6272 52.9609 14.058C52.5107 13.4927 52.2306 12.854 52.0976 12.1483C51.9518 11.3755 51.9582 10.6078 52.1782 9.84645C52.37 9.18119 52.7115 8.60068 53.1962 8.1011C53.5096 7.77733 53.8549 7.49403 54.2348 7.2474C54.8154 6.86925 55.4523 6.66056 56.1417 6.58341C56.8835 6.49994 57.6048 6.57077 58.307 6.82118C58.4425 6.86924 58.5768 6.9211 58.706 6.98307C58.848 7.0501 58.9592 7.03746 59.0782 6.92616C59.302 6.71874 59.5655 6.58215 59.8775 6.54547C60.5579 6.46579 61.2601 6.96537 61.3918 7.62556C61.4315 7.82412 61.4353 8.02269 61.4353 8.22378C61.4353 9.79965 61.4353 11.3768 61.4353 12.9527L61.4366 12.9539ZM56.7198 13.0753C57.5856 13.1247 58.6126 12.3848 58.6229 11.2111C58.6331 10.1487 57.7839 9.31652 56.7057 9.32158C55.7132 9.32664 54.809 10.0374 54.8039 11.1833C54.7988 12.3823 55.8002 13.1082 56.7198 13.0741V13.0753Z" fill="url(#paint13_linear_586_3041)"/>
<path id="Vector_15" d="M7.57314 16.2579C7.48489 16.3186 7.41071 16.2983 7.34164 16.2983C5.90153 16.2983 4.46014 16.3021 3.02003 16.2983C2.14522 16.2958 1.42005 15.9442 0.829173 15.322C0.382815 14.8515 0.114233 14.2899 0.0298219 13.6487C-0.0571475 12.9961 0.0426116 12.3701 0.375142 11.7959C1.11182 10.5223 1.85618 9.25373 2.59926 7.98393C3.70811 6.08682 4.8157 4.1897 5.92967 2.29639C6.14965 1.92202 6.33894 1.52869 6.61136 1.18721C7.22526 0.418246 8.03228 0.012264 9.02092 0.00594031C10.2193 -0.00164813 11.1299 0.524484 11.7541 1.53248C11.8461 1.68172 11.928 1.83602 12.0214 1.984C12.0891 2.09023 12.0789 2.1813 12.015 2.2888C11.6773 2.85667 11.3448 3.42833 11.011 3.99873C9.90468 5.88952 8.79838 7.7803 7.69208 9.67109C7.40048 10.1694 7.11399 10.669 6.81727 11.1635C6.41695 11.83 6.2136 12.5471 6.23023 13.3237C6.25069 14.2621 6.57299 15.0905 7.1741 15.8152C7.29816 15.9644 7.43245 16.1036 7.57186 16.2566L7.57314 16.2579Z" fill="url(#paint14_linear_586_3041)"/>
<path id="Vector_16" d="M73.7985 8.49838C73.7985 7.56247 73.7985 6.62529 73.7985 5.68939C73.7985 5.3049 73.8049 5.32388 73.4173 5.32261C73.0643 5.32135 72.7113 5.33273 72.3584 5.29352C71.692 5.22017 71.1408 4.66874 71.0896 4.0136C71.0372 3.34582 71.5501 2.69068 72.2241 2.56295C72.3405 2.54145 72.4568 2.53006 72.5758 2.53133C72.9096 2.53386 73.2434 2.53386 73.5772 2.53133C73.7652 2.53006 73.7946 2.50097 73.7972 2.31632C73.801 2.00014 73.7921 1.68269 73.7997 1.3665C73.8177 0.636745 74.4431 0.0233454 75.1695 0.000580024C75.7604 -0.0183911 76.5649 0.428062 76.6007 1.33235C76.6122 1.62957 76.6045 1.92678 76.6058 2.22399C76.6058 2.27585 76.6058 2.3277 76.6071 2.37956C76.6071 2.47315 76.6531 2.525 76.749 2.5288C76.8079 2.53133 76.8667 2.53259 76.9255 2.53259C77.5931 2.53259 78.2608 2.53259 78.9284 2.53259C79.1062 2.53259 79.2827 2.54777 79.454 2.58824C80.1076 2.7438 80.5552 3.31926 80.5284 3.96301C80.5002 4.63586 79.995 5.19108 79.3172 5.29099C79.1688 5.31249 79.0192 5.32514 78.867 5.32514C78.2122 5.32261 77.5573 5.32388 76.9025 5.32388C76.8693 5.32388 76.8373 5.32388 76.804 5.32388C76.6365 5.33273 76.6122 5.35676 76.6058 5.51865C76.6058 5.54394 76.6058 5.5705 76.6058 5.5958C76.6058 7.44991 76.602 9.30275 76.6083 11.1569C76.6096 11.6944 76.7861 12.1725 77.189 12.5506C77.5343 12.8756 77.9487 13.0502 78.4245 13.0717C78.6406 13.0818 78.8568 13.0729 79.0729 13.0755C79.3607 13.0793 79.6254 13.1514 79.8748 13.2993C80.6396 13.7521 80.7969 14.9157 80.0027 15.548C79.8659 15.6568 79.706 15.7087 79.5384 15.7441C78.5409 15.9616 77.5688 15.8718 76.6403 15.4557C75.2821 14.8474 74.3766 13.8394 73.9647 12.4153C73.8547 12.0346 73.8023 11.6438 73.801 11.2479C73.7972 10.331 73.801 9.41405 73.801 8.49711L73.7985 8.49838Z" fill="url(#paint15_linear_586_3041)"/>
<path id="Vector_17" d="M51.0924 11.1904C51.0924 12.23 51.0924 13.2696 51.0924 14.3105C51.0924 14.466 51.0821 14.6203 51.0489 14.7721C50.9223 15.3514 50.4721 15.751 49.8658 15.837C49.4489 15.8965 49.0818 15.7864 48.7813 15.5031C48.6329 15.364 48.505 15.3501 48.326 15.4323C47.7236 15.708 47.0841 15.8459 46.4242 15.8598C45.8039 15.8737 45.1976 15.7675 44.6247 15.5208C43.1155 14.8708 42.1256 13.7704 41.7636 12.1769C41.4644 10.8628 41.7342 9.63221 42.5157 8.52809C43.3214 7.38856 44.452 6.75492 45.8358 6.57027C46.6493 6.4615 47.4397 6.59683 48.1968 6.91428C48.2454 6.93451 48.294 6.95349 48.3413 6.97625C48.5012 7.05087 48.6329 7.02811 48.7672 6.90163C49.486 6.22752 50.5949 6.6158 50.9261 7.26082C51.054 7.51124 51.0898 7.77683 51.0898 8.05002C51.0911 9.09596 51.0898 10.1432 51.0898 11.1891L51.0924 11.1904ZM48.2671 11.203C48.3157 10.2633 47.5535 9.33373 46.3922 9.32361C45.3025 9.31476 44.4686 10.1368 44.4661 11.203C44.4635 12.2515 45.3652 13.0887 46.3832 13.0824C47.4294 13.0761 48.3068 12.2022 48.2684 11.2018L48.2671 11.203Z" fill="url(#paint16_linear_586_3041)"/>
<path id="Vector_18" d="M32.9803 11.2024C32.9803 12.242 32.9803 13.2829 32.9803 14.3225C32.9803 14.5109 32.9611 14.6969 32.9061 14.8777C32.6222 15.8022 31.4315 16.1728 30.6782 15.5253C30.4416 15.3216 30.4352 15.3267 30.1436 15.4532C29.5054 15.7301 28.8403 15.8807 28.142 15.8655C27.3388 15.8478 26.5983 15.6075 25.9013 15.2243C25.7887 15.1623 25.7836 15.1408 25.8501 15.0029C25.9921 14.7032 26.1059 14.3946 26.1724 14.0708C26.3796 13.059 26.2159 12.1054 25.6979 11.2112C25.2554 10.4486 24.809 9.68848 24.3576 8.93216C24.2744 8.79178 24.2655 8.68301 24.3665 8.54642C25.185 7.44103 26.2734 6.77831 27.6509 6.59239C28.5346 6.47351 29.3877 6.58354 30.196 6.96929C30.3636 7.04896 30.503 7.03758 30.6437 6.91111C31.2166 6.39636 31.993 6.46212 32.5199 6.91617C32.8639 7.21212 32.9765 7.59786 32.979 8.02661C32.9829 8.79557 32.979 9.56454 32.979 10.3322C32.979 10.6231 32.979 10.914 32.979 11.2049L32.9803 11.2024ZM30.1538 11.2024C30.2139 10.2374 29.3711 9.32803 28.2789 9.32171C27.1841 9.31538 26.3527 10.1286 26.3489 11.1935C26.3451 12.2698 27.257 13.0868 28.2482 13.0843C29.2969 13.0818 30.2011 12.1825 30.1538 11.2024Z" fill="url(#paint17_linear_586_3041)"/>
<path id="Vector_19" d="M33.8477 10.9418C33.8477 9.88192 33.8477 8.82333 33.8477 7.76348C33.8477 7.33853 33.9768 6.96543 34.3004 6.66695C34.8363 6.17243 35.6561 6.17117 36.1869 6.66948C36.192 6.67454 36.1971 6.67833 36.2009 6.68339C36.3263 6.81239 36.3148 6.8301 36.4913 6.7188C36.7867 6.53289 37.1077 6.40641 37.453 6.34191C39.0671 6.03711 40.6019 7.22217 40.6978 8.84104C40.7144 9.13193 40.7195 9.42156 40.7195 9.71245C40.7195 11.1011 40.7208 12.4911 40.7195 13.8798C40.7195 14.0606 40.7093 14.2415 40.6901 14.4211C40.6313 14.9649 40.1312 15.4594 39.5851 15.5682C38.8369 15.7174 37.9391 15.1736 37.9288 14.2111C37.9224 13.6294 37.9263 13.0488 37.9263 12.4671C37.9263 11.5691 37.9263 10.6711 37.9263 9.77315C37.9263 9.68336 37.9314 9.5923 37.9071 9.50376C37.8303 9.22679 37.5809 9.04466 37.2778 9.04466C36.9824 9.04466 36.7253 9.23564 36.6563 9.51388C36.6217 9.65174 36.6 9.79339 36.6166 9.93631C36.6435 10.1817 36.6345 10.427 36.6345 10.6724C36.6345 11.822 36.6332 12.9729 36.6358 14.1226C36.6358 14.5653 36.5028 14.951 36.1562 15.2444C35.7584 15.5821 35.3006 15.6883 34.8018 15.5151C34.3004 15.3405 33.9896 14.9864 33.8809 14.4691C33.8528 14.3363 33.8477 14.201 33.8477 14.0644C33.8489 13.0248 33.8477 11.9839 33.8477 10.9443V10.9418Z" fill="url(#paint18_linear_586_3041)"/>
<path id="Vector_20" d="M67.5062 15.8655C66.4523 15.8655 65.3985 15.8655 64.3446 15.8655C63.9238 15.8655 63.5389 15.7529 63.2319 15.4583C62.8214 15.0649 62.7127 14.5881 62.8802 14.0544C63.0477 13.5245 63.4238 13.2171 63.9699 13.1096C64.1106 13.0818 64.2551 13.0742 64.3996 13.0742C66.4613 13.0755 68.523 13.0755 70.5847 13.0742C70.7688 13.0742 70.9517 13.0869 71.1308 13.1235C71.8073 13.2652 72.2601 13.8419 72.2409 14.5261C72.2217 15.1724 71.7204 15.7264 71.0579 15.8326C70.9095 15.8566 70.7599 15.8668 70.609 15.8668C69.5756 15.8655 68.5409 15.8668 67.5075 15.8668L67.5062 15.8655Z" fill="url(#paint19_linear_586_3041)"/>
<path id="Vector_21" d="M67.5219 9.32173C66.4552 9.32173 65.3886 9.32173 64.3219 9.32173C63.9433 9.32173 63.5916 9.23067 63.3064 8.97772C62.8639 8.58439 62.6951 8.0962 62.8767 7.5258C63.0596 6.95034 63.4791 6.63922 64.0789 6.55574C64.2605 6.53045 64.4434 6.52539 64.6276 6.52539C66.6164 6.52666 68.6064 6.52539 70.5952 6.52792C70.8842 6.52792 71.1695 6.55574 71.4368 6.68222C71.9803 6.94023 72.3205 7.50051 72.2374 8.06837C72.1453 8.70454 71.7936 9.11052 71.1311 9.27747C70.9853 9.31414 70.8344 9.32426 70.6835 9.32426C69.6296 9.323 68.577 9.32426 67.5231 9.32426L67.5219 9.32173Z" fill="url(#paint20_linear_586_3041)"/>
<path id="Vector_22" d="M83.9948 11.1962C83.9948 12.3066 83.9832 13.417 83.9999 14.5275C84.0075 15.0776 83.5266 15.7429 82.8232 15.8289C82.4472 15.8744 82.0904 15.8099 81.7809 15.5797C81.3946 15.2914 81.2207 14.8943 81.1925 14.4263C81.19 14.3947 81.1925 14.3618 81.1925 14.3289C81.1925 12.256 81.1925 10.1844 81.1925 8.11145C81.1925 7.89012 81.2168 7.67259 81.2974 7.46517C81.5084 6.92892 81.9049 6.6102 82.4869 6.56088C83.0752 6.51155 83.5266 6.75818 83.831 7.25901C83.9474 7.45126 84.0011 7.65488 83.9986 7.8838C83.9909 8.98792 83.9948 10.092 83.9948 11.1962Z" fill="url(#paint21_linear_586_3041)"/>
<path id="Vector_23" d="M66.9782 12.2321C65.9895 12.2321 65.0009 12.2321 64.0135 12.2321C63.8153 12.2321 63.6222 12.2156 63.438 12.136C63.0415 11.964 62.7742 11.5479 62.8075 11.152C62.8458 10.6828 63.1554 10.3122 63.6017 10.2009C63.7232 10.1706 63.846 10.1592 63.9713 10.1592C65.9934 10.1592 68.0167 10.1592 70.0387 10.1592C70.3291 10.1592 70.6002 10.2275 70.8215 10.4197C71.1335 10.6891 71.2473 11.0369 71.1565 11.434C71.0619 11.8463 70.7754 12.0829 70.3725 12.1929C70.2255 12.2334 70.0745 12.2334 69.9236 12.2334C68.9414 12.2334 67.9604 12.2334 66.9782 12.2334V12.2321Z" fill="url(#paint22_linear_586_3041)"/>
<path id="Vector_24" d="M83.9953 3.92514C84.0605 4.63971 83.3532 5.29612 82.605 5.30244C81.8786 5.3075 81.2071 4.64983 81.211 3.91122C81.2135 3.31427 81.6727 2.55669 82.6204 2.53645C83.3865 2.52001 83.9927 3.14479 83.994 3.92514H83.9953Z" fill="url(#paint23_linear_586_3041)"/>
</g>
</g>
</g>
</g>
<defs>
<linearGradient id="paint0_linear_586_3041" x1="6.29556" y1="0.568774" x2="10.0228" y2="15.3011" gradientUnits="userSpaceOnUse">
<stop stop-color="#881656"/>
<stop offset="1" stop-color="#CE3937"/>
</linearGradient>
<linearGradient id="paint1_linear_586_3041" x1="51.5124" y1="7.06124" x2="57.4137" y2="19.5596" gradientUnits="userSpaceOnUse">
<stop stop-color="#881656"/>
<stop offset="1" stop-color="#CE3937"/>
</linearGradient>
<linearGradient id="paint2_linear_586_3041" x1="-0.597319" y1="0.54431" x2="4.6176" y2="14.2645" gradientUnits="userSpaceOnUse">
<stop stop-color="#881656"/>
<stop offset="1" stop-color="#CE3937"/>
</linearGradient>
<linearGradient id="paint3_linear_586_3041" x1="70.6185" y1="0.524012" x2="76.5226" y2="13.0145" gradientUnits="userSpaceOnUse">
<stop stop-color="#881656"/>
<stop offset="1" stop-color="#CE3937"/>
</linearGradient>
<linearGradient id="paint4_linear_586_3041" x1="41.1769" y1="6.84142" x2="43.4956" y2="15.1852" gradientUnits="userSpaceOnUse">
<stop stop-color="#881656"/>
<stop offset="1" stop-color="#CE3937"/>
</linearGradient>
<linearGradient id="paint5_linear_586_3041" x1="23.8629" y1="6.85482" x2="26.348" y2="15.0848" gradientUnits="userSpaceOnUse">
<stop stop-color="#881656"/>
<stop offset="1" stop-color="#CE3937"/>
</linearGradient>
<linearGradient id="paint6_linear_586_3041" x1="33.5075" y1="6.60135" x2="36.4902" y2="14.4293" gradientUnits="userSpaceOnUse">
<stop stop-color="#881656"/>
<stop offset="1" stop-color="#CE3937"/>
</linearGradient>
<linearGradient id="paint7_linear_586_3041" x1="62.3376" y1="13.1665" x2="62.5602" y2="15.8388" gradientUnits="userSpaceOnUse">
<stop stop-color="#881656"/>
<stop offset="1" stop-color="#CE3937"/>
</linearGradient>
<linearGradient id="paint8_linear_586_3041" x1="62.3372" y1="6.61787" x2="62.5606" y2="9.29619" gradientUnits="userSpaceOnUse">
<stop stop-color="#881656"/>
<stop offset="1" stop-color="#CE3937"/>
</linearGradient>
<linearGradient id="paint9_linear_586_3041" x1="81.0524" y1="6.86158" x2="85.5158" y2="11.6566" gradientUnits="userSpaceOnUse">
<stop stop-color="#881656"/>
<stop offset="1" stop-color="#CE3937"/>
</linearGradient>
<linearGradient id="paint10_linear_586_3041" x1="62.3898" y1="10.2277" x2="62.5283" y2="12.2167" gradientUnits="userSpaceOnUse">
<stop stop-color="#881656"/>
<stop offset="1" stop-color="#CE3937"/>
</linearGradient>
<linearGradient id="paint11_linear_586_3041" x1="81.0729" y1="2.62754" x2="81.7634" y2="5.10033" gradientUnits="userSpaceOnUse">
<stop stop-color="#881656"/>
<stop offset="1" stop-color="#CE3937"/>
</linearGradient>
<linearGradient id="paint12_linear_586_3041" x1="6.29556" y1="0.568774" x2="10.0228" y2="15.3011" gradientUnits="userSpaceOnUse">
<stop stop-color="#881656"/>
<stop offset="1" stop-color="#CE3937"/>
</linearGradient>
<linearGradient id="paint13_linear_586_3041" x1="51.5124" y1="7.06124" x2="57.4137" y2="19.5596" gradientUnits="userSpaceOnUse">
<stop stop-color="#881656"/>
<stop offset="1" stop-color="#CE3937"/>
</linearGradient>
<linearGradient id="paint14_linear_586_3041" x1="-0.597319" y1="0.54431" x2="4.6176" y2="14.2645" gradientUnits="userSpaceOnUse">
<stop stop-color="#881656"/>
<stop offset="1" stop-color="#CE3937"/>
</linearGradient>
<linearGradient id="paint15_linear_586_3041" x1="70.6185" y1="0.524012" x2="76.5226" y2="13.0145" gradientUnits="userSpaceOnUse">
<stop stop-color="#881656"/>
<stop offset="1" stop-color="#CE3937"/>
</linearGradient>
<linearGradient id="paint16_linear_586_3041" x1="41.1769" y1="6.84142" x2="43.4956" y2="15.1852" gradientUnits="userSpaceOnUse">
<stop stop-color="#881656"/>
<stop offset="1" stop-color="#CE3937"/>
</linearGradient>
<linearGradient id="paint17_linear_586_3041" x1="23.8629" y1="6.85482" x2="26.348" y2="15.0848" gradientUnits="userSpaceOnUse">
<stop stop-color="#881656"/>
<stop offset="1" stop-color="#CE3937"/>
</linearGradient>
<linearGradient id="paint18_linear_586_3041" x1="33.5075" y1="6.60135" x2="36.4902" y2="14.4293" gradientUnits="userSpaceOnUse">
<stop stop-color="#881656"/>
<stop offset="1" stop-color="#CE3937"/>
</linearGradient>
<linearGradient id="paint19_linear_586_3041" x1="62.3376" y1="13.1665" x2="62.5602" y2="15.8388" gradientUnits="userSpaceOnUse">
<stop stop-color="#881656"/>
<stop offset="1" stop-color="#CE3937"/>
</linearGradient>
<linearGradient id="paint20_linear_586_3041" x1="62.3372" y1="6.61787" x2="62.5606" y2="9.29619" gradientUnits="userSpaceOnUse">
<stop stop-color="#881656"/>
<stop offset="1" stop-color="#CE3937"/>
</linearGradient>
<linearGradient id="paint21_linear_586_3041" x1="81.0524" y1="6.86158" x2="85.5158" y2="11.6566" gradientUnits="userSpaceOnUse">
<stop stop-color="#881656"/>
<stop offset="1" stop-color="#CE3937"/>
</linearGradient>
<linearGradient id="paint22_linear_586_3041" x1="62.3898" y1="10.2277" x2="62.5283" y2="12.2167" gradientUnits="userSpaceOnUse">
<stop stop-color="#881656"/>
<stop offset="1" stop-color="#CE3937"/>
</linearGradient>
<linearGradient id="paint23_linear_586_3041" x1="81.0729" y1="2.62754" x2="81.7634" y2="5.10033" gradientUnits="userSpaceOnUse">
<stop stop-color="#881656"/>
<stop offset="1" stop-color="#CE3937"/>
</linearGradient>
</defs>
</svg>
