<svg width="101" height="57" viewBox="0 0 101 57" fill="none" xmlns="http://www.w3.org/2000/svg">
<g id="Group">
<g id="Graphic Elements">
<g id="Group_2">
<g id="Group_3">
<path id="Vector" d="M19.3606 33.9428C17.0741 33.9428 14.7862 33.9428 12.4997 33.9428C11.9327 33.9428 11.3779 33.881 10.8535 33.6534C9.61426 33.1153 8.88413 32.1732 8.62957 30.8754C8.46647 30.0403 8.64176 29.2505 9.06857 28.5179C10.9282 25.3374 12.7909 22.1584 14.652 18.9779C15.152 18.1248 15.6428 17.2671 16.1489 16.4169C16.8059 15.3136 17.7738 14.6564 19.0771 14.5659C20.5145 14.4664 21.6592 15.0287 22.4351 16.221C23.0158 17.1133 23.5265 18.0524 24.0661 18.9719C24.8008 20.2245 25.5324 21.4801 26.2656 22.7327C27.1787 24.2928 28.0917 25.8529 29.0048 27.413C29.2197 27.7793 29.4362 28.1456 29.6496 28.5134C30.7562 30.4217 29.8858 32.6586 28.0811 33.56C27.5933 33.8027 27.0689 33.9308 26.5248 33.9338C25.1437 33.9443 23.7612 33.9398 22.3802 33.9413C21.3727 33.9413 20.3666 33.9413 19.3591 33.9413L19.3606 33.9428Z" fill="url(#paint0_linear_314_754)"/>
<path id="Vector_2" d="M73.2241 29.9563C73.2241 31.7651 73.2226 33.5754 73.2241 35.3842C73.2241 36.058 73.1647 36.7258 72.9375 37.3634C72.2044 39.4164 70.7487 40.6675 68.5887 41.1001C67.5065 41.3171 66.4319 41.2312 65.4258 40.773C63.5235 39.9063 62.33 38.4773 62.0221 36.3972C61.9489 35.9012 61.9413 35.3978 61.9687 34.8989C62.0084 34.1964 62.3696 33.69 63.0266 33.4186C63.6653 33.1549 64.2567 33.2905 64.7658 33.7352C65.1118 34.0382 65.3008 34.4301 65.3085 34.8958C65.3146 35.2335 65.3085 35.5711 65.3374 35.9103C65.4167 36.7981 66.1163 37.6377 67.1391 37.8502C68.5445 38.1427 69.8371 37.0951 69.8707 35.7128C69.892 34.8823 69.8768 34.0502 69.8768 33.2182C69.8768 33.188 69.8768 33.1564 69.8722 33.1262C69.8554 33.0011 69.8234 32.9755 69.7045 33.0071C69.6146 33.0297 69.5262 33.0644 69.4378 33.0946C68.8738 33.2875 68.2945 33.4081 67.697 33.4232C66.7885 33.4473 65.9334 33.2378 65.124 32.8368C64.3481 32.4509 63.6637 31.9505 63.1226 31.2722C62.5861 30.5984 62.2523 29.8372 62.0937 28.9961C61.92 28.0751 61.9276 27.1602 62.1898 26.2527C62.4184 25.4599 62.8254 24.768 63.4031 24.1726C63.7765 23.7867 64.1881 23.4491 64.6408 23.1551C65.3328 22.7044 66.0919 22.4557 66.9135 22.3638C67.7976 22.2643 68.6573 22.3487 69.4942 22.6472C69.6557 22.7044 69.8158 22.7662 69.9697 22.8401C70.1389 22.92 70.2715 22.9049 70.4133 22.7723C70.6801 22.5251 70.9941 22.3623 71.366 22.3186C72.1769 22.2236 73.0138 22.819 73.1708 23.6058C73.218 23.8425 73.2226 24.0791 73.2226 24.3188C73.2226 26.197 73.2226 28.0766 73.2226 29.9548L73.2241 29.9563ZM67.6025 30.101C68.6345 30.1598 69.8585 29.278 69.8707 27.8792C69.8829 26.613 68.8707 25.6212 67.5857 25.6272C66.4029 25.6332 65.3252 26.4803 65.3191 27.846C65.313 29.275 66.5065 30.1402 67.6025 30.0995V30.101Z" fill="url(#paint1_linear_314_754)"/>
<path id="Vector_3" d="M9.02582 33.8934C8.92064 33.9657 8.83223 33.9416 8.74992 33.9416C7.03357 33.9416 5.31569 33.9462 3.59934 33.9416C2.55672 33.9386 1.69245 33.5196 0.988225 32.778C0.456247 32.2172 0.136146 31.548 0.0355424 30.7837C-0.0681095 30.006 0.0507854 29.2598 0.447101 28.5755C1.32509 27.0576 2.21223 25.5457 3.09785 24.0324C4.41941 21.7713 5.73944 19.5103 7.0671 17.2538C7.32928 16.8076 7.55488 16.3389 7.87955 15.9319C8.61121 15.0154 9.57304 14.5316 10.7513 14.524C12.1796 14.515 13.2649 15.142 14.0087 16.3434C14.1185 16.5213 14.216 16.7051 14.3273 16.8815C14.4081 17.0081 14.3959 17.1167 14.3197 17.2448C13.9173 17.9216 13.521 18.6029 13.1231 19.2827C11.8046 21.5362 10.4861 23.7897 9.16758 26.0431C8.82004 26.637 8.4786 27.2324 8.12496 27.8218C7.64786 28.6162 7.4055 29.4708 7.42531 30.3964C7.4497 31.5148 7.83382 32.5021 8.55024 33.3658C8.6981 33.5437 8.85815 33.7095 9.02429 33.8919L9.02582 33.8934Z" fill="url(#paint2_linear_314_754)"/>
<path id="Vector_4" d="M87.9555 24.6456C87.9555 23.5302 87.9555 22.4133 87.9555 21.2978C87.9555 20.8396 87.9631 20.8622 87.5013 20.8607C87.0806 20.8592 86.6599 20.8727 86.2391 20.826C85.445 20.7386 84.788 20.0814 84.7271 19.3006C84.6646 18.5047 85.2758 17.7239 86.0791 17.5717C86.2178 17.546 86.3565 17.5325 86.4983 17.534C86.8961 17.537 87.294 17.537 87.6918 17.534C87.9159 17.5325 87.9509 17.4978 87.954 17.2777C87.9585 16.9009 87.9479 16.5225 87.957 16.1457C87.9784 15.276 88.7238 14.5449 89.5895 14.5178C90.2938 14.4952 91.2526 15.0273 91.2952 16.105C91.309 16.4592 91.2998 16.8135 91.3013 17.1677C91.3013 17.2295 91.3013 17.2913 91.3029 17.3531C91.3029 17.4646 91.3577 17.5264 91.472 17.531C91.5422 17.534 91.6123 17.5355 91.6824 17.5355C92.4781 17.5355 93.2738 17.5355 94.0694 17.5355C94.2813 17.5355 94.4917 17.5536 94.6959 17.6018C95.4748 17.7872 96.0083 18.4731 95.9763 19.2403C95.9428 20.0422 95.3407 20.7039 94.5328 20.823C94.356 20.8486 94.1777 20.8637 93.9963 20.8637C93.2158 20.8607 92.4354 20.8622 91.655 20.8622C91.6153 20.8622 91.5772 20.8622 91.5376 20.8622C91.3379 20.8727 91.3089 20.9014 91.3013 21.0943C91.3013 21.1245 91.3013 21.1561 91.3013 21.1863C91.3013 23.396 91.2968 25.6043 91.3044 27.8141C91.3059 28.4547 91.5163 29.0245 91.9964 29.4752C92.408 29.8625 92.9018 30.0706 93.4689 30.0962C93.7265 30.1082 93.9841 30.0977 94.2417 30.1007C94.5846 30.1052 94.9002 30.1911 95.1974 30.3675C96.1089 30.9071 96.2964 32.2939 95.3498 33.0476C95.1867 33.1772 94.9962 33.239 94.7965 33.2812C93.6076 33.5405 92.4491 33.4334 91.3425 32.9375C89.7237 32.2125 88.6445 31.0111 88.1537 29.3139C88.0226 28.8602 87.9601 28.3944 87.9586 27.9226C87.954 26.8298 87.9586 25.7369 87.9586 24.6441L87.9555 24.6456Z" fill="url(#paint3_linear_314_754)"/>
<path id="Vector_5" d="M60.891 27.8532C60.891 29.0923 60.891 30.3313 60.891 31.5719C60.891 31.7573 60.8788 31.9412 60.8392 32.122C60.6883 32.8124 60.1517 33.2887 59.4292 33.3912C58.9323 33.4621 58.4948 33.3309 58.1366 32.9933C57.9598 32.8275 57.8073 32.8109 57.5939 32.9089C56.876 33.2375 56.1139 33.4018 55.3273 33.4184C54.588 33.4349 53.8655 33.3083 53.1826 33.0144C51.384 32.2396 50.2042 30.9282 49.7728 29.029C49.4161 27.4628 49.7377 25.9962 50.6691 24.6803C51.6294 23.3222 52.9769 22.567 54.6261 22.3469C55.5956 22.2173 56.5376 22.3786 57.44 22.7569C57.4979 22.781 57.5558 22.8036 57.6122 22.8308C57.8028 22.9197 57.9598 22.8926 58.1198 22.7418C58.9765 21.9384 60.298 22.4012 60.6928 23.1699C60.8453 23.4684 60.8879 23.7849 60.8879 24.1105C60.8895 25.3571 60.8879 26.6052 60.8879 27.8517L60.891 27.8532ZM57.5238 27.8683C57.5818 26.7484 56.6733 25.6405 55.2892 25.6284C53.9905 25.6178 52.9967 26.5976 52.9936 27.8683C52.9906 29.1179 54.0652 30.1158 55.2785 30.1082C56.5254 30.1007 57.5711 29.0591 57.5254 27.8668L57.5238 27.8683Z" fill="url(#paint4_linear_314_754)"/>
<path id="Vector_6" d="M39.3069 27.8683C39.3069 29.1074 39.3069 30.3479 39.3069 31.587C39.3069 31.8116 39.284 32.0331 39.2185 32.2487C38.8801 33.3506 37.461 33.7922 36.5632 33.0204C36.2812 32.7778 36.2735 32.7838 35.926 32.9345C35.1654 33.2646 34.3727 33.444 33.5405 33.4259C32.5832 33.4048 31.7007 33.1184 30.8699 32.6617C30.7358 32.5878 30.7297 32.5622 30.809 32.3979C30.9781 32.0407 31.1138 31.6729 31.1931 31.287C31.44 30.0811 31.2449 28.9446 30.6276 27.8789C30.1002 26.97 29.5682 26.0641 29.0301 25.1627C28.931 24.9953 28.9204 24.8657 29.0408 24.7029C30.0163 23.3855 31.3135 22.5957 32.9552 22.3741C34.0084 22.2324 35.0251 22.3635 35.9885 22.8233C36.1882 22.9182 36.3543 22.9047 36.522 22.7539C37.2049 22.1404 38.1301 22.2188 38.7581 22.76C39.1682 23.1127 39.3023 23.5724 39.3054 24.0834C39.3099 24.9999 39.3054 25.9163 39.3054 26.8313C39.3054 27.178 39.3054 27.5247 39.3054 27.8714L39.3069 27.8683ZM35.9382 27.8683C36.0098 26.7182 35.0053 25.6345 33.7036 25.6269C32.3988 25.6194 31.408 26.5886 31.4034 27.8578C31.3989 29.1405 32.4857 30.1143 33.667 30.1113C34.9169 30.1083 35.9946 29.0365 35.9382 27.8683Z" fill="url(#paint5_linear_314_754)"/>
<path id="Vector_7" d="M40.3372 27.5579C40.3372 26.2948 40.3372 25.0331 40.3372 23.77C40.3372 23.2635 40.4911 22.8188 40.8768 22.4631C41.5154 21.8737 42.4925 21.8722 43.1251 22.4661C43.1312 22.4722 43.1373 22.4767 43.1419 22.4827C43.2912 22.6365 43.2775 22.6576 43.4879 22.5249C43.84 22.3033 44.2226 22.1526 44.6341 22.0757C46.5578 21.7125 48.3869 23.1248 48.5013 25.0542C48.5211 25.4009 48.5272 25.7461 48.5272 26.0928C48.5272 27.7479 48.5287 29.4044 48.5272 31.0595C48.5272 31.275 48.515 31.4906 48.4921 31.7046C48.422 32.3528 47.826 32.9422 47.1751 33.0718C46.2834 33.2497 45.2134 32.6015 45.2012 31.4544C45.1936 30.761 45.1981 30.0692 45.1981 29.3758C45.1981 28.3056 45.1981 27.2354 45.1981 26.1651C45.1981 26.0581 45.2042 25.9496 45.1753 25.8441C45.0838 25.514 44.7866 25.2969 44.4253 25.2969C44.0732 25.2969 43.7668 25.5245 43.6845 25.8561C43.6433 26.0204 43.6174 26.1893 43.6372 26.3596C43.6693 26.652 43.6586 26.9444 43.6586 27.2369C43.6586 28.607 43.6571 29.9787 43.6601 31.3489C43.6601 31.8765 43.5016 32.3362 43.0885 32.6859C42.6144 33.0884 42.0688 33.215 41.4743 33.0085C40.8768 32.8005 40.5064 32.3784 40.3768 31.7619C40.3433 31.6036 40.3372 31.4424 40.3372 31.2796C40.3387 30.0405 40.3372 28.8 40.3372 27.5609V27.5579Z" fill="url(#paint6_linear_314_754)"/>
<path id="Vector_8" d="M80.4571 33.4258C79.2011 33.4258 77.9451 33.4258 76.6891 33.4258C76.1876 33.4258 75.7288 33.2917 75.3629 32.9405C74.8736 32.4717 74.7441 31.9034 74.9438 31.2673C75.1434 30.6357 75.5916 30.2695 76.2425 30.1413C76.4101 30.1082 76.5824 30.0991 76.7546 30.0991C79.2118 30.1006 81.6689 30.1006 84.1261 30.0991C84.3456 30.0991 84.5636 30.1142 84.777 30.1579C85.5833 30.3267 86.1229 31.0141 86.1001 31.8296C86.0772 32.5998 85.4797 33.26 84.6901 33.3866C84.5133 33.4153 84.3349 33.4273 84.1551 33.4273C82.9234 33.4258 81.6903 33.4273 80.4586 33.4273L80.4571 33.4258Z" fill="url(#paint7_linear_314_754)"/>
<path id="Vector_9" d="M80.4729 25.6267C79.2016 25.6267 77.9303 25.6267 76.6591 25.6267C76.2079 25.6267 75.7887 25.5182 75.4488 25.2167C74.9214 24.7479 74.7202 24.1661 74.9366 23.4863C75.1546 22.8004 75.6546 22.4296 76.3695 22.3301C76.5859 22.3 76.8039 22.2939 77.0234 22.2939C79.3937 22.2955 81.7654 22.2939 84.1357 22.297C84.4802 22.297 84.8201 22.3301 85.1387 22.4809C85.7865 22.7884 86.192 23.4561 86.0929 24.1329C85.9832 24.8911 85.564 25.375 84.7744 25.5739C84.6006 25.6176 84.4208 25.6297 84.2409 25.6297C82.9849 25.6282 81.7304 25.6297 80.4744 25.6297L80.4729 25.6267Z" fill="url(#paint8_linear_314_754)"/>
<path id="Vector_10" d="M100.107 27.8609C100.107 29.1843 100.093 30.5078 100.113 31.8312C100.122 32.4869 99.5488 33.2798 98.7105 33.3823C98.2623 33.4366 97.837 33.3597 97.4682 33.0854C97.0078 32.7417 96.8005 32.2684 96.767 31.7107C96.7639 31.673 96.767 31.6338 96.767 31.5946C96.767 29.1241 96.767 26.655 96.767 24.1845C96.767 23.9207 96.7959 23.6614 96.892 23.4142C97.1435 22.7751 97.616 22.3953 98.3096 22.3365C99.0107 22.2777 99.5488 22.5716 99.9116 23.1685C100.05 23.3976 100.114 23.6403 100.111 23.9132C100.102 25.2291 100.107 26.545 100.107 27.8609Z" fill="url(#paint9_linear_314_754)"/>
<path id="Vector_11" d="M79.8249 29.0955C78.6466 29.0955 77.4683 29.0955 76.2916 29.0955C76.0553 29.0955 75.8251 29.0759 75.6056 28.981C75.1331 28.776 74.8145 28.2801 74.8542 27.8083C74.8999 27.249 75.2688 26.8074 75.8007 26.6747C75.9456 26.6386 76.0919 26.625 76.2413 26.625C78.6512 26.625 81.0626 26.625 83.4725 26.625C83.8185 26.625 84.1417 26.7064 84.4054 26.9355C84.7773 27.2566 84.913 27.6711 84.8047 28.1444C84.6919 28.6358 84.3505 28.9177 83.8703 29.0488C83.6951 29.097 83.5152 29.097 83.3353 29.097C82.1647 29.097 80.9955 29.097 79.8249 29.097V29.0955Z" fill="url(#paint10_linear_314_754)"/>
<path id="Vector_12" d="M100.107 19.195C100.185 20.0466 99.3423 20.829 98.4506 20.8365C97.5848 20.8425 96.7845 20.0587 96.7891 19.1784C96.7921 18.4669 97.3394 17.564 98.4689 17.5399C99.3819 17.5203 100.104 18.265 100.106 19.195H100.107Z" fill="url(#paint11_linear_314_754)"/>
</g>
</g>
</g>
<path id="Ellipse 19" d="M58.6342 52.8899C44.9247 54.693 32.3422 45.1648 30.5206 31.6207C28.699 18.0767 38.3255 5.62746 52.035 3.82435C65.7444 2.02124 78.3269 11.5495 80.1486 25.0935C81.9702 38.6376 72.3436 51.0868 58.6342 52.8899Z" stroke="url(#paint12_linear_314_754)"/>
</g>
<defs>
<linearGradient id="paint0_linear_314_754" x1="0.000553091" y1="27.8652" x2="100.113" y2="27.8652" gradientUnits="userSpaceOnUse">
<stop stop-color="#525177"/>
<stop offset="0.14" stop-color="#545073"/>
<stop offset="0.26" stop-color="#5A4E6A"/>
<stop offset="0.52" stop-color="#9394B0"/>
<stop offset="0.56" stop-color="#9F9FB8"/>
<stop offset="0.65" stop-color="#BFBCCE"/>
<stop offset="0.7" stop-color="#D5D0DD"/>
<stop offset="0.73" stop-color="#CBC7D6"/>
<stop offset="0.78" stop-color="#B2B1C6"/>
<stop offset="0.84" stop-color="#898CAA"/>
<stop offset="0.86" stop-color="#8185A5"/>
<stop offset="0.88" stop-color="#797C9C"/>
<stop offset="0.92" stop-color="#646785"/>
<stop offset="0.97" stop-color="#424360"/>
<stop offset="1" stop-color="#282844"/>
</linearGradient>
<linearGradient id="paint1_linear_314_754" x1="0.000186553" y1="27.8656" x2="100.113" y2="27.8656" gradientUnits="userSpaceOnUse">
<stop stop-color="#525177"/>
<stop offset="0.14" stop-color="#545073"/>
<stop offset="0.26" stop-color="#5A4E6A"/>
<stop offset="0.52" stop-color="#9394B0"/>
<stop offset="0.56" stop-color="#9F9FB8"/>
<stop offset="0.65" stop-color="#BFBCCE"/>
<stop offset="0.7" stop-color="#D5D0DD"/>
<stop offset="0.73" stop-color="#CBC7D6"/>
<stop offset="0.78" stop-color="#B2B1C6"/>
<stop offset="0.84" stop-color="#898CAA"/>
<stop offset="0.86" stop-color="#8185A5"/>
<stop offset="0.88" stop-color="#797C9C"/>
<stop offset="0.92" stop-color="#646785"/>
<stop offset="0.97" stop-color="#424360"/>
<stop offset="1" stop-color="#282844"/>
</linearGradient>
<linearGradient id="paint2_linear_314_754" x1="0.000483653" y1="27.8655" x2="100.113" y2="27.8655" gradientUnits="userSpaceOnUse">
<stop stop-color="#525177"/>
<stop offset="0.14" stop-color="#545073"/>
<stop offset="0.26" stop-color="#5A4E6A"/>
<stop offset="0.52" stop-color="#9394B0"/>
<stop offset="0.56" stop-color="#9F9FB8"/>
<stop offset="0.65" stop-color="#BFBCCE"/>
<stop offset="0.7" stop-color="#D5D0DD"/>
<stop offset="0.73" stop-color="#CBC7D6"/>
<stop offset="0.78" stop-color="#B2B1C6"/>
<stop offset="0.84" stop-color="#898CAA"/>
<stop offset="0.86" stop-color="#8185A5"/>
<stop offset="0.88" stop-color="#797C9C"/>
<stop offset="0.92" stop-color="#646785"/>
<stop offset="0.97" stop-color="#424360"/>
<stop offset="1" stop-color="#282844"/>
</linearGradient>
<linearGradient id="paint3_linear_314_754" x1="0.000815636" y1="27.8653" x2="100.113" y2="27.8653" gradientUnits="userSpaceOnUse">
<stop stop-color="#525177"/>
<stop offset="0.14" stop-color="#545073"/>
<stop offset="0.26" stop-color="#5A4E6A"/>
<stop offset="0.52" stop-color="#9394B0"/>
<stop offset="0.56" stop-color="#9F9FB8"/>
<stop offset="0.65" stop-color="#BFBCCE"/>
<stop offset="0.7" stop-color="#D5D0DD"/>
<stop offset="0.73" stop-color="#CBC7D6"/>
<stop offset="0.78" stop-color="#B2B1C6"/>
<stop offset="0.84" stop-color="#898CAA"/>
<stop offset="0.86" stop-color="#8185A5"/>
<stop offset="0.88" stop-color="#797C9C"/>
<stop offset="0.92" stop-color="#646785"/>
<stop offset="0.97" stop-color="#424360"/>
<stop offset="1" stop-color="#282844"/>
</linearGradient>
<linearGradient id="paint4_linear_314_754" x1="8.35906e-05" y1="27.8653" x2="100.113" y2="27.8653" gradientUnits="userSpaceOnUse">
<stop stop-color="#525177"/>
<stop offset="0.14" stop-color="#545073"/>
<stop offset="0.26" stop-color="#5A4E6A"/>
<stop offset="0.52" stop-color="#9394B0"/>
<stop offset="0.56" stop-color="#9F9FB8"/>
<stop offset="0.65" stop-color="#BFBCCE"/>
<stop offset="0.7" stop-color="#D5D0DD"/>
<stop offset="0.73" stop-color="#CBC7D6"/>
<stop offset="0.78" stop-color="#B2B1C6"/>
<stop offset="0.84" stop-color="#898CAA"/>
<stop offset="0.86" stop-color="#8185A5"/>
<stop offset="0.88" stop-color="#797C9C"/>
<stop offset="0.92" stop-color="#646785"/>
<stop offset="0.97" stop-color="#424360"/>
<stop offset="1" stop-color="#282844"/>
</linearGradient>
<linearGradient id="paint5_linear_314_754" x1="0.00147689" y1="27.8653" x2="100.114" y2="27.8653" gradientUnits="userSpaceOnUse">
<stop stop-color="#525177"/>
<stop offset="0.14" stop-color="#545073"/>
<stop offset="0.26" stop-color="#5A4E6A"/>
<stop offset="0.52" stop-color="#9394B0"/>
<stop offset="0.56" stop-color="#9F9FB8"/>
<stop offset="0.65" stop-color="#BFBCCE"/>
<stop offset="0.7" stop-color="#D5D0DD"/>
<stop offset="0.73" stop-color="#CBC7D6"/>
<stop offset="0.78" stop-color="#B2B1C6"/>
<stop offset="0.84" stop-color="#898CAA"/>
<stop offset="0.86" stop-color="#8185A5"/>
<stop offset="0.88" stop-color="#797C9C"/>
<stop offset="0.92" stop-color="#646785"/>
<stop offset="0.97" stop-color="#424360"/>
<stop offset="1" stop-color="#282844"/>
</linearGradient>
<linearGradient id="paint6_linear_314_754" x1="-0.000191773" y1="27.8654" x2="100.112" y2="27.8654" gradientUnits="userSpaceOnUse">
<stop stop-color="#525177"/>
<stop offset="0.14" stop-color="#545073"/>
<stop offset="0.26" stop-color="#5A4E6A"/>
<stop offset="0.52" stop-color="#9394B0"/>
<stop offset="0.56" stop-color="#9F9FB8"/>
<stop offset="0.65" stop-color="#BFBCCE"/>
<stop offset="0.7" stop-color="#D5D0DD"/>
<stop offset="0.73" stop-color="#CBC7D6"/>
<stop offset="0.78" stop-color="#B2B1C6"/>
<stop offset="0.84" stop-color="#898CAA"/>
<stop offset="0.86" stop-color="#8185A5"/>
<stop offset="0.88" stop-color="#797C9C"/>
<stop offset="0.92" stop-color="#646785"/>
<stop offset="0.97" stop-color="#424360"/>
<stop offset="1" stop-color="#282844"/>
</linearGradient>
<linearGradient id="paint7_linear_314_754" x1="0.000408981" y1="27.8652" x2="100.113" y2="27.8652" gradientUnits="userSpaceOnUse">
<stop stop-color="#525177"/>
<stop offset="0.14" stop-color="#545073"/>
<stop offset="0.26" stop-color="#5A4E6A"/>
<stop offset="0.52" stop-color="#9394B0"/>
<stop offset="0.56" stop-color="#9F9FB8"/>
<stop offset="0.65" stop-color="#BFBCCE"/>
<stop offset="0.7" stop-color="#D5D0DD"/>
<stop offset="0.73" stop-color="#CBC7D6"/>
<stop offset="0.78" stop-color="#B2B1C6"/>
<stop offset="0.84" stop-color="#898CAA"/>
<stop offset="0.86" stop-color="#8185A5"/>
<stop offset="0.88" stop-color="#797C9C"/>
<stop offset="0.92" stop-color="#646785"/>
<stop offset="0.97" stop-color="#424360"/>
<stop offset="1" stop-color="#282844"/>
</linearGradient>
<linearGradient id="paint8_linear_314_754" x1="0.000897297" y1="27.8651" x2="100.113" y2="27.8651" gradientUnits="userSpaceOnUse">
<stop stop-color="#525177"/>
<stop offset="0.14" stop-color="#545073"/>
<stop offset="0.26" stop-color="#5A4E6A"/>
<stop offset="0.52" stop-color="#9394B0"/>
<stop offset="0.56" stop-color="#9F9FB8"/>
<stop offset="0.65" stop-color="#BFBCCE"/>
<stop offset="0.7" stop-color="#D5D0DD"/>
<stop offset="0.73" stop-color="#CBC7D6"/>
<stop offset="0.78" stop-color="#B2B1C6"/>
<stop offset="0.84" stop-color="#898CAA"/>
<stop offset="0.86" stop-color="#8185A5"/>
<stop offset="0.88" stop-color="#797C9C"/>
<stop offset="0.92" stop-color="#646785"/>
<stop offset="0.97" stop-color="#424360"/>
<stop offset="1" stop-color="#282844"/>
</linearGradient>
<linearGradient id="paint9_linear_314_754" x1="0.000294543" y1="27.8654" x2="100.113" y2="27.8654" gradientUnits="userSpaceOnUse">
<stop stop-color="#525177"/>
<stop offset="0.14" stop-color="#545073"/>
<stop offset="0.26" stop-color="#5A4E6A"/>
<stop offset="0.52" stop-color="#9394B0"/>
<stop offset="0.56" stop-color="#9F9FB8"/>
<stop offset="0.65" stop-color="#BFBCCE"/>
<stop offset="0.7" stop-color="#D5D0DD"/>
<stop offset="0.73" stop-color="#CBC7D6"/>
<stop offset="0.78" stop-color="#B2B1C6"/>
<stop offset="0.84" stop-color="#898CAA"/>
<stop offset="0.86" stop-color="#8185A5"/>
<stop offset="0.88" stop-color="#797C9C"/>
<stop offset="0.92" stop-color="#646785"/>
<stop offset="0.97" stop-color="#424360"/>
<stop offset="1" stop-color="#282844"/>
</linearGradient>
<linearGradient id="paint10_linear_314_754" x1="0.00071507" y1="27.8655" x2="100.113" y2="27.8655" gradientUnits="userSpaceOnUse">
<stop stop-color="#525177"/>
<stop offset="0.14" stop-color="#545073"/>
<stop offset="0.26" stop-color="#5A4E6A"/>
<stop offset="0.52" stop-color="#9394B0"/>
<stop offset="0.56" stop-color="#9F9FB8"/>
<stop offset="0.65" stop-color="#BFBCCE"/>
<stop offset="0.7" stop-color="#D5D0DD"/>
<stop offset="0.73" stop-color="#CBC7D6"/>
<stop offset="0.78" stop-color="#B2B1C6"/>
<stop offset="0.84" stop-color="#898CAA"/>
<stop offset="0.86" stop-color="#8185A5"/>
<stop offset="0.88" stop-color="#797C9C"/>
<stop offset="0.92" stop-color="#646785"/>
<stop offset="0.97" stop-color="#424360"/>
<stop offset="1" stop-color="#282844"/>
</linearGradient>
<linearGradient id="paint11_linear_314_754" x1="0.00101743" y1="27.8652" x2="100.114" y2="27.8652" gradientUnits="userSpaceOnUse">
<stop stop-color="#525177"/>
<stop offset="0.14" stop-color="#545073"/>
<stop offset="0.26" stop-color="#5A4E6A"/>
<stop offset="0.52" stop-color="#9394B0"/>
<stop offset="0.56" stop-color="#9F9FB8"/>
<stop offset="0.65" stop-color="#BFBCCE"/>
<stop offset="0.7" stop-color="#D5D0DD"/>
<stop offset="0.73" stop-color="#CBC7D6"/>
<stop offset="0.78" stop-color="#B2B1C6"/>
<stop offset="0.84" stop-color="#898CAA"/>
<stop offset="0.86" stop-color="#8185A5"/>
<stop offset="0.88" stop-color="#797C9C"/>
<stop offset="0.92" stop-color="#646785"/>
<stop offset="0.97" stop-color="#424360"/>
<stop offset="1" stop-color="#282844"/>
</linearGradient>
<linearGradient id="paint12_linear_314_754" x1="84.6396" y1="20.0466" x2="36.8491" y2="40.8648" gradientUnits="userSpaceOnUse">
<stop stop-color="white"/>
<stop offset="1" stop-color="white" stop-opacity="0"/>
</linearGradient>
</defs>
</svg>
