<svg width="102" height="49" viewBox="0 0 102 49" fill="none" xmlns="http://www.w3.org/2000/svg">
<g id="Group 2085662047">
<g id="android">
<path fill-rule="evenodd" clip-rule="evenodd" d="M13.1062 2.56351C14.8476 1.56727 16.8544 0.999512 18.9906 0.999512C21.1269 0.999512 23.1337 1.56727 24.8751 2.56351L26.1491 1.25848C26.4862 0.913188 27.0328 0.913188 27.3699 1.25848C27.707 1.60378 27.707 2.16361 27.3699 2.5089L26.3472 3.55647C29.2224 5.81931 31.0756 9.37699 31.0756 13.378H6.90568C6.90568 9.37699 8.75891 5.81931 11.6341 3.55647L10.6114 2.5089C10.2742 2.16361 10.2742 1.60378 10.6114 1.25848C10.9485 0.913188 11.495 0.913188 11.8321 1.25848L13.1062 2.56351ZM15.5378 8.07294C15.5378 9.04958 14.7648 9.8413 13.8114 9.8413C12.8579 9.8413 12.0849 9.04958 12.0849 8.07294C12.0849 7.09631 12.8579 6.30459 13.8114 6.30459C14.7648 6.30459 15.5378 7.09631 15.5378 8.07294ZM24.1699 9.8413C25.1234 9.8413 25.8963 9.04958 25.8963 8.07294C25.8963 7.09631 25.1234 6.30459 24.1699 6.30459C23.2164 6.30459 22.4435 7.09631 22.4435 8.07294C22.4435 9.04958 23.2164 9.8413 24.1699 9.8413Z" fill="#87C527"/>
<path d="M0 17.7989C0 16.334 1.15942 15.1464 2.58963 15.1464C4.01985 15.1464 5.17926 16.334 5.17926 17.7989V28.4091C5.17926 29.874 4.01985 31.0616 2.58963 31.0616C1.15942 31.0616 0 29.874 0 28.4091V17.7989Z" fill="#87C527"/>
<path d="M12.0849 38.135V44.3243C12.0849 45.7892 13.2444 46.9768 14.6746 46.9768C16.1048 46.9768 17.2642 45.7892 17.2642 44.3243V38.135H20.7171V44.3243C20.7171 45.7892 21.8765 46.9768 23.3067 46.9768C24.7369 46.9768 25.8963 45.7892 25.8963 44.3243V38.135H27.6227C29.5297 38.135 31.0756 36.5516 31.0756 34.5983V15.1464H6.90568V34.5983C6.90568 36.5516 8.45157 38.135 10.3585 38.135H12.0849Z" fill="#87C527"/>
<path d="M32.802 17.7989C32.802 16.334 33.9614 15.1464 35.3916 15.1464C36.8218 15.1464 37.9813 16.334 37.9813 17.7989V28.4091C37.9813 29.874 36.8218 31.0616 35.3916 31.0616C33.9614 31.0616 32.802 29.874 32.802 28.4091V17.7989Z" fill="#87C527"/>
</g>
<g id="Group 2">
<path id="bg" d="M101.016 24.018C101.016 37.2759 90.2684 48.036 76.9985 48.036C63.7285 48.036 52.9805 37.2759 52.9805 24.018C52.9805 10.7481 63.7285 0 76.9985 0C90.2684 0 101.016 10.7481 101.016 24.018Z" fill="#283544"/>
<g id="ios">
<path d="M61.7061 32.3206H64.3293V20.1485H61.7061V32.3206ZM63.0124 18.5523C63.8237 18.5523 64.4768 17.8634 64.4768 17.0021C64.4768 16.1179 63.8237 15.4404 63.0124 15.4404C62.2118 15.4404 61.5586 16.1179 61.5586 17.0021C61.5586 17.8634 62.2118 18.5523 63.0124 18.5523Z" fill="white"/>
<path d="M73.495 15.4749C69.0596 15.4749 66.2784 18.7705 66.2784 24.0413C66.2784 29.312 69.0596 32.5961 73.495 32.5961C77.9197 32.5961 80.701 29.312 80.701 24.0413C80.701 18.7705 77.9197 15.4749 73.495 15.4749ZM73.495 18.0012C76.2025 18.0012 77.9303 20.3437 77.9303 24.0413C77.9303 27.7273 76.2025 30.0699 73.495 30.0699C70.7769 30.0699 69.0596 27.7273 69.0596 24.0413C69.0596 20.3437 70.7769 18.0012 73.495 18.0012Z" fill="white"/>
<path d="M82.2497 27.6584C82.3656 30.7129 84.6623 32.5961 88.1599 32.5961C91.8367 32.5961 94.1545 30.6211 94.1545 27.4747C94.1545 25.0058 92.8481 23.6164 89.7613 22.847L88.0124 22.4107C86.1477 21.9284 85.3786 21.2853 85.3786 20.1829C85.3786 18.805 86.5375 17.8863 88.2547 17.8863C89.9931 17.8863 91.1835 18.8165 91.31 20.3667H93.9016C93.8384 17.45 91.626 15.4749 88.2758 15.4749C84.9678 15.4749 82.6184 17.4615 82.6184 20.4011C82.6184 22.7666 83.9459 24.2365 86.7482 24.9369L88.7183 25.4422C90.6357 25.936 91.4153 26.6249 91.4153 27.8192C91.4153 29.1972 90.1405 30.1847 88.3074 30.1847C86.4532 30.1847 85.0521 29.1857 84.8835 27.6584H82.2497Z" fill="white"/>
</g>
</g>
</g>
</svg>
