<svg width="31" height="35" viewBox="0 0 31 35" fill="none" xmlns="http://www.w3.org/2000/svg">
<g id="Group">
<path id="Vector" d="M29.5242 31.4534C29.4686 31.4899 29.4111 31.5081 29.3514 31.5081C29.2629 31.5081 29.1862 31.4766 29.1216 31.4139C29.0568 31.3508 29.0245 31.2683 29.0245 31.1663C29.0245 31.0709 29.0524 30.9896 29.1082 30.9226C29.1638 30.8554 29.2403 30.8219 29.3372 30.8219C29.399 30.8219 29.4525 30.8345 29.4978 30.8598C29.5718 30.9009 29.6177 30.9727 29.6355 31.0751L29.4868 31.0728C29.4778 31.0251 29.4588 30.9933 29.4298 30.9769C29.4055 30.9616 29.3788 30.954 29.3499 30.954C29.3061 30.954 29.2701 30.972 29.2422 31.0077C29.2143 31.0435 29.2003 31.0976 29.2003 31.1697C29.2003 31.2414 29.2157 31.2934 29.2466 31.3258C29.2775 31.3582 29.3145 31.3745 29.3576 31.3745C29.3973 31.3745 29.4273 31.3637 29.4476 31.3423C29.4678 31.3209 29.4811 31.2937 29.4868 31.2613H29.6315C29.6157 31.3528 29.5801 31.4169 29.5242 31.4534ZM28.9945 30.829C28.9016 30.9234 28.8551 31.0353 28.8551 31.1646C28.8551 31.2989 28.9024 31.4129 28.9969 31.5064C29.091 31.6005 29.2043 31.6473 29.3372 31.6473C29.4698 31.6473 29.5828 31.6001 29.6766 31.5057C29.7706 31.411 29.8175 31.2973 29.8175 31.1646C29.8175 31.0358 29.7709 30.9239 29.6774 30.829C29.5831 30.7326 29.4698 30.6845 29.3372 30.6845C29.2032 30.6845 29.089 30.7326 28.9945 30.829ZM29.7454 31.5804C29.6321 31.6895 29.4959 31.7438 29.3372 31.7438C29.1732 31.7438 29.0348 31.6881 28.9227 31.5764C28.81 31.4649 28.7539 31.3276 28.7539 31.1646C28.7539 30.9955 28.8147 30.8547 28.9358 30.7427C29.0499 30.6378 29.1837 30.5854 29.3372 30.5854C29.4981 30.5854 29.6355 30.6419 29.7494 30.7553C29.8633 30.8683 29.9204 31.0048 29.9204 31.1646C29.9204 31.3291 29.8621 31.4677 29.7454 31.5804Z" fill="#59473D"/>
<path id="Vector_2" d="M30.9918 25.3621C30.9895 25.304 30.9844 25.2485 30.9779 25.1965C30.9736 25.1619 30.9671 25.1276 30.9584 25.0942C30.9439 25.0169 30.9261 24.9401 30.9 24.8672L30.8994 24.8658C30.8456 24.7142 30.7624 24.5688 30.6555 24.4462C30.5491 24.3239 30.4216 24.2269 30.294 24.1599L30.2899 24.1576C30.1538 24.0867 30.0201 24.0473 29.8989 24.0242C29.8632 24.0178 29.8301 24.0145 29.7969 24.0108C29.9518 23.3513 29.7579 22.8477 29.6325 22.6123C29.6422 22.6029 29.6524 22.5937 29.6617 22.5848C29.8271 22.4261 29.9677 22.2742 30.0861 22.1216L30.1085 22.0912C30.2037 21.9555 30.2665 21.8165 30.3066 21.689C30.3409 21.5794 30.3577 21.4802 30.3677 21.3898L30.3688 21.3899L30.3698 21.3844L30.3703 21.3715L30.3742 21.3436H30.372L30.3736 21.3123H30.3745L30.3749 21.2936C30.3756 21.2751 30.376 21.256 30.376 21.2357C30.377 21.1983 30.3768 21.1596 30.3749 21.1171C30.3658 20.9129 30.3286 20.6473 30.1935 20.3598C30.126 20.2165 30.0329 20.0692 29.9087 19.9327C29.7853 19.7965 29.6311 19.6724 29.454 19.5742L29.455 19.5746C29.4421 19.5675 29.432 19.5606 29.4201 19.5537C29.0524 19.0159 28.6323 18.599 28.2598 18.2826C28.0666 18.1187 27.8863 17.9818 27.7325 17.8701C27.5803 17.7591 27.452 17.6713 27.3806 17.6187L27.3813 17.6191C27.2174 17.4998 27.0956 17.428 27.0373 17.3953C26.9031 17.3143 26.8032 17.2496 26.743 17.2044C26.696 17.1692 26.673 17.1465 26.6644 17.1372L26.6599 17.1313C26.6591 17.13 26.6539 17.12 26.6469 17.084C26.6393 17.048 26.6313 16.9867 26.6277 16.8978C26.6214 16.7582 26.6263 16.5537 26.6418 16.2838C26.6662 15.8497 26.716 15.2506 26.7673 14.4387C26.7843 14.1805 26.7868 13.9373 26.7773 13.708C26.7619 13.3404 26.7141 13.0075 26.6367 12.7056L26.6364 12.704C26.6194 12.6353 26.5996 12.5679 26.5789 12.5015L26.5786 12.5009L26.5782 12.5001C26.5626 12.4505 26.5489 12.4132 26.5404 12.3893L26.541 12.3906C26.5254 12.3464 26.5092 12.3028 26.4914 12.2584L26.4908 12.2565C26.482 12.2349 26.4708 12.2071 26.456 12.1725L26.4557 12.1716L26.4554 12.1711C26.4273 12.1057 26.3955 12.0354 26.3552 11.9596L26.3444 11.9394L26.3242 11.9036L26.3098 11.8796C26.2353 11.7578 26.1565 11.6467 26.0741 11.5433C26.0326 11.3565 25.9603 11.0804 25.8405 10.7665C25.734 10.4902 25.5914 10.1837 25.3886 9.88138C25.3182 9.7773 25.2381 9.67404 25.1505 9.57298L25.1797 9.54291C25.2206 9.50034 26.195 8.48683 26.9579 7.17164C28.3798 4.72019 27.9065 3.22141 27.2593 2.39588L27.2409 2.37281L27.2214 2.35112C26.5974 1.66222 25.7488 1.24712 24.699 1.11763C22.5247 0.849047 20.066 1.90869 19.4213 2.2101L18.2494 0.924295L18.245 0.919489C18.1413 0.806343 18.0263 0.70528 17.903 0.616576C17.7788 0.527597 17.6458 0.450976 17.5063 0.386713C17.2262 0.257639 16.9191 0.176898 16.592 0.136528C15.9361 0.0563371 15.1998 0.134194 14.3989 0.338104C13.1987 0.645686 11.8506 1.24121 10.4416 2.08075C9.03324 2.92056 7.56559 4.00533 6.14067 5.29622C4.39943 6.87353 2.9611 8.54121 1.91318 10.124C1.38963 10.9156 0.963273 11.6861 0.646408 12.4169C0.330234 13.1481 0.122309 13.8393 0.042125 14.4789C-0.0159393 14.9439 -0.00667667 15.3831 0.0873321 15.7881C0.128254 15.9652 0.187147 16.1353 0.262769 16.2965C0.359681 16.5037 0.485072 16.6958 0.641016 16.8658L0.644887 16.8699L2.00843 18.2884L2.00055 18.3019C1.98576 18.3275 1.97193 18.3535 1.95742 18.3794C1.9364 18.4179 1.91525 18.4563 1.89507 18.4952C1.88152 18.5218 1.86825 18.5483 1.85539 18.5751C1.8359 18.6148 1.81696 18.6542 1.79843 18.6944C1.78599 18.7213 1.7741 18.7484 1.76235 18.7757C1.74438 18.8164 1.72709 18.8574 1.71064 18.8989C1.69972 18.9261 1.68908 18.9534 1.67815 18.9809C1.66226 19.0227 1.64719 19.0656 1.63198 19.108C1.62258 19.1356 1.6129 19.1632 1.60391 19.191C1.58968 19.2343 1.57654 19.278 1.56341 19.3221C1.55968 19.3343 1.55567 19.3461 1.55207 19.3583C1.54765 19.3739 1.5435 19.3896 1.53921 19.4052C1.5265 19.4502 1.51544 19.4958 1.50424 19.5414C1.4976 19.5686 1.49041 19.5959 1.48405 19.6236C1.47977 19.6437 1.47548 19.6635 1.47133 19.6836C1.46539 19.7118 1.46028 19.7399 1.45461 19.7684C1.44977 19.7939 1.4441 19.8196 1.43968 19.8453C1.42958 19.9025 1.42115 19.9607 1.41299 20.0185C1.41092 20.0357 1.4076 20.0523 1.40553 20.0696L1.40498 20.0744L1.40359 20.0899C1.39903 20.1277 1.39571 20.1657 1.3917 20.2042C1.38604 20.2639 1.3812 20.3239 1.37802 20.3845C1.37608 20.4108 1.37484 20.4379 1.37359 20.4648C1.37276 20.4855 1.37124 20.506 1.37041 20.527C1.36931 20.5692 1.36986 20.6117 1.36958 20.6547C1.36958 20.6801 1.36931 20.7057 1.36958 20.7316C1.36986 20.747 1.36931 20.7621 1.36958 20.7775V20.7861C1.37041 20.8136 1.37152 20.8412 1.37221 20.8684C1.37359 20.8986 1.37636 20.9281 1.37829 20.9579C1.37954 20.9802 1.38009 21.0024 1.38147 21.0244C1.38341 21.044 1.38438 21.0588 1.38576 21.0716C1.38825 21.0996 1.39087 21.128 1.39392 21.1559C1.39682 21.1882 1.40041 21.2225 1.40525 21.2618L1.40553 21.2651V21.2645C1.4076 21.2799 1.40926 21.2901 1.41092 21.3022C1.41521 21.3339 1.42032 21.3659 1.42516 21.3974C1.42903 21.4259 1.43415 21.4577 1.44064 21.4975C1.44382 21.5133 1.44631 21.5267 1.44866 21.5385C1.45226 21.5577 1.45627 21.5768 1.46 21.5956L1.46028 21.5971L1.46083 21.5997L1.46594 21.624C1.47078 21.6502 1.47756 21.6832 1.48765 21.7282C1.49041 21.7403 1.49249 21.7484 1.49484 21.7586C1.50216 21.7873 1.50756 21.8087 1.51157 21.8239L1.51862 21.8531C1.5211 21.8625 1.52345 21.8713 1.52677 21.8849L1.53382 21.9117L1.53991 21.9341L1.54516 21.9544C1.54806 21.9646 1.55027 21.9716 1.55304 21.9808L1.5605 22.0084C1.567 22.0299 1.57419 22.0511 1.58069 22.0726C1.58857 22.0976 1.59852 22.131 1.61318 22.1756L1.61069 22.1683L1.61345 22.1767C1.61691 22.1874 1.61968 22.1944 1.62285 22.2033C1.63585 22.2404 1.64636 22.2688 1.65147 22.2835L1.6523 22.2852V22.2854C1.66087 22.3098 1.67359 22.3453 1.69143 22.3916L1.6917 22.3923L1.69198 22.3934L1.6917 22.3923L1.69322 22.3965L1.69253 22.3945L1.70041 22.4136C1.71175 22.4421 1.72073 22.4642 1.7282 22.4811L1.73705 22.5028L1.73843 22.5063C1.74299 22.5172 1.74921 22.5321 1.75654 22.5492C1.76332 22.5653 1.77133 22.5841 1.78087 22.6057L1.78004 22.6039L1.78972 22.6246C1.79871 22.6444 1.807 22.6631 1.81461 22.6782C1.82179 22.6929 1.82802 22.706 1.83313 22.7168L1.83244 22.715L1.83341 22.7173L1.83424 22.7191L1.83341 22.7173C1.84488 22.7411 1.85871 22.7715 1.87806 22.8094L1.87958 22.813L1.88069 22.8149L1.88884 22.8309C1.89714 22.8464 1.90502 22.8616 1.91207 22.8748C1.92202 22.8936 1.93115 22.9097 1.9382 22.9233L1.93958 22.9263C1.95009 22.9452 1.96474 22.9731 1.98465 23.0088L1.98603 23.0112L1.98742 23.0139L1.99571 23.0276C2.00387 23.042 2.01175 23.0558 2.01921 23.0681C2.03193 23.0896 2.04382 23.1086 2.05308 23.1247L2.05599 23.1291L2.05654 23.1305C2.06622 23.146 2.08101 23.1707 2.10188 23.2039L2.10382 23.2071L2.10977 23.2167C2.12 23.2326 2.12995 23.248 2.13907 23.2619C2.154 23.2839 2.16728 23.3038 2.17861 23.3208L2.17668 23.3179C2.18912 23.3362 2.20612 23.3621 2.22935 23.3948L2.23115 23.3976L2.23225 23.3996L2.23018 23.3962L2.23253 23.3997L2.23446 23.4024L2.23391 23.4019L2.23474 23.403L2.23502 23.4033C2.24608 23.4188 2.25714 23.4341 2.2682 23.4495C2.28354 23.4707 2.2982 23.4904 2.31119 23.5077L2.31036 23.5064C2.32281 23.5232 2.33843 23.5442 2.35723 23.5689L2.36138 23.5743C2.37562 23.5927 2.38916 23.6097 2.40244 23.6265C2.41972 23.6479 2.43617 23.6679 2.45151 23.6866L2.45663 23.693C2.46714 23.7057 2.4793 23.7206 2.49575 23.7399L2.50308 23.7485L2.5028 23.7487L2.50529 23.7517L2.50958 23.7562C2.53419 23.7849 2.55631 23.8095 2.57843 23.8341L2.60193 23.8608L2.60221 23.8613L2.60317 23.8622L2.60497 23.864L2.60442 23.8636C2.61548 23.8757 2.62889 23.8909 2.64562 23.9085L2.65087 23.9144L2.65101 23.9148L2.65184 23.9155L2.65515 23.9188L2.65432 23.918C2.68101 23.9467 2.70714 23.973 2.7334 23.9995C2.74419 24.0104 2.75497 24.0223 2.76589 24.0329L2.76714 24.0341C2.7728 24.0395 2.78552 24.0527 2.80612 24.0731L2.81013 24.0767L2.82188 24.0889C2.85354 24.1197 2.88658 24.1493 2.91921 24.1793L2.92681 24.1867L2.92889 24.1883L2.92972 24.1892L2.93082 24.1903C2.93925 24.1977 2.95266 24.21 2.97216 24.2275L2.97423 24.2297C3.01612 24.2665 3.05829 24.3023 3.10018 24.3369L3.10253 24.339L3.1263 24.3585L3.14248 24.3715L3.14193 24.371L3.16626 24.3901C3.20165 24.4182 3.23649 24.4455 3.26994 24.4709L3.27935 24.4783L3.28377 24.4815C3.29663 24.491 3.30603 24.4978 3.31128 24.502L3.31778 24.507L3.32289 24.5105C3.33257 24.5175 3.34225 24.5242 3.35234 24.5313C3.38206 24.5526 3.41165 24.5735 3.44165 24.594L3.46681 24.6115L3.46971 24.6136L3.50082 24.6346L3.5022 24.6352L3.5181 24.6453C3.54838 24.6656 3.58073 24.6856 3.6128 24.706C3.62967 24.7167 3.64501 24.7269 3.66257 24.7375L3.6898 24.7539L3.70515 24.7629L3.71524 24.7688C3.76515 24.7986 3.81215 24.8255 3.85501 24.849L3.85916 24.851L3.88584 24.8654L3.88778 24.8668C3.94708 24.8982 4.00363 24.9271 4.05699 24.9534L4.06625 24.9578L4.09542 24.9717L4.0957 24.9714C4.12459 24.9853 4.15266 24.9974 4.18128 25.0102C4.19455 25.0163 4.20823 25.0225 4.22178 25.0284C4.23796 25.0357 4.25496 25.0442 4.27114 25.0511L4.28496 25.057L4.28897 25.0586L4.29547 25.0615C4.32326 25.0732 4.35049 25.0831 4.37787 25.0942L4.39183 25.0994C4.42266 25.1118 4.45349 25.1247 4.48418 25.1362L4.49151 25.1388L4.51418 25.1469C4.52856 25.152 4.54335 25.1565 4.55786 25.1618L4.57141 25.1663C4.61538 25.1819 4.65948 25.1977 4.70427 25.2119L4.71478 25.2152L4.71865 25.2164L4.72017 25.2172C4.78902 25.2385 4.85786 25.2581 4.92643 25.2765L4.9292 25.2772L4.94081 25.2801L4.9368 25.2793C4.99749 25.2951 5.05722 25.3087 5.11639 25.3219H5.11708L5.13906 25.3276L5.16201 25.3324C5.21841 25.3447 5.27593 25.3545 5.33385 25.3646L5.35016 25.369L5.39095 25.3751C5.42579 25.3808 5.46063 25.3853 5.49546 25.39C5.50086 25.4044 5.50597 25.4184 5.51053 25.4306L5.51109 25.4325C5.60634 25.6908 5.70961 25.9477 5.82049 26.2026C7.45596 30.6978 11.977 34.1826 17.1358 34.8196C22.295 35.4567 27.8019 32.0509 30.0456 27.4486C30.1422 27.2725 30.2306 27.0998 30.311 26.9324C30.5335 26.7049 30.7063 26.469 30.821 26.2188C30.9584 25.9248 31.0046 25.6153 30.9918 25.3621Z" fill="#59473D"/>
<path id="Vector_3" d="M2.36145 23.5749L2.36311 23.5769L2.36076 23.5741L2.35938 23.5723L2.36145 23.5749Z" fill="#59473D"/>
<path id="Vector_4" d="M26.5791 2.89687C26.3293 2.62101 26.0404 2.41312 25.7264 2.25919C25.6685 2.23791 25.6103 2.21676 25.5506 2.1996C25.5214 2.18037 25.4917 2.16225 25.4615 2.14453C25.1839 2.03894 24.8902 1.97001 24.5879 1.93142C23.0891 1.73987 21.3827 2.28185 20.4068 2.66674C20.3533 2.68898 20.2994 2.71109 20.2447 2.73416C20.1628 2.7689 20.0801 2.80432 19.9963 2.84099C19.8557 2.9025 19.7135 2.9669 19.5679 3.03419C19.5467 3.0438 19.5257 3.05382 19.5047 3.06371L19.1202 2.62005L19.01 2.49276L18.9625 2.43756L17.9566 1.27754L17.8692 1.17675L17.7611 1.05221L17.7419 1.05646L17.4574 1.12045L17.1288 1.19433C16.9471 1.11056 16.7313 1.05083 16.4815 1.01994C15.9812 0.957323 15.3459 1.01486 14.6222 1.20064C13.8985 1.38519 13.0869 1.69552 12.2263 2.12119C10.505 2.97198 8.58876 4.28319 6.74481 5.95402C6.1014 6.53678 5.5014 7.13217 4.94979 7.72934C4.41394 8.30867 3.92399 8.88992 3.48436 9.46306C2.59155 10.6269 1.90722 11.7589 1.47022 12.7687C1.17838 13.4416 0.997828 14.0598 0.931883 14.5888C0.88322 14.9734 0.895939 15.3099 0.960777 15.5878C0.981791 15.6777 1.00958 15.7594 1.04096 15.8376C1.10621 16.0018 1.19193 16.1434 1.30266 16.2646L2.41833 17.4255L2.53791 17.5497L2.54579 17.5413C2.5798 17.5022 2.61464 17.4632 2.65003 17.425L2.65943 17.4149C2.67229 17.4011 2.6857 17.3882 2.69856 17.3751C2.73201 17.3403 2.76588 17.3056 2.80045 17.2717C2.82187 17.2507 2.84358 17.2305 2.86542 17.21C2.88671 17.1901 2.90731 17.1695 2.92888 17.1499C2.93869 17.1411 2.94865 17.133 2.9586 17.1242C2.98127 17.1037 3.00478 17.0837 3.02828 17.0635C3.06091 17.0355 3.09367 17.0077 3.1274 16.9804C3.14703 16.9645 3.1668 16.9487 3.18671 16.9329L3.19542 16.9262C3.23081 16.8986 3.26676 16.8715 3.30256 16.8449C3.32524 16.828 3.34805 16.8115 3.371 16.795C3.40819 16.7688 3.4462 16.7427 3.48436 16.7172C3.50731 16.7019 3.52998 16.6867 3.55321 16.6717C3.59233 16.6465 3.63229 16.6219 3.67224 16.5977C3.6956 16.5837 3.71814 16.5697 3.74136 16.5564C3.78325 16.532 3.82569 16.5089 3.868 16.4858C3.89067 16.4737 3.91293 16.4611 3.9356 16.4493L3.96104 16.436L3.96491 16.4338C4.00086 16.4154 4.03763 16.3983 4.07413 16.3809C4.09459 16.3712 4.11422 16.361 4.13509 16.3515C4.16565 16.3371 4.19689 16.3239 4.228 16.3105C4.25496 16.2988 4.28164 16.2868 4.30901 16.2756L4.33915 16.2624C4.408 16.2345 4.4774 16.2082 4.54763 16.1835C4.56975 16.1755 4.5927 16.1688 4.61509 16.1611C4.63915 16.1531 4.6632 16.145 4.68781 16.1373L4.71615 16.1277C4.73067 16.1233 4.74532 16.1184 4.75956 16.1141C4.78956 16.1053 4.81984 16.0975 4.8497 16.0888L4.87196 16.0828C4.9068 16.0731 4.94136 16.0634 4.97647 16.0547C5.0091 16.0463 5.042 16.0393 5.07504 16.0317C5.11583 16.0224 5.15661 16.0132 5.19753 16.0048C5.21467 16.0015 5.23168 15.9978 5.24882 15.9945C5.26596 15.9914 5.28366 15.9889 5.30094 15.9857C5.34117 15.9786 5.38168 15.9717 5.42205 15.9655C5.45785 15.9602 5.49352 15.9555 5.52919 15.9506C5.55808 15.947 5.58642 15.943 5.61518 15.9399C5.62693 15.9386 5.63854 15.9377 5.65016 15.9367C5.66343 15.9352 5.67601 15.9333 5.68928 15.9322L5.71085 15.9309C5.85393 15.9253 6.01029 15.9264 6.18158 15.939L6.20771 15.9407C6.38052 15.9548 6.56743 15.982 6.76375 16.0233C6.81061 16.0334 6.85734 16.043 6.90573 16.0547C6.91568 16.0364 6.92591 16.0176 6.936 15.9993C7.03997 15.8141 7.14503 15.6335 7.25135 15.4561C7.87263 14.4216 8.53899 13.5172 9.21917 12.7288C9.45115 12.4595 9.68521 12.2031 9.91926 11.9601C10.8949 10.9482 11.8762 10.1602 12.7734 9.55177C12.9727 9.41665 13.168 9.29032 13.358 9.17223C13.617 9.01171 13.8662 8.86657 14.1033 8.73612C14.2965 8.62984 14.4816 8.53318 14.6573 8.44543C14.9503 8.29906 15.2171 8.17767 15.4517 8.07784C15.5244 8.04695 15.5942 8.01798 15.6602 7.99134C15.7626 7.94987 15.8573 7.91307 15.9432 7.88107C15.8692 7.87338 15.7941 7.86748 15.7174 7.8635C15.6459 7.85979 15.5732 7.85842 15.4998 7.85828C15.4813 7.85814 15.463 7.85842 15.4445 7.85842C15.3704 7.85938 15.2956 7.86116 15.2198 7.86583C15.0761 7.87435 14.9292 7.88931 14.7788 7.91279C14.7286 7.92062 14.6782 7.92941 14.6272 7.93943C15.0006 7.74747 15.369 7.60329 15.7244 7.49495C15.9607 7.42286 16.1916 7.36629 16.4132 7.32331C16.7189 7.26467 17.0078 7.23062 17.2743 7.21332C17.4531 7.20192 17.6213 7.1978 17.7772 7.19918C17.9339 7.20069 18.0781 7.20742 18.2078 7.21703C18.6608 7.25081 18.9339 7.3196 18.9339 7.3196C18.8696 7.22966 18.7886 7.15125 18.7005 7.08287C18.5401 6.95943 18.3554 6.871 18.1934 6.80838C18.1297 6.7838 18.069 6.76238 18.0156 6.74577C17.9732 6.73259 17.9336 6.72119 17.901 6.7124C17.9775 6.69936 18.0528 6.68837 18.1272 6.67848C18.2061 6.66791 18.2842 6.65885 18.3608 6.65157C19.0138 6.59088 19.5847 6.64676 20.0137 6.72586C20.5311 6.82088 20.8425 6.95009 20.8425 6.95009C20.7688 6.80728 20.6595 6.68535 20.5399 6.5825C20.4527 6.5078 20.3606 6.44285 20.2725 6.38903C20.4459 6.42885 20.6107 6.4732 20.7673 6.52071C21.181 6.64621 21.5328 6.79218 21.8096 6.92469C21.8992 6.96767 21.9811 7.009 22.0547 7.04813C22.0757 7.05925 22.0949 7.06969 22.1144 7.0804C22.3677 7.21771 22.5077 7.3163 22.5077 7.3163C22.4654 7.16828 22.3794 7.0285 22.2791 6.90299C22.2539 6.87155 22.2283 6.84038 22.2021 6.81099L22.2142 6.81648C22.2235 6.8195 22.2434 6.82568 22.271 6.83502C22.2912 6.84175 22.3156 6.85013 22.3447 6.86056C22.4549 6.90038 22.6234 6.96725 22.8216 7.06502C22.831 7.06955 22.8408 7.0745 22.8504 7.0793C22.8773 7.09303 22.9048 7.1069 22.9323 7.12146C23.0003 7.15702 23.0705 7.19657 23.1423 7.239C23.2091 7.27854 23.2774 7.32097 23.3459 7.36684C23.3813 7.39045 23.4166 7.41476 23.452 7.44002C23.5276 7.49385 23.6027 7.55166 23.6772 7.61345C23.7533 7.67675 23.8284 7.74445 23.9011 7.81626C23.9154 7.83054 23.93 7.84455 23.9443 7.85938C23.9974 7.91348 24.0485 7.97047 24.0979 8.02965C24.1919 8.14115 24.2788 8.26157 24.3561 8.39119C24.4486 8.54663 24.5275 8.71443 24.5864 8.89706C24.5896 8.90735 24.5924 8.91807 24.5953 8.92836C24.638 8.88278 24.7133 8.8008 24.8114 8.68903C25.6258 7.75914 28.024 4.73948 26.5791 2.89687Z" fill="#141C26"/>
<path id="Vector_5" d="M30.162 25.457L30.1624 25.4569C30.1624 25.4569 30.1906 25.2478 30.0793 25.0608L30.0768 25.0557C30.0703 25.0444 30.0634 25.0344 30.0564 25.0244L30.049 25.0135C30.0369 24.9972 30.0221 24.9815 30.0069 24.9657C29.9796 24.9373 29.9478 24.9107 29.91 24.8869C29.8903 24.874 29.8689 24.8622 29.846 24.8509C29.7828 24.821 29.7072 24.7982 29.6173 24.7852C29.5516 24.7757 29.4766 24.773 29.3949 24.7754C29.3618 24.7765 29.3292 24.7772 29.2935 24.7805L29.2773 24.7815C29.2773 24.7815 29.2798 24.7901 29.2833 24.803C29.287 24.8166 29.2921 24.8363 29.2992 24.8622C29.3017 24.8724 29.3043 24.8829 29.3073 24.8946C29.319 24.9409 29.3329 24.9997 29.3472 25.0661C29.347 25.0667 29.343 25.0796 29.3325 25.1039L29.327 25.1168C29.2861 25.2113 29.1748 25.4294 28.9269 25.7133C28.8847 25.7615 28.838 25.812 28.7878 25.8639C28.0963 26.5735 26.5998 27.584 23.4511 28.1493C22.3828 28.299 21.3977 28.3073 20.5564 28.2033C19.3123 28.0497 18.3801 27.6549 17.9464 27.124C17.9088 27.0784 17.8744 27.0315 17.8416 26.9841C17.8174 26.9491 17.794 26.9137 17.7725 26.8778C17.7647 26.8646 17.7577 26.8512 17.7501 26.838C17.5637 26.5108 17.4826 26.154 17.4871 25.8086C17.4931 25.3891 17.6248 24.9877 17.8478 24.6792C18.0288 24.429 18.2693 24.2399 18.5507 24.1526C18.6886 24.1099 18.8361 24.0906 18.9911 24.1011C19.0224 24.1033 19.0637 24.1077 19.1153 24.114C19.2187 24.1269 19.3632 24.1471 19.5404 24.1697C19.5603 24.1722 19.5787 24.1745 19.5994 24.1771C20.1903 24.2501 21.1312 24.3382 22.2691 24.2693C24.3393 24.1441 27.064 23.497 29.5382 21.2811L29.545 21.2724V21.2686C29.5533 21.0829 29.5283 20.7477 29.2921 20.487C29.2509 20.4414 29.2028 20.3983 29.1481 20.3583C29.1167 20.3355 29.0842 20.3137 29.048 20.2934C29.0116 20.2733 28.9785 20.2531 28.9464 20.2328C28.9026 20.2055 28.8612 20.1783 28.8246 20.1513L28.8192 20.1434C28.8025 20.1175 28.7846 20.0922 28.7676 20.0663C28.1257 19.1008 27.2416 18.5404 26.8891 18.2837C26.7228 18.1623 26.6169 18.1069 26.6169 18.1069C25.8535 17.645 25.7415 17.4918 25.8128 16.2373C25.8384 15.7855 25.8876 15.1918 25.9384 14.3868C25.9451 14.2821 25.9483 14.1827 25.9501 14.0849C25.9505 14.0615 25.9511 14.0388 25.9511 14.0158C25.9518 13.9234 25.9508 13.8332 25.9472 13.7465L25.9464 13.7217L25.9443 13.6951C25.9404 13.6269 25.9356 13.5608 25.9299 13.4964C25.9273 13.4681 25.9245 13.4397 25.9216 13.4118C25.914 13.343 25.9053 13.2761 25.8945 13.2116C25.8892 13.1786 25.8827 13.1469 25.8766 13.1148C25.8698 13.0787 25.8625 13.0434 25.8549 13.0088C25.8474 12.9747 25.8398 12.9404 25.8314 12.9076L25.8311 12.9074L25.8314 12.907V12.9074C25.8211 12.8669 25.8092 12.8286 25.7981 12.7903C25.7939 12.7763 25.7906 12.7617 25.786 12.7481C25.7817 12.7352 25.7772 12.7234 25.773 12.7105L25.7687 12.6977L25.7557 12.6609L25.7553 12.6585C25.7447 12.6288 25.7336 12.6 25.7228 12.5718L25.7194 12.5625L25.7083 12.5359L25.6951 12.503L25.692 12.4967V12.4959C25.6691 12.4428 25.6451 12.3911 25.6197 12.3428L25.5995 12.3071C25.5706 12.2597 25.5409 12.2152 25.5106 12.1723L25.4985 12.1543L25.4834 12.1344C25.4617 12.1048 25.4398 12.0759 25.418 12.0488L25.3881 12.0116C25.3588 11.9771 25.3297 11.9438 25.3002 11.9126V11.9123L25.2995 11.9074L25.2987 11.9013L25.297 11.893L25.2948 11.881L25.293 11.8691L25.2892 11.8497L25.2874 11.838L25.282 11.811L25.2799 11.8014C25.2695 11.7499 25.2549 11.6831 25.2352 11.6039L25.2341 11.5981C25.229 11.5791 25.2239 11.559 25.2185 11.5383L25.2163 11.5304C25.2106 11.5089 25.2047 11.4871 25.1982 11.4641L25.1974 11.4626C25.1823 11.4095 25.165 11.3521 25.1458 11.2928C25.1399 11.2735 25.1327 11.2534 25.1256 11.2334C25.1118 11.1917 25.0974 11.1502 25.0814 11.1068C25.0721 11.082 25.0622 11.0573 25.0522 11.0319C25.0367 10.9915 25.0203 10.9513 25.0024 10.9099C24.9911 10.8827 24.9784 10.856 24.9665 10.8285C24.9478 10.7876 24.9285 10.7471 24.9083 10.7063C24.8945 10.6784 24.8806 10.6508 24.8658 10.6231C24.8437 10.5813 24.8202 10.5406 24.7962 10.4995C24.7805 10.4733 24.7651 10.4468 24.7492 10.4204C24.7214 10.3763 24.6914 10.3331 24.6611 10.29C24.6458 10.2687 24.6315 10.2464 24.6155 10.225C24.6015 10.2065 24.5856 10.1893 24.571 10.1712C24.5361 10.127 24.5017 10.0828 24.4635 10.0411L24.459 10.0365L24.4373 10.016C24.3882 9.9637 24.3366 9.91262 24.2812 9.86566L24.2712 9.85729C24.2469 9.83669 24.2213 9.81692 24.1959 9.79769L24.1933 9.79549L24.184 9.7889C24.162 9.77243 24.1392 9.75664 24.1163 9.74126L24.1041 9.73274L24.1089 9.73686C24.0847 9.71901 24.0406 9.69594 23.9829 9.67026C23.9627 9.66161 23.9405 9.65214 23.9168 9.64253C23.7976 9.59515 23.6365 9.54133 23.4458 9.49093C23.4339 9.48764 23.4213 9.48475 23.4097 9.48187C23.2511 9.44095 23.0748 9.40292 22.8879 9.37339C22.825 9.36351 22.7613 9.35431 22.6966 9.34662C22.666 9.34277 22.6347 9.34126 22.604 9.33797C22.5915 9.33673 22.5788 9.33577 22.5664 9.33453C22.4195 9.32053 22.2704 9.31092 22.1205 9.31229L22.1117 9.31256C21.9187 9.31435 21.7253 9.33028 21.5411 9.36653C21.5844 9.29512 21.7015 9.21631 21.819 9.1504C21.9653 9.06815 22.1119 9.00704 22.1119 9.00704C22.0283 9.01322 21.9426 9.02503 21.857 9.03876C21.8295 9.04329 21.8017 9.047 21.7739 9.05208C21.7558 9.05537 21.738 9.05895 21.7201 9.06224L21.7045 9.0654C21.6893 9.06842 21.6748 9.07158 21.6599 9.07474C21.2295 9.16578 20.8153 9.3197 20.585 9.41308C20.5524 9.42626 20.5237 9.4382 20.4986 9.44878L20.4841 9.45482C20.4611 9.45757 20.4376 9.461 20.4147 9.46375L20.4152 9.46306C20.585 9.15122 20.8356 8.98315 21.0264 8.89444C21.0597 8.87893 21.0915 8.86492 21.1204 8.85407C21.1312 8.84995 21.1402 8.84721 21.1499 8.84364C21.1774 8.83403 21.2009 8.82647 21.2212 8.82057C21.2663 8.80752 21.2956 8.80176 21.2956 8.80176C21.2751 8.80231 21.256 8.80492 21.236 8.80601C21.219 8.80711 21.2023 8.80862 21.1855 8.81C21.1607 8.81178 21.1355 8.81315 21.111 8.81535C21.0964 8.81686 21.081 8.81714 21.0664 8.81865C20.5905 8.86986 20.1673 9.03011 19.8047 9.22908C19.5546 9.36625 19.3325 9.52142 19.1455 9.67438C19.0956 9.68468 19.0445 9.69526 18.9926 9.70624C18.4724 9.8165 17.8781 9.95862 17.2532 10.1491C17.0225 10.2194 16.7874 10.2964 16.5504 10.3807C16.3659 10.4465 16.18 10.5182 15.9936 10.5934C15.8602 10.6472 15.7268 10.7038 15.5935 10.7629C14.6341 11.1883 13.6888 11.753 12.8944 12.5107C12.8658 12.5381 12.8358 12.5637 12.8077 12.5915C12.7386 12.6597 12.6719 12.7313 12.6054 12.8027C12.5782 12.8318 12.5496 12.8591 12.5229 12.8888C12.4893 12.9256 12.4583 12.9652 12.4256 13.003C12.2775 13.1742 12.1351 13.3518 12.0034 13.5406C11.9051 13.6806 11.8124 13.8261 11.7244 13.9765L11.7136 13.9943C11.5317 14.308 11.3728 14.6439 11.2411 15.0039C11.1753 15.1841 11.1161 15.3701 11.0642 15.5622C11.0507 15.6132 11.0373 15.6643 11.0246 15.716L11.0175 15.7429C10.9673 15.9515 10.9271 16.1683 10.8946 16.3915C10.8884 16.4354 10.8815 16.4788 10.8755 16.5234C10.8614 16.6348 10.8504 16.7484 10.841 16.8634C10.8323 16.9686 10.8258 17.0753 10.8209 17.1835L10.8198 17.2084C10.8178 17.2612 10.8147 17.3138 10.8136 17.3675C10.8125 17.4287 10.8129 17.4912 10.8129 17.5536C10.8126 17.5681 10.8126 17.5825 10.8125 17.5972C10.8129 17.719 10.815 17.8418 10.8204 17.9673L10.8218 17.9873C10.8272 18.1119 10.836 18.239 10.8469 18.3673C10.8515 18.4206 10.856 18.474 10.8614 18.5279C10.8628 18.541 10.8637 18.5542 10.8649 18.5675C10.8679 18.5974 10.8717 18.6278 10.875 18.6576C10.8909 18.7994 10.9101 18.9437 10.9325 19.0901C10.9384 19.1307 10.944 19.1713 10.9506 19.2122C10.9713 19.3403 10.9937 19.4694 11.0192 19.6008C11.0192 19.6008 10.9961 19.4323 11.0105 19.1844C11.0141 19.1274 11.0195 19.0665 11.0272 19.0015C11.045 18.8608 11.0753 18.7056 11.1269 18.5455C11.1396 18.5064 11.1538 18.467 11.1692 18.4273C11.1755 18.41 11.1833 18.393 11.1903 18.3757C11.2209 18.3023 11.2552 18.2287 11.2965 18.1561C11.3059 18.2079 11.3159 18.2594 11.3264 18.3115L11.3297 18.3284L11.3294 18.352C11.3291 18.3842 11.3286 18.4188 11.3283 18.4554C11.3278 18.5345 11.3278 18.6238 11.3286 18.7211C11.3297 18.8188 11.3315 18.9235 11.3351 19.0346C11.3493 19.5008 11.3898 20.0635 11.4912 20.5429C11.4912 20.5429 11.5102 19.6712 11.6589 19.5725C11.6589 19.5725 11.9186 21.1869 12.1597 21.7963C12.191 21.8752 12.2221 21.9381 12.2521 21.9775L12.2459 21.8174L12.2116 20.9202C12.2116 20.9202 12.2131 20.8867 12.2164 20.8279C12.3971 21.1955 12.6028 21.5734 12.8349 21.9616C12.8995 22.069 12.9652 22.1769 13.0336 22.2859C12.5869 22.676 12.174 23.2279 11.8776 23.888C11.8303 23.9934 11.7858 24.1016 11.7447 24.2123C11.7215 24.2753 11.6994 24.3397 11.6782 24.4045C11.6714 24.4249 11.6651 24.4453 11.6589 24.4659C11.6446 24.5115 11.6307 24.5571 11.6175 24.6035C11.6107 24.6271 11.6044 24.6507 11.598 24.6746C11.5856 24.7208 11.5737 24.7673 11.5626 24.8144C11.5572 24.8364 11.5516 24.8582 11.547 24.8803C11.5317 24.9476 11.5173 25.0152 11.5046 25.0837L11.5036 25.09C11.4912 25.1587 11.4801 25.228 11.4703 25.2978C11.4671 25.3203 11.4643 25.3429 11.4617 25.3653C11.4552 25.4152 11.4495 25.4651 11.4447 25.5153C11.4419 25.5408 11.4399 25.5662 11.4377 25.5919C11.4334 25.6424 11.4301 25.6936 11.4274 25.7446C11.426 25.7676 11.4247 25.7907 11.4238 25.8139C11.4208 25.8875 11.419 25.9618 11.4193 26.0366L11.4195 26.0463C11.4195 26.1038 11.4212 26.1612 11.4234 26.219C11.4258 26.2774 11.4294 26.3357 11.4336 26.3945L11.4352 26.4181L11.436 26.4328C11.4417 26.5041 11.4493 26.5755 11.4581 26.6474C11.4609 26.6702 11.4649 26.693 11.4679 26.7159C11.4747 26.7651 11.4813 26.8144 11.4899 26.8641C11.4943 26.8914 11.4997 26.9193 11.5046 26.9468C11.5131 26.9922 11.5216 27.0374 11.5314 27.083C11.5376 27.1122 11.5444 27.1415 11.5507 27.1709C11.5611 27.2151 11.5716 27.2597 11.5832 27.3042C11.5907 27.3338 11.5986 27.3638 11.607 27.3937C11.6195 27.4383 11.632 27.4831 11.6459 27.528C11.6547 27.5574 11.6637 27.5871 11.6731 27.6166C11.6882 27.663 11.7042 27.7097 11.7204 27.7561C11.7303 27.784 11.7396 27.8118 11.75 27.8397C11.7689 27.8912 11.7892 27.9427 11.8102 27.9943C11.8195 28.0174 11.8281 28.0403 11.8379 28.0635C11.9005 28.2131 11.9707 28.3631 12.049 28.5134C12.0609 28.5355 12.0736 28.5579 12.0852 28.5802C12.1136 28.6328 12.1424 28.6856 12.1726 28.7381C12.1885 28.7656 12.2051 28.7931 12.2218 28.8208C12.2501 28.8682 12.2788 28.916 12.309 28.9635C12.3274 28.9929 12.3468 29.0224 12.366 29.0519C12.396 29.0975 12.4267 29.1434 12.4581 29.1888C12.4791 29.2193 12.5002 29.2494 12.5217 29.2796C12.5539 29.325 12.5873 29.3705 12.6218 29.4157C12.644 29.4456 12.6663 29.4754 12.6892 29.5052C12.7256 29.5517 12.7626 29.5981 12.8009 29.6444C12.8236 29.6728 12.8464 29.7013 12.8699 29.7294C12.9125 29.7799 12.9569 29.8306 13.0017 29.8809C13.0227 29.9048 13.0426 29.9285 13.064 29.9523C13.1312 30.0263 13.2 30.1003 13.2719 30.1739L13.2717 30.1735C13.2712 30.1728 13.2298 30.1135 13.1734 30.0094L13.1713 30.006C13.1609 29.9866 13.1499 29.9652 13.1385 29.9425L13.1349 29.9362C13.123 29.9126 13.111 29.8872 13.0986 29.8605L13.0961 29.8559C13.0831 29.8276 13.0697 29.7974 13.0564 29.7657C12.9505 29.5129 12.8477 29.162 12.8609 28.7706C12.9018 28.8251 12.9436 28.8775 12.9851 28.9311C13.0333 29.0286 13.0947 29.1495 13.1663 29.2855C13.1904 29.3307 13.2154 29.3776 13.2414 29.426C13.3466 29.6186 13.4685 29.8327 13.6012 30.0466C13.7609 30.3034 13.9364 30.5604 14.1176 30.7823L14.1173 30.7821C14.1165 30.7805 13.9064 30.3449 13.836 30.059C13.8162 29.9786 13.8068 29.9096 13.817 29.8662C13.8341 29.8833 13.8509 29.9008 13.8679 29.9181C13.8848 29.9355 13.9018 29.9525 13.9189 29.97C13.9524 30.0142 13.9947 30.07 14.0421 30.1319L14.066 30.163C14.0895 30.1938 14.1137 30.2257 14.14 30.2594L14.1414 30.2614C14.1715 30.3004 14.2032 30.3409 14.2358 30.3829C14.5315 30.7604 14.925 31.2429 15.2055 31.5079C15.2991 31.5963 15.3799 31.6606 15.4406 31.6885L15.0358 30.9681C15.952 31.7086 19.7326 32.6594 23.457 31.5981C23.9064 31.4704 24.3556 31.3125 24.798 31.1212C25.0653 31.0064 25.3299 30.8802 25.5919 30.7403L25.6299 30.7193C25.8133 30.6198 25.9951 30.5129 26.1755 30.4002L26.1795 30.3977C26.315 30.313 26.4492 30.2243 26.5821 30.1323C26.8045 29.9766 27.0249 29.8126 27.2396 29.6344L27.2401 29.6341L27.2409 29.6334C27.2533 29.6226 27.266 29.612 27.279 29.6012C27.4917 29.4165 27.6909 29.2266 27.8759 29.0332C28.1203 28.7778 28.3399 28.5169 28.5385 28.2552L28.5532 28.2364C28.6017 28.1719 28.6493 28.1076 28.6955 28.044L28.7085 28.0254C28.7235 28.0035 28.7368 27.9828 28.7517 27.9612C28.8159 27.8695 28.8793 27.7776 28.9388 27.6865C28.953 27.6646 28.9677 27.6424 28.9819 27.6204C29.0127 27.5721 29.0425 27.5237 29.0722 27.4761C29.0946 27.4386 29.1175 27.4013 29.1392 27.3642C29.1634 27.3238 29.1878 27.2833 29.2113 27.2432C29.2529 27.1703 29.2935 27.0979 29.3325 27.026C29.3479 26.9974 29.3624 26.9697 29.3773 26.9415C29.407 26.8855 29.4362 26.8302 29.4637 26.7754C29.4766 26.7499 29.4896 26.7243 29.502 26.6989L29.5133 26.6749C29.5479 26.6058 29.5808 26.5372 29.6127 26.4697L29.6187 26.4553C29.7385 26.3442 29.8317 26.2386 29.9065 26.1376C29.9173 26.1233 29.9286 26.1087 29.9386 26.0945C30.1046 25.8565 30.159 25.646 30.162 25.457Z" fill="#856249"/>
<path id="Vector_6" d="M7.91274 22.7828C7.90942 22.7659 7.90652 22.7493 7.90362 22.7327L7.90652 22.7316C7.86297 22.4933 7.82993 22.2489 7.80629 21.9991C7.80477 21.9813 7.80228 21.9641 7.80035 21.9464C7.75887 21.9593 7.71214 22.0138 7.66514 22.0883C7.64758 22.1161 7.6303 22.1466 7.61302 22.1787C7.48721 22.4135 7.37385 22.7393 7.37385 22.7393C7.3827 22.6305 7.39473 22.5176 7.40814 22.4042C7.40966 22.391 7.41159 22.3781 7.41325 22.3648C7.42721 22.2493 7.44339 22.1329 7.46067 22.0171C7.46261 22.0031 7.46482 21.9893 7.46689 21.9755C7.48708 21.8451 7.50837 21.7154 7.53049 21.5904C7.53339 21.574 7.53602 21.5582 7.53906 21.5422L7.54072 21.5339C7.54334 21.5195 7.54583 21.5048 7.54846 21.4904C7.55219 21.4688 7.55606 21.4473 7.56007 21.426C7.57818 21.3269 7.59684 21.231 7.61496 21.1401C7.63141 21.058 7.64731 20.9803 7.66265 20.9071L7.66749 20.8835C7.6697 20.8719 7.67219 20.8615 7.67454 20.8505C7.67689 20.8398 7.6791 20.8287 7.68131 20.8176L7.68214 20.8137C7.68615 20.7955 7.6903 20.7766 7.69403 20.7593L7.69514 20.7545C7.6986 20.7374 7.70191 20.7228 7.70537 20.7067C7.71104 20.6816 7.71643 20.6558 7.72168 20.6323L7.7232 20.6257C7.72749 20.6066 7.7315 20.5873 7.73551 20.5698C7.74131 20.5447 7.74671 20.5216 7.75127 20.4998L7.75154 20.4991L7.75182 20.4986C7.75459 20.4861 7.75721 20.4752 7.75984 20.4637L7.76039 20.4616C7.76288 20.4512 7.76509 20.4402 7.76744 20.431C7.77284 20.408 7.77767 20.3871 7.78154 20.371L7.785 20.3567L7.78638 20.3515L7.79039 20.3346L7.79316 20.323L7.79371 20.3213L7.79177 20.3228L7.76634 20.3457C7.74394 20.3655 7.72099 20.3849 7.69998 20.4069L7.67689 20.4321C7.65214 20.4596 7.62809 20.4884 7.60569 20.519L7.5938 20.5339C7.56602 20.5723 7.54016 20.6127 7.51555 20.6537V20.6539L7.51238 20.6592L7.51224 20.6595L7.50228 20.6778C7.49661 20.6878 7.49122 20.6981 7.48583 20.7083C7.47159 20.7339 7.45694 20.7589 7.44422 20.7849L7.44353 20.7858L7.44311 20.7867L7.44242 20.7889L7.43744 20.7986L7.43288 20.8084C7.41297 20.8494 7.39486 20.8902 7.37786 20.9304C7.32975 21.0436 7.29256 21.1514 7.26463 21.2414C7.25496 21.2734 7.24583 21.3038 7.23851 21.3306C7.22233 21.3886 7.21099 21.4341 7.20588 21.4563L7.2056 21.4583L7.20201 21.4732V21.473V21.4732L7.20339 21.4558C7.20533 21.4212 7.20933 21.3869 7.2121 21.3525C7.21749 21.2803 7.22205 21.2078 7.23007 21.1361C7.23643 21.0757 7.24583 21.0167 7.2544 20.9567C7.25717 20.938 7.26007 20.9192 7.26284 20.9006C7.26657 20.873 7.27044 20.8454 7.275 20.818C7.27901 20.7923 7.28468 20.767 7.28952 20.7419L7.2898 20.74V20.7398L7.29519 20.7117L7.29685 20.704C7.30251 20.6732 7.30846 20.6419 7.3144 20.6112C7.31648 20.5992 7.31869 20.5873 7.32118 20.5753L7.32546 20.5541L7.32629 20.5501C7.32837 20.54 7.33058 20.5297 7.33279 20.5199C7.33528 20.5072 7.33874 20.495 7.34136 20.4831C7.35159 20.4379 7.36265 20.3935 7.3733 20.3489L7.37509 20.3415C7.38298 20.3083 7.3903 20.2749 7.39887 20.2422L7.39915 20.2407L7.39998 20.2385L7.40261 20.2289C7.42016 20.1616 7.43966 20.0958 7.45915 20.0295L7.46938 19.993C7.47311 19.9808 7.47629 19.9679 7.48016 19.9555C7.51237 19.848 7.5468 19.7418 7.58344 19.638L7.58814 19.625C7.61952 19.5368 7.65131 19.4501 7.68463 19.3645L7.68836 19.3548C7.70343 19.3171 7.71892 19.281 7.73371 19.2438L7.7362 19.2383C7.75887 19.1828 7.78127 19.1271 7.80449 19.0734L7.80463 19.0729V19.0726L7.80505 19.0719L7.80767 19.0652C7.81389 19.0517 7.82827 19.019 7.85067 18.971L7.85108 18.9701L7.85413 18.9637V18.9636C7.86283 18.9446 7.87113 18.9262 7.87956 18.907C7.89325 18.8764 7.90707 18.8461 7.92062 18.8161L7.93293 18.7897L7.9332 18.7885L8.16919 18.3673C8.17901 18.3495 8.18869 18.3319 8.19809 18.3142L8.20306 18.3057L8.21509 18.284C8.24081 18.2373 8.26666 18.1903 8.29182 18.1448C8.3297 18.0769 8.36606 18.0121 8.39993 17.9513C8.46919 17.8274 8.5285 17.7224 8.56458 17.6591C8.58449 17.6239 8.59762 17.6007 8.60149 17.5936L8.60315 17.5904H8.60288L8.60205 17.5897L8.59984 17.5881C8.59071 17.5819 8.5191 17.5329 8.40117 17.4619C8.26666 17.3814 8.07117 17.2723 7.83339 17.1627C7.75721 17.1274 7.67703 17.0925 7.59297 17.0583C7.49233 17.0173 7.38671 16.9775 7.2768 16.9408C7.24846 16.9315 7.21874 16.9239 7.19012 16.915C7.09805 16.8861 7.00362 16.8603 6.90699 16.8374L6.90146 16.8362C6.8351 16.8204 6.76915 16.8039 6.70114 16.7914C6.64777 16.7814 6.59427 16.7715 6.53994 16.7641C6.51408 16.7605 6.48726 16.7584 6.46114 16.7561C6.43514 16.7535 6.40943 16.7509 6.38358 16.7483C6.31045 16.7418 6.23704 16.7385 6.16363 16.7367C6.12796 16.7359 6.09229 16.7348 6.05662 16.7356C5.89681 16.7392 5.7399 16.7532 5.58575 16.7751L5.55768 16.7793C5.2798 16.8206 5.01174 16.8901 4.75654 16.9858C4.66985 17.0182 4.58442 17.0532 4.5005 17.0914C4.47672 17.1024 4.45308 17.1139 4.42944 17.1255C4.40068 17.1393 4.37151 17.1529 4.34317 17.1674C4.0899 17.2968 3.85336 17.4535 3.63617 17.632L3.62843 17.6385C3.44097 17.7928 3.26885 17.9639 3.11346 18.1498C3.06894 18.2028 3.02594 18.2571 2.98447 18.3124C2.93525 18.3778 2.88783 18.4445 2.84263 18.5129C2.7576 18.6421 2.68005 18.7765 2.61037 18.9159C2.5859 18.9648 2.56184 19.0141 2.53945 19.0641C2.5353 19.0734 2.53157 19.0833 2.52756 19.0928C2.3842 19.4186 2.28369 19.7674 2.23406 20.1314C2.22424 20.2028 2.21622 20.2748 2.21028 20.3475L2.20821 20.3747C2.20392 20.4323 2.20102 20.4901 2.19922 20.5481C2.19701 20.6193 2.19659 20.691 2.19839 20.7628C2.19867 20.7744 2.19977 20.7854 2.20005 20.7968C2.20185 20.8527 2.20406 20.9082 2.20821 20.9635L2.21139 20.9926C2.21249 21.0055 2.21374 21.0183 2.21484 21.0309C2.21857 21.0747 2.22272 21.1181 2.22784 21.1608L2.22963 21.1707V21.1735L2.22991 21.1739C2.23295 21.1954 2.23669 21.2171 2.23973 21.2388C2.24539 21.2777 2.25079 21.3168 2.25728 21.3553C2.2624 21.3833 2.26862 21.4108 2.27401 21.4385C2.28134 21.4743 2.2877 21.5107 2.29613 21.5463C2.30277 21.5757 2.31065 21.6044 2.31797 21.6329L2.32281 21.6531L2.33069 21.6832L2.33664 21.7061L2.34397 21.7339C2.35226 21.7636 2.36208 21.7934 2.37092 21.8231C2.3806 21.8544 2.39 21.8863 2.40037 21.917C2.41032 21.9475 2.42166 21.9774 2.43272 22.0077L2.44171 22.0318C2.44917 22.0534 2.45678 22.0752 2.46549 22.0968C2.47738 22.1273 2.49051 22.1576 2.50323 22.1882C2.51498 22.216 2.52645 22.244 2.53862 22.2716C2.54567 22.2874 2.55314 22.3027 2.56046 22.3178C2.56807 22.3331 2.57484 22.3486 2.58203 22.3638C2.59447 22.3902 2.60691 22.4162 2.62019 22.4422C2.63608 22.4736 2.65281 22.5045 2.66954 22.5352C2.68281 22.5595 2.69553 22.5838 2.70894 22.6078C2.72678 22.6394 2.74599 22.6706 2.76493 22.702C2.77834 22.7239 2.79134 22.7461 2.80516 22.7684C2.82535 22.8002 2.84636 22.8311 2.86765 22.8623C2.88134 22.883 2.89502 22.9035 2.90899 22.9235C2.93138 22.9553 2.95461 22.9866 2.97797 23.018C2.99166 23.0365 3.00548 23.0551 3.01945 23.0732C3.04405 23.1055 3.06977 23.1368 3.09562 23.168C3.10889 23.1846 3.12244 23.2013 3.13668 23.2175C3.16364 23.2494 3.19157 23.2805 3.21991 23.3117C3.23304 23.3264 3.24631 23.341 3.26014 23.3557C3.28945 23.3875 3.31972 23.4187 3.35055 23.4489C3.36382 23.4618 3.3764 23.475 3.38968 23.4879C3.42161 23.5189 3.45479 23.5497 3.48755 23.5799C3.50014 23.591 3.51258 23.6023 3.52502 23.6137C3.55958 23.6442 3.59484 23.6742 3.63078 23.7037C3.64267 23.7135 3.65401 23.7234 3.66589 23.7329C3.70322 23.7632 3.74124 23.7922 3.77954 23.8211C3.79046 23.829 3.80179 23.8376 3.81244 23.8457C3.85253 23.8747 3.89276 23.903 3.93368 23.9307L3.9641 23.9513C4.0064 23.9795 4.0494 24.0071 4.09281 24.0334L4.12046 24.0501C4.16539 24.0774 4.21128 24.1028 4.25746 24.1283L4.28124 24.1415C4.32907 24.1672 4.37746 24.1915 4.42598 24.2154L4.44686 24.2251C4.49704 24.2493 4.5475 24.2721 4.59879 24.2942L4.6169 24.302C4.66944 24.3239 4.72239 24.3446 4.77561 24.3648L4.79054 24.3701C4.84557 24.39 4.90045 24.4091 4.95658 24.427L4.96792 24.4307C4.99515 24.4391 5.02308 24.4463 5.05059 24.4543C5.08059 24.463 5.11045 24.4723 5.14073 24.4804L5.14916 24.4827C5.20847 24.4981 5.26819 24.5121 5.32847 24.5249L5.33358 24.5264C5.33386 24.5265 5.33441 24.5265 5.33455 24.5267C5.39538 24.5394 5.4569 24.551 5.51884 24.5606L5.52174 24.5615C5.71183 24.5919 5.90648 24.6089 6.10459 24.6113C6.15174 24.6121 6.19888 24.6126 6.24616 24.6121C6.30962 24.6106 6.37473 24.6064 6.44012 24.6011C6.52929 24.5939 6.61957 24.5834 6.71081 24.5698C6.79113 24.558 6.87104 24.544 6.95095 24.5274C7.07537 24.502 7.19828 24.4717 7.31675 24.4375C7.67219 24.335 7.98615 24.1982 8.17389 24.0591C8.17389 24.0591 8.05044 23.5159 7.94592 22.964C7.93459 22.9033 7.92339 22.8427 7.91274 22.7828Z" fill="#856249"/>
<path id="Vector_7" d="M24.1045 9.73276L24.105 9.73303L24.1035 9.73193L24.1045 9.73276Z" fill="#856249"/>
<path id="Vector_8" d="M16.787 2.37865L16.7418 1.82844L17.0191 1.21877L17.1288 1.19433C16.9471 1.11056 16.7313 1.05083 16.4815 1.01994C15.9812 0.957323 15.3459 1.01486 14.6222 1.20064C13.8985 1.38519 13.0869 1.69552 12.2263 2.12119C10.505 2.97198 8.58876 4.28319 6.74481 5.95402C6.1014 6.53678 5.5014 7.13217 4.94979 7.72934C4.41394 8.30867 3.92399 8.88992 3.48436 9.46306C2.59155 10.6269 1.90722 11.7589 1.47022 12.7687C1.17838 13.4416 0.997828 14.0598 0.931883 14.5888C0.88322 14.9734 0.895939 15.3099 0.960777 15.5878C0.981791 15.6777 1.00958 15.7594 1.04096 15.8376C1.10621 16.0018 1.19193 16.1434 1.30266 16.2646L2.41833 17.4255L2.53791 17.5497L2.54579 17.5413C2.5798 17.5022 2.61464 17.4632 2.65003 17.425L2.65943 17.4149C2.67229 17.4011 2.6857 17.3882 2.69856 17.3751C2.73201 17.3403 2.76588 17.3056 2.80045 17.2717C2.82187 17.2507 2.84358 17.2305 2.86542 17.21C2.88671 17.1901 2.90731 17.1695 2.92888 17.1499C2.93869 17.1411 2.94865 17.133 2.9586 17.1242C2.98127 17.1037 3.00478 17.0837 3.02828 17.0635C3.06091 17.0355 3.09367 17.0077 3.1274 16.9804C3.14703 16.9645 3.1668 16.9487 3.18671 16.9329L3.19542 16.9262C3.23081 16.8986 3.26676 16.8715 3.30256 16.8449C3.32524 16.828 3.34805 16.8115 3.371 16.795C3.40819 16.7688 3.4462 16.7427 3.48436 16.7172C3.50731 16.7019 3.52998 16.6867 3.55321 16.6717C3.59233 16.6465 3.63229 16.6219 3.67224 16.5977C3.6956 16.5837 3.71814 16.5697 3.74136 16.5564C3.78325 16.532 3.82569 16.5089 3.868 16.4858C3.89067 16.4737 3.91293 16.4611 3.9356 16.4493L3.96104 16.436L3.96256 16.4314C4.22966 15.6969 4.62975 14.8996 5.14845 14.0688C5.78564 13.0485 6.59978 11.9782 7.56641 10.9124C8.17429 10.2419 8.84176 9.57319 9.56244 8.92012C10.4948 8.07606 11.4452 7.3229 12.3827 6.67038C13.0142 6.2307 13.6391 5.83922 14.2491 5.4958C14.3068 5.46326 14.3649 5.42948 14.4224 5.39804C14.585 5.30865 14.7459 5.22379 14.906 5.14195C15.2544 4.96303 15.5967 4.80072 15.9304 4.65737L15.7669 4.46225L15.7398 4.43011L14.385 2.81188L14.3955 1.82597L14.3827 1.81169L15.1969 1.57056L16.787 2.37865Z" fill="#3478AD"/>
<path id="Vector_9" d="M30.1633 25.4572L30.1637 25.4571C30.1637 25.4571 30.1919 25.2479 30.0806 25.0609L30.0781 25.0558C30.0716 25.0446 30.0647 25.0346 30.0576 25.0245L30.0503 25.0137C30.0381 24.9973 30.0233 24.9817 30.0081 24.9659C29.9809 24.9375 29.9491 24.9108 29.9112 24.8871C29.8916 24.8742 29.8702 24.8624 29.8472 24.8511C29.784 24.8212 29.7084 24.7984 29.6186 24.7853C29.5529 24.7759 29.4778 24.7731 29.3961 24.7756C29.3631 24.7767 29.3305 24.7774 29.2948 24.7807L29.2786 24.7816C29.2786 24.7816 29.2811 24.7903 29.2846 24.8032C29.2883 24.8168 29.2934 24.8364 29.3005 24.8624C29.3029 24.8725 29.3056 24.8831 29.3086 24.8948C29.3202 24.941 29.3342 24.9998 29.3484 25.0663C29.3483 25.0668 29.3443 25.0797 29.3338 25.104L29.3282 25.1169C29.2873 25.2114 29.176 25.4296 28.9281 25.7134C28.886 25.7616 28.8393 25.8122 28.7891 25.8641C28.0976 26.5737 26.601 27.5842 23.4524 28.1495C22.384 28.2992 21.399 28.3074 20.5576 28.2035C19.3135 28.0498 18.3813 27.655 17.9476 27.1242C17.91 27.0786 17.8756 27.0316 17.8429 26.9843C17.8187 26.9493 17.7953 26.9138 17.7737 26.878C17.766 26.8648 17.7589 26.8513 17.7513 26.8382C17.565 26.5109 17.4838 26.1542 17.4884 25.8087C17.4943 25.3892 17.6261 24.9879 17.8491 24.6793C18.03 24.4291 18.2706 24.2401 18.5519 24.1527C18.6899 24.11 18.8374 24.0908 18.9924 24.1012C19.0236 24.1034 19.065 24.1078 19.1165 24.1141C19.2199 24.127 19.3644 24.1472 19.5416 24.1699C19.5616 24.1724 19.5799 24.1747 19.6007 24.1773C20.1916 24.2502 21.1325 24.3384 22.2704 24.2694C24.3405 24.1442 27.0653 23.4972 29.5395 21.2812L29.5463 21.2726V21.2687C29.5546 21.0831 29.5295 20.7479 29.2934 20.4871C29.2522 20.4416 29.2041 20.3984 29.1493 20.3585C29.118 20.3357 29.0855 20.3139 29.0493 20.2935C29.0129 20.2735 28.9797 20.2533 28.9476 20.233C28.9038 20.2057 28.8625 20.1785 28.8258 20.1514L28.8205 20.1436C28.8037 20.1176 28.7859 20.0924 28.7689 20.0664C28.127 19.101 27.2429 18.5406 26.8904 18.2838C26.7241 18.1624 26.6182 18.1071 26.6182 18.1071C25.8548 17.6452 25.7428 17.4919 25.8141 16.2374C25.8397 15.7857 25.8889 15.1919 25.9396 14.387C25.9464 14.2822 25.9496 14.1828 25.9514 14.085C25.9518 14.0617 25.9524 14.0389 25.9524 14.016C25.953 13.9236 25.9521 13.8334 25.9485 13.7467L25.9477 13.7219L25.9456 13.6952C25.9417 13.6271 25.9369 13.5609 25.9312 13.4965C25.9286 13.4682 25.9258 13.4398 25.9229 13.4119C25.9153 13.3431 25.9066 13.2763 25.8958 13.2117C25.8904 13.1788 25.8839 13.1471 25.8778 13.1149C25.8711 13.0788 25.8637 13.0435 25.8561 13.0089C25.8487 12.9749 25.8411 12.9405 25.8326 12.9077L25.8324 12.9076L25.8326 12.9072V12.9076C25.8224 12.8671 25.8105 12.8288 25.7993 12.7905C25.7952 12.7765 25.7918 12.7619 25.7873 12.7483C25.783 12.7354 25.7784 12.7236 25.7743 12.7107L25.77 12.6979L25.757 12.6611L25.7566 12.6586C25.746 12.629 25.7349 12.6001 25.7241 12.572L25.7207 12.5627L25.7096 12.536L25.6963 12.5032L25.6933 12.4969V12.4961C25.6703 12.4429 25.6464 12.3913 25.621 12.343L25.6008 12.3073C25.5719 12.2599 25.5422 12.2154 25.5119 12.1724L25.4997 12.1544L25.4847 12.1345C25.463 12.105 25.4411 12.076 25.4193 12.049L25.3894 12.0118C25.3601 11.9773 25.3309 11.9439 25.3015 11.9127L25.3013 11.9125C25.2653 11.8747 25.2292 11.839 25.1924 11.8061C25.1504 11.7801 25.109 11.7568 25.0674 11.7362C25.0539 11.7292 25.0402 11.7239 25.0264 11.7179C24.9991 11.7053 24.9713 11.6929 24.9438 11.6827C24.9278 11.6767 24.9122 11.6719 24.8963 11.6665C24.8717 11.6587 24.8465 11.6508 24.8218 11.6443C24.8056 11.6403 24.7889 11.6369 24.7725 11.6336C24.7484 11.6285 24.7246 11.6243 24.7005 11.6208C24.6841 11.6186 24.6679 11.6167 24.6513 11.6153C24.6275 11.613 24.6036 11.6119 24.5798 11.6109C24.5637 11.6105 24.5476 11.6101 24.532 11.6105C24.5074 11.6109 24.4832 11.6122 24.4589 11.6141C24.4439 11.6152 24.4289 11.6164 24.4141 11.6181L24.3813 11.6229C24.3665 11.6255 24.3516 11.6271 24.3362 11.63C24.3232 11.6322 24.3101 11.6344 24.2971 11.637C24.2668 11.6433 24.2368 11.651 24.207 11.6595L24.1807 11.6663C24.1019 11.6896 24.0232 11.7195 23.9455 11.7547L23.9196 11.7669C23.8893 11.7808 23.8589 11.7953 23.8286 11.8107L23.7937 11.8294C23.7662 11.8435 23.7387 11.8586 23.7115 11.8739L23.6742 11.8956C23.6472 11.9111 23.6201 11.927 23.5932 11.9436L23.5564 11.9662C23.5283 11.9836 23.5 12.0016 23.4716 12.0199L23.4404 12.0402C23.4085 12.0609 23.3764 12.0821 23.3444 12.1036L23.3254 12.1164C23.2894 12.1407 23.2529 12.1657 23.2164 12.1907L23.2152 12.1918L23.2095 12.1952H23.2099C23.1419 12.2416 23.074 12.2891 23.0053 12.3365C22.9478 12.3763 22.8892 12.4161 22.8303 12.4557L22.802 12.475C22.7426 12.5146 22.6826 12.5532 22.6225 12.5916L22.5922 12.6104C22.5317 12.6478 22.471 12.6842 22.4097 12.7188L22.3775 12.7365C22.316 12.771 22.2534 12.8031 22.1902 12.8338L22.1587 12.8485C22.0948 12.8787 22.0296 12.9069 21.9636 12.9316L21.9364 12.9419C21.8684 12.9666 21.7992 12.9893 21.729 13.0077L21.7106 13.0119C21.6364 13.0309 21.5621 13.0461 21.4858 13.0564C21.3577 13.0736 21.2297 13.0792 21.1009 13.0798C20.8914 13.0807 20.6811 13.0638 20.4698 13.0327C20.3995 13.0221 20.3284 13.0097 20.2576 12.9968C20.2325 12.9922 20.2075 12.9883 20.1826 12.9835C19.9984 12.948 19.8132 12.9055 19.6267 12.8609C19.5483 12.8424 19.47 12.8235 19.3914 12.8046C19.265 12.774 19.1374 12.7445 19.0097 12.7155C18.9844 12.7097 18.9599 12.7034 18.9343 12.6979L18.9356 12.6978C18.9176 12.6939 18.8995 12.6902 18.8814 12.6865C18.853 12.6803 18.8247 12.6743 18.7966 12.668C18.7695 12.6626 18.7423 12.6573 18.7153 12.6519L18.7012 12.649L18.6918 12.6472C18.667 12.6423 18.6422 12.6374 18.6172 12.6325C18.5593 12.6217 18.5009 12.6114 18.4426 12.6018C18.4253 12.5988 18.4079 12.5966 18.3907 12.594C18.3473 12.5872 18.3041 12.5806 18.2609 12.5749C18.2391 12.5717 18.2168 12.5697 18.1952 12.567L18.1904 12.5665C18.1527 12.5617 18.1148 12.5573 18.077 12.5536C18.0519 12.5511 18.0264 12.5491 18.0017 12.5467C17.9904 12.5459 17.979 12.5452 17.9674 12.5443C17.9417 12.5423 17.9156 12.5403 17.8896 12.5388C17.8648 12.5371 17.84 12.5357 17.8148 12.5346C17.7748 12.533 17.7357 12.532 17.6963 12.5313C17.6844 12.5312 17.6725 12.5311 17.6606 12.5308C17.6499 12.5307 17.6385 12.5302 17.6275 12.5302C17.5785 12.5304 17.5289 12.5313 17.4791 12.5335C17.4663 12.534 17.4527 12.5338 17.4396 12.5348C17.3765 12.5374 17.3132 12.5423 17.2496 12.5489C17.2332 12.5506 17.2167 12.553 17.2 12.5547C17.1589 12.5595 17.1177 12.565 17.0764 12.5713L17.058 12.5739C17.0355 12.5772 17.0125 12.5815 16.9901 12.5854C16.9478 12.5931 16.9059 12.6012 16.8635 12.6103C16.839 12.6158 16.8147 12.621 16.7904 12.6272C16.7486 12.6371 16.7065 12.6482 16.6643 12.66C16.6404 12.6666 16.6165 12.6732 16.5923 12.6806C16.5468 12.6943 16.5014 12.7097 16.4558 12.7258C16.4351 12.7329 16.4145 12.7394 16.3937 12.7475C16.327 12.7718 16.2609 12.7984 16.1937 12.8281C15.669 13.1281 15.2184 13.5376 14.86 14.0153C14.7407 14.1743 14.6315 14.3411 14.5333 14.5139C14.4294 14.6968 14.3392 14.8867 14.2608 15.0813C14.2379 15.1381 14.2161 15.195 14.1953 15.2526C14.161 15.3497 14.1283 15.4476 14.1005 15.5466C14.0976 15.5572 14.0952 15.568 14.0923 15.5787C14.0616 15.6904 14.0351 15.803 14.0132 15.9167C13.99 16.0353 13.9723 16.1546 13.959 16.2745C13.9519 16.3393 13.9452 16.404 13.9409 16.4689C13.9296 16.6435 13.9308 16.8188 13.9415 16.9936C13.9422 17.0094 13.9436 17.0255 13.9447 17.0411C13.9477 17.0859 13.9492 17.1302 13.9541 17.175C13.9671 17.2994 13.9849 17.4238 14.0101 17.5473C14.0189 17.5929 14.0314 17.6358 14.0424 17.6798C14.0528 17.7218 14.0622 17.7652 14.0735 17.8062V17.806C14.161 18.1212 14.2877 18.4052 14.4377 18.6632C15.0093 19.6442 15.9493 20.2308 16.6303 20.5456C16.8952 20.6617 17.1717 20.7653 17.4589 20.8564C17.4589 20.8564 17.4454 20.8648 17.4244 20.8789C17.3736 20.8915 17.3142 20.9072 17.2484 20.9257C17.1487 20.9536 17.0337 20.9883 16.9068 21.0308C16.7642 21.0784 16.6071 21.1358 16.4413 21.2039C15.9992 21.3859 15.4975 21.6446 15.0529 22.0019C14.9972 22.0465 14.9425 22.0926 14.8889 22.1403C14.7977 22.2218 14.7107 22.3087 14.6271 22.3998C14.6175 22.4101 14.6073 22.42 14.5982 22.4304C14.5854 22.4444 14.573 22.459 14.5606 22.4731C14.529 22.5098 14.4978 22.5473 14.4674 22.5854C14.4552 22.6008 14.4432 22.6161 14.431 22.6314C14.3911 22.6839 14.3521 22.737 14.3152 22.7922C14.279 22.8463 14.2441 22.9022 14.2112 22.9589C13.9477 23.4158 13.7983 23.9627 13.8442 24.6149L13.8455 24.6082L13.8464 24.6034C13.8475 24.5975 13.8491 24.5892 13.8512 24.5791L13.8526 24.5737C13.8545 24.5638 13.8574 24.5522 13.8605 24.5393L13.8623 24.5312C13.8659 24.5163 13.8702 24.4993 13.875 24.4808L13.8783 24.4687C13.8837 24.4489 13.8896 24.4275 13.8963 24.4043L13.8966 24.4041C13.9031 24.3814 13.9112 24.3568 13.9192 24.3314L13.9245 24.3159C13.9331 24.29 13.9425 24.263 13.9528 24.2351L13.9582 24.2218C13.9678 24.1954 13.9784 24.1684 13.99 24.1405L13.9954 24.1276C14.0078 24.0975 14.0217 24.0665 14.0359 24.0349L14.0452 24.0153C14.0605 23.983 14.0761 23.9503 14.0937 23.9172V23.9171C14.0944 23.9157 14.0952 23.9145 14.0959 23.9133C14.1219 23.8638 14.1512 23.8134 14.1825 23.7628C14.1942 23.7435 14.2055 23.7244 14.2185 23.7052L14.2285 23.6892L14.2288 23.6887C14.2555 23.6491 14.2835 23.6094 14.3138 23.5701C14.3384 23.538 14.3645 23.5061 14.3915 23.4744C14.3999 23.4645 14.409 23.4546 14.418 23.4447C14.4396 23.4207 14.462 23.3967 14.4852 23.3731C14.4948 23.3636 14.5042 23.3538 14.5137 23.3445C14.5455 23.3136 14.5781 23.2834 14.6127 23.2541L14.6156 23.2514V23.2515V23.2514C14.6156 23.2514 14.0175 24.5954 14.2776 25.6611C14.2776 25.6611 14.2773 25.6578 14.2773 25.6522V25.6456C14.277 25.6397 14.277 25.6328 14.277 25.6238C14.277 25.622 14.277 25.6199 14.2769 25.618C14.277 25.607 14.277 25.5944 14.2776 25.5793C14.2776 25.5774 14.2776 25.5756 14.2778 25.5734C14.2778 25.5576 14.279 25.54 14.2798 25.5204C14.2798 25.5186 14.2801 25.5165 14.2801 25.5147C14.2812 25.4946 14.2824 25.4724 14.2842 25.449C14.2842 25.4468 14.2843 25.445 14.2846 25.4431C14.2866 25.419 14.2886 25.3938 14.2917 25.367C14.2919 25.3649 14.2922 25.3627 14.2925 25.3604C14.2951 25.3336 14.299 25.3059 14.303 25.2766C14.3033 25.274 14.3038 25.2714 14.3041 25.2688C14.3087 25.2379 14.3138 25.2058 14.32 25.1727L14.3214 25.1649L14.3246 25.1482V25.1476C14.3319 25.1103 14.3406 25.0723 14.3506 25.0337C14.3513 25.0313 14.3518 25.0286 14.3524 25.026C14.3626 24.9884 14.3735 24.9504 14.3857 24.9121C14.3896 24.9003 14.3931 24.8887 14.397 24.8769L14.4053 24.8525V24.8521C14.4166 24.8206 14.4291 24.7892 14.4425 24.7579L14.4446 24.7528L14.4447 24.7525C14.4634 24.7087 14.4852 24.6663 14.5084 24.6241C14.5144 24.613 14.521 24.6019 14.5275 24.591C14.5523 24.5494 14.5783 24.5086 14.6078 24.4701L14.6091 24.4681V24.4684V24.4681H14.6092C14.6092 24.4681 14.5749 24.7991 14.5838 25.1929C14.5854 25.2548 14.5884 25.3185 14.5924 25.3826C14.5949 25.4253 14.5976 25.4683 14.6016 25.5112C14.628 25.088 14.7059 24.6904 14.8192 24.3197C14.7059 24.6907 14.628 25.0881 14.6018 25.5116V25.5117C14.5846 25.7818 14.5884 26.0621 14.6164 26.3525C14.664 26.8367 14.7798 27.349 14.9839 27.8882C14.9839 27.8882 14.7968 27.2681 15.0663 26.6478C15.0906 26.7043 15.1166 26.7611 15.1438 26.8184C15.166 27.0024 15.2033 27.2637 15.2578 27.5514C15.3099 28.0307 15.5407 29.4688 16.5244 30.4803C16.5244 30.4803 16.1526 30.0012 16.2104 29.3774C16.2493 29.4593 16.2877 29.5332 16.3243 29.5969C16.4926 29.9097 16.8273 30.4923 17.1921 30.8962C17.1921 30.8962 16.8961 30.3267 16.9651 30.204C16.9651 30.204 17.9304 31.3961 18.2374 31.5124L17.8337 30.8476L17.8246 30.8281C19.2273 31.8383 21.1517 32.2133 23.5319 31.555C23.941 31.4416 24.3635 31.298 24.7992 31.1214C25.0666 31.0066 25.3312 30.8804 25.5932 30.7405L25.6312 30.7195C25.8145 30.6199 25.9963 30.5131 26.1767 30.4003L26.1807 30.3979C26.3162 30.3132 26.4505 30.2244 26.5833 30.1324C26.8058 29.9767 27.0261 29.8128 27.2408 29.6346L27.2414 29.6343L27.2422 29.6336C27.2545 29.6227 27.2672 29.6122 27.2802 29.6013C27.493 29.4166 27.6922 29.2267 27.8772 29.0334C28.1216 28.778 28.3411 28.5171 28.5398 28.2554L28.5545 28.2366C28.603 28.172 28.6505 28.1078 28.6967 28.0442L28.7097 28.0255C28.7248 28.0037 28.7381 27.9829 28.753 27.9614C28.8171 27.8697 28.8806 27.7778 28.94 27.6866C28.9543 27.6648 28.9689 27.6425 28.9832 27.6206C29.014 27.5722 29.0437 27.5239 29.0734 27.4763C29.0958 27.4388 29.1188 27.4014 29.1405 27.3643C29.1647 27.324 29.189 27.2835 29.2125 27.2434C29.2541 27.1705 29.2948 27.0981 29.3338 27.0261C29.3491 26.9976 29.3636 26.9698 29.3786 26.9417C29.4083 26.8857 29.4375 26.8303 29.465 26.7755C29.4778 26.75 29.4908 26.7245 29.5033 26.6991L29.5146 26.675C29.5492 26.606 29.5821 26.5373 29.614 26.4699L29.6199 26.4555C29.7398 26.3444 29.833 26.2388 29.9078 26.1377C29.9186 26.1234 29.9299 26.1089 29.9398 26.0946C30.1059 25.8566 30.1602 25.6461 30.1633 25.4572Z" fill="#FCE9C9"/>
<path id="Vector_10" d="M7.80204 21.9463C7.76057 21.9592 7.71384 22.0138 7.66684 22.0882C7.64928 22.116 7.632 22.1465 7.61472 22.1787C7.48891 22.4135 7.37555 22.7392 7.37555 22.7392C7.38439 22.6304 7.39642 22.5176 7.40983 22.4041C7.41135 22.391 7.41329 22.378 7.41495 22.3647C7.42891 22.2492 7.44509 22.1328 7.46237 22.017C7.4643 22.003 7.46651 21.9892 7.46859 21.9754C7.48877 21.845 7.51006 21.7154 7.53218 21.5903C7.53509 21.5739 7.53771 21.5581 7.54075 21.5421L7.54241 21.5338C7.54504 21.5194 7.54753 21.5047 7.55015 21.4903C7.55389 21.4688 7.55776 21.4472 7.56177 21.4259C7.57988 21.3268 7.59854 21.2309 7.61665 21.14C7.6331 21.0579 7.649 20.9802 7.66435 20.907L7.66919 20.8834C7.6714 20.8719 7.67389 20.8614 7.67624 20.8504C7.67859 20.8397 7.6808 20.8286 7.68301 20.8175L7.68384 20.8136C7.68785 20.7954 7.692 20.7766 7.69573 20.7593L7.69684 20.7544C7.70029 20.7373 7.70361 20.7227 7.70707 20.7067C7.71273 20.6815 7.71813 20.6557 7.72338 20.6322L7.7249 20.6256C7.72919 20.6066 7.7332 20.5872 7.7372 20.5698C7.74301 20.5446 7.7484 20.5216 7.75296 20.4997L7.75324 20.499L7.75352 20.4985C7.75628 20.486 7.75891 20.4752 7.76154 20.4636L7.76209 20.4616C7.76458 20.4511 7.76679 20.4401 7.76914 20.4309C7.77453 20.4079 7.77937 20.387 7.78324 20.3709L7.7867 20.3567L7.78808 20.3514L7.79209 20.3345L7.79485 20.3229L7.79541 20.3212L7.79347 20.3227L7.76803 20.3457C7.74564 20.3654 7.72269 20.3848 7.70167 20.4068L7.67859 20.432C7.65384 20.4595 7.62979 20.4883 7.60739 20.519L7.5955 20.5338C7.56771 20.5722 7.54186 20.6126 7.51725 20.6537V20.6538L7.51407 20.6592L7.51393 20.6594L7.50398 20.6777C7.49831 20.6877 7.49292 20.698 7.48753 20.7082C7.47329 20.7339 7.45863 20.7588 7.44592 20.7848L7.44522 20.7858L7.44481 20.7866L7.44412 20.7888L7.43914 20.7985L7.43458 20.8083C7.41467 20.8493 7.39656 20.8901 7.37956 20.9303C7.33145 21.0435 7.29426 21.1513 7.26633 21.2414C7.25665 21.2734 7.24753 21.3037 7.2402 21.3305C7.22403 21.3886 7.21269 21.434 7.20758 21.4563L7.2073 21.4582L7.2037 21.4731V21.4729V21.4731L7.20509 21.4557C7.20702 21.4211 7.21103 21.3868 7.2138 21.3524C7.21919 21.2802 7.22375 21.2077 7.23177 21.136C7.23813 21.0756 7.24753 21.0166 7.2561 20.9566C7.25887 20.9379 7.26177 20.9191 7.26453 20.9006C7.26827 20.873 7.27214 20.8454 7.2767 20.8179C7.28071 20.7922 7.28638 20.7669 7.29122 20.7418L7.29149 20.7399V20.7398L7.29688 20.7116L7.29854 20.7039C7.30421 20.6732 7.31016 20.6419 7.3161 20.6111C7.31817 20.5991 7.32039 20.5872 7.32287 20.5753L7.32716 20.554L7.32799 20.55C7.33006 20.54 7.33228 20.5297 7.33449 20.5198C7.33698 20.5071 7.34043 20.4949 7.34306 20.483C7.35329 20.4378 7.36435 20.3935 7.37499 20.3488L7.37679 20.3414C7.38467 20.3082 7.392 20.2748 7.40057 20.2421L7.40085 20.2406L7.40168 20.2384L7.4043 20.2288C7.42186 20.1615 7.44135 20.0958 7.46085 20.0294L7.47108 19.9929C7.47481 19.9807 7.47799 19.9678 7.48186 19.9554C7.51407 19.8479 7.5485 19.7418 7.58513 19.638L7.58983 19.6249C7.62121 19.5368 7.65301 19.45 7.68633 19.3644L7.69006 19.3547C7.70513 19.3171 7.72061 19.2809 7.73541 19.2437L7.7379 19.2382C7.76057 19.1828 7.78296 19.127 7.80619 19.0733L7.80633 19.0728V19.0725L7.80674 19.0718L7.80937 19.0651C7.81559 19.0516 7.82997 19.0189 7.85237 18.9709L7.85278 18.9701L7.85582 18.9636V18.9635C7.86453 18.9445 7.87283 18.9261 7.88126 18.9069C7.89495 18.8763 7.90877 18.8461 7.92232 18.816L7.93462 18.7896C7.91527 18.7792 7.89495 18.7699 7.87504 18.76L7.8637 18.7543L7.84255 18.7438C7.71329 18.6823 7.57725 18.633 7.43624 18.5967L7.41384 18.5912C7.32343 18.5687 7.23108 18.5515 7.13679 18.5407C7.08218 18.5345 7.02744 18.5296 6.97186 18.5274C6.92569 18.5254 6.87951 18.5249 6.83278 18.5259C6.76255 18.5274 6.69343 18.5333 6.62541 18.5407C6.60371 18.5434 6.58269 18.5471 6.56168 18.5499C6.52795 18.555 6.49463 18.5614 6.46117 18.5675C6.44818 18.5702 6.43449 18.5719 6.4215 18.5747C6.39799 18.5797 6.37477 18.5846 6.35154 18.5905C6.30592 18.6017 6.2614 18.6141 6.21717 18.628C6.19657 18.6345 6.17611 18.6397 6.15606 18.6467C6.0962 18.6676 6.0373 18.6904 5.97979 18.7158C5.95684 18.7259 5.93555 18.7376 5.91316 18.748C5.88689 18.7609 5.8609 18.7747 5.83505 18.7878L5.80837 18.8014C5.77989 18.8171 5.7521 18.8338 5.72459 18.8505C5.69901 18.866 5.67316 18.8825 5.64841 18.8993C5.618 18.9193 5.58827 18.9394 5.55938 18.9606C5.54155 18.9742 5.52454 18.9881 5.50671 19.0018C5.4597 19.0387 5.41505 19.0784 5.37109 19.1189C5.34841 19.1399 5.32657 19.1613 5.30487 19.183C5.26643 19.2209 5.22883 19.2595 5.19371 19.3L5.17588 19.3203C5.15735 19.3423 5.14007 19.3655 5.12279 19.3885L5.12003 19.3918L5.11782 19.3948C5.10606 19.4102 5.09335 19.425 5.08187 19.4406L5.07731 19.4468L5.07275 19.453L5.07247 19.4535L5.07219 19.454C5.00127 19.5525 4.93906 19.6575 4.88514 19.7666C4.87726 19.7823 4.87021 19.7983 4.86275 19.8143C4.83786 19.8677 4.81491 19.9223 4.79418 19.9781C4.78602 20.0002 4.7769 20.0216 4.76929 20.044L4.76902 20.0443V20.0444L4.76874 20.0448C4.7498 20.1015 4.73307 20.1589 4.71883 20.2182L4.71344 20.2402L4.70819 20.2681L4.70749 20.2706C4.69768 20.3134 4.68828 20.3562 4.6815 20.3998C4.67805 20.4212 4.67584 20.443 4.67307 20.4647L4.6721 20.4709C4.66934 20.494 4.66699 20.5173 4.66464 20.5407C4.66256 20.5581 4.65994 20.5758 4.65855 20.5937C4.65344 20.6623 4.65123 20.7315 4.65289 20.8017C4.65427 20.8559 4.65911 20.9092 4.66422 20.9626L4.66464 20.9656L4.66644 20.9905C4.66934 21.02 4.67445 21.0491 4.67888 21.0784C4.69478 21.1848 4.71662 21.2889 4.74745 21.3895C4.7704 21.4663 4.79736 21.541 4.82846 21.6139C4.88542 21.7479 4.9562 21.8741 5.03708 21.9927C5.20726 22.2431 5.42597 22.4575 5.68145 22.6211C5.82634 22.7138 5.98297 22.7892 6.14832 22.8468C6.30703 22.9026 6.47265 22.9431 6.64532 22.9619C6.68417 22.9659 6.72343 22.9688 6.76283 22.9715C6.82172 22.9754 6.88048 22.9778 6.94048 22.9766C6.99578 22.9754 7.04956 22.9686 7.10389 22.9634C7.13486 22.9605 7.16679 22.9603 7.19748 22.956C7.27559 22.9451 7.35218 22.9294 7.42753 22.9107L7.44453 22.907C7.47592 22.8989 7.50509 22.8875 7.5355 22.8781C7.63034 22.8494 7.72214 22.8148 7.81131 22.7741L7.83066 22.7655C7.85554 22.755 7.88126 22.7448 7.90531 22.7326L7.90822 22.7315C7.86467 22.4932 7.83163 22.2488 7.80799 21.9991C7.80647 21.9812 7.80398 21.964 7.80204 21.9463Z" fill="#FCE9C9"/>
<path id="Vector_11" d="M17.1348 2.55518L17.1761 2.57605L17.1754 2.57055L17.1348 2.55518Z" fill="#4D94C3"/>
<path id="Vector_12" d="M29.3072 24.8945C29.3042 24.8828 29.3016 24.8722 29.2991 24.8621C29.292 24.8361 29.2869 24.8165 29.2832 24.8029C29.2154 24.5844 29.1296 24.4137 29.0531 24.2921C28.9554 24.135 28.8744 24.0574 28.8744 24.0574C28.8907 24.0021 28.9035 23.9481 28.9152 23.895C28.9299 23.8253 28.9416 23.7572 28.9494 23.6912C29.0083 23.1932 28.8741 22.8057 28.7667 22.5869C28.7495 22.5519 28.7334 22.5218 28.7186 22.4956C28.6411 22.5503 28.5628 22.6042 28.4845 22.6568C26.9981 23.6565 25.325 24.2978 23.5135 24.5736C22.2651 24.7636 20.9518 24.7813 19.5863 24.6163L19.6101 24.6231C19.6101 24.6231 18.7871 24.735 18.5638 25.5192L18.5778 25.5272L18.5098 26.0531C18.5338 26.7654 18.8616 27.2111 19.2347 27.4456C19.6225 27.5925 20.0908 27.7046 20.6109 27.7687C21.5158 27.8805 22.5546 27.851 23.615 27.6837L23.6204 27.6829L23.6258 27.6822C25.036 27.4944 27.0267 26.7464 28.4497 25.781C28.7739 25.561 29.0687 25.3302 29.3205 25.0915L29.3299 25.0825L29.347 25.066C29.3328 24.9995 29.3188 24.9407 29.3072 24.8945Z" fill="white"/>
<path id="Vector_13" d="M26.617 18.1071C25.8536 17.6452 25.7416 17.492 25.813 16.2375C25.8385 15.7857 25.8878 15.192 25.9385 14.387C25.9453 14.2823 25.9484 14.1828 25.9502 14.0851C25.9507 14.0617 25.9512 14.0389 25.9512 14.016C25.9519 13.9236 25.9509 13.8334 25.9473 13.7467L25.9465 13.7219L25.9444 13.6952C25.9406 13.6271 25.9357 13.5609 25.9301 13.4965C25.9274 13.4683 25.9247 13.4398 25.9218 13.412C25.9142 13.3432 25.9054 13.2763 25.8947 13.2118C25.8893 13.1788 25.8828 13.1471 25.8767 13.115C25.8699 13.0788 25.8626 13.0435 25.855 13.0089C25.8475 12.9749 25.8399 12.9406 25.8315 12.9077L25.8312 12.9076L25.8315 12.9072C25.7227 12.7465 25.5934 12.6029 25.4419 12.4808L25.4122 12.4589L25.4062 12.4543L25.3838 12.4377L25.3762 12.4321C25.3544 12.4153 25.3314 12.399 25.3088 12.384C25.2843 12.368 25.26 12.3522 25.2351 12.3373C25.0093 12.201 24.7577 12.1153 24.4884 12.0756C24.3396 12.0539 24.1855 12.0462 24.0275 12.0523C23.9541 12.0549 23.8798 12.0613 23.805 12.0701C23.6104 12.0928 23.411 12.1341 23.2088 12.1952C23.1408 12.2416 23.0729 12.2891 23.0042 12.3365C22.9467 12.3763 22.888 12.4162 22.8291 12.4557L22.8008 12.4751C22.7415 12.5146 22.6815 12.5532 22.6214 12.5917L22.5911 12.6105C22.5305 12.6478 22.4698 12.6842 22.4086 12.7188L22.3764 12.7365C22.3149 12.771 22.2522 12.8031 22.1891 12.8339L22.1575 12.8486C22.0937 12.8788 22.0284 12.9069 21.9625 12.9316L21.9352 12.9419C21.8672 12.9667 21.7981 12.9893 21.7279 13.0077L21.7095 13.012C21.6352 13.0309 21.561 13.0462 21.4847 13.0565C21.3565 13.0736 21.2285 13.0793 21.0998 13.0798C20.8902 13.0808 20.6799 13.0639 20.4687 13.0327C20.3983 13.0221 20.3273 13.0098 20.2565 12.9969C20.2313 12.9922 20.2063 12.9883 20.1814 12.9835C19.9973 12.948 19.812 12.9055 19.6255 12.8609C19.5471 12.8424 19.4689 12.8236 19.3902 12.8046C19.2639 12.774 19.1363 12.7445 19.0085 12.7155C18.9832 12.7097 18.9588 12.7034 18.9332 12.6979C18.826 12.7037 18.7185 12.7141 18.6105 12.7276L18.587 12.7305C18.2737 12.7713 17.9587 12.8454 17.6473 12.9524C17.63 12.9583 17.6128 12.9634 17.5958 12.9695C17.5471 12.9867 17.4988 13.0055 17.4505 13.0245C17.3856 13.05 17.3209 13.0765 17.2566 13.1048C16.8057 13.3025 16.3677 13.5715 15.9606 13.9134C15.7956 14.052 15.6413 14.1988 15.4969 14.351C15.2753 14.5852 15.0792 14.8345 14.9075 15.0938C14.898 15.1083 14.8886 15.1227 14.8795 15.1373C14.7878 15.2783 14.7039 15.4221 14.628 15.5683C14.6006 15.6205 14.573 15.6728 14.5478 15.7256L14.5427 15.7359C14.4608 15.908 14.3899 16.083 14.3288 16.2596C14.3254 16.2701 14.3223 16.2807 14.3193 16.2911C14.3106 16.3168 14.3039 16.3426 14.2958 16.3682C14.2696 16.4502 14.2457 16.5327 14.2238 16.6151C14.2016 16.7006 14.1806 16.7864 14.1633 16.8723C14.1599 16.8907 14.1557 16.9092 14.1526 16.9277C14.1426 16.9802 14.1331 17.0326 14.1248 17.0851C14.0953 17.278 14.0791 17.4705 14.075 17.6618C14.0736 17.7099 14.0718 17.7583 14.0724 17.806C14.1599 18.1213 14.2865 18.4052 14.4365 18.6632C15.0082 19.6442 15.9481 20.2308 16.6291 20.5457C16.894 20.6617 17.1705 20.7654 17.4578 20.8564L17.4651 20.8688L17.4654 20.8689L17.4666 20.8684L17.4852 20.8542C17.5218 20.8265 17.5584 20.7987 17.5963 20.7713C17.6096 20.761 17.6233 20.7514 17.6368 20.7415C17.6754 20.7135 17.7151 20.6849 17.7556 20.6569C17.7691 20.6476 17.7829 20.6381 17.7969 20.6286C17.8376 20.6005 17.8793 20.5719 17.9219 20.544C17.936 20.5345 17.9502 20.5255 17.9646 20.5161C18.0076 20.4879 18.0513 20.4597 18.0961 20.4317C18.111 20.4225 18.1255 20.4133 18.1403 20.4042C18.1858 20.3765 18.2314 20.3488 18.2776 20.3209C18.2935 20.3115 18.3097 20.3021 18.3256 20.2925C18.372 20.2657 18.419 20.2384 18.4673 20.2112C18.4847 20.2018 18.502 20.1921 18.5194 20.1823C18.5667 20.1557 18.6151 20.1296 18.6643 20.1035C18.6836 20.0932 18.7031 20.0828 18.723 20.0726C18.7714 20.0471 18.8205 20.0218 18.8703 19.9968C18.8916 19.9863 18.9129 19.9755 18.9344 19.9648C18.9839 19.9403 19.0341 19.9159 19.0844 19.8918C19.1083 19.8804 19.1327 19.8693 19.1567 19.8579C19.2062 19.8347 19.2564 19.8116 19.3074 19.7887C19.3338 19.7764 19.3615 19.7648 19.3887 19.7527C19.4381 19.7308 19.4882 19.709 19.5394 19.6876C19.5693 19.6745 19.6001 19.6619 19.6304 19.6494C19.6797 19.629 19.7298 19.6086 19.7805 19.5882C19.8142 19.5749 19.8487 19.5615 19.8828 19.5481C19.9319 19.5291 19.9811 19.51 20.0313 19.4912C20.0689 19.477 20.1072 19.4628 20.1449 19.4492C20.1936 19.4315 20.2417 19.4138 20.2913 19.3964C20.3332 19.3818 20.3758 19.3672 20.4182 19.3527C20.4658 19.3363 20.5135 19.3197 20.5619 19.3042C20.6083 19.2887 20.6553 19.2739 20.7023 19.2589C20.7488 19.2439 20.795 19.2291 20.8421 19.2145C20.8937 19.1985 20.9461 19.183 20.999 19.1672C21.0431 19.1544 21.0874 19.1408 21.1324 19.128C21.1894 19.1114 21.2477 19.0955 21.3055 19.0794C21.3347 19.0716 21.3628 19.0628 21.3919 19.0554C21.618 18.4902 22.2889 17.0887 23.4381 16.9353C23.5617 16.9176 23.6733 16.9111 23.7789 16.91C23.8053 16.9097 23.8337 16.9078 23.8588 16.9084C23.8455 16.8271 23.835 16.7424 23.8297 16.6543C23.7937 16.0504 23.9806 15.5484 24.247 15.5325C24.4534 15.5159 24.6175 15.8152 24.6456 15.92C24.724 16.1036 24.779 16.3381 24.7949 16.5983C24.809 16.836 24.7869 17.0554 24.7413 17.2383C24.7645 17.2621 24.7836 17.2885 24.8044 17.3137C25.0677 17.6382 25.1122 18.0883 25.1014 18.4071C25.2037 18.3968 25.3088 18.3879 25.4138 18.379C25.4405 18.3765 25.4668 18.3741 25.494 18.3716L25.5106 18.3701C25.5258 18.3686 25.541 18.3677 25.5561 18.3665C25.686 18.3558 25.8175 18.3458 25.9509 18.3363L25.9569 18.336C26.2589 18.3151 26.5692 18.2974 26.8892 18.2838C26.7229 18.1625 26.617 18.1071 26.617 18.1071Z" fill="#EFCFA5"/>
<path id="Vector_14" d="M29.5096 26.5612C29.0068 27.0059 28.4804 27.363 27.9581 27.6495C27.6973 27.7922 27.4383 27.916 27.1832 28.0262C26.6161 28.2716 26.0721 28.4421 25.5928 28.5581C24.5351 28.8141 23.7891 28.8146 23.7891 28.8146C24.3675 29.1324 25.0997 29.1354 25.6019 29.085C25.9475 29.0508 26.1852 28.9918 26.1852 28.9918C26.1744 29.2027 26.1479 29.3967 26.11 29.5778C26.0679 29.7783 26.0104 29.9604 25.9416 30.1269L25.9362 30.1412L25.9356 30.1422C25.8495 30.3481 25.7458 30.5288 25.6303 30.6881C25.6177 30.7053 25.6055 30.7237 25.5928 30.7403L25.6308 30.7193C25.8141 30.6198 25.9959 30.5129 26.1763 30.4002L26.1803 30.3977C26.3158 30.313 26.4501 30.2243 26.5829 30.1323C26.8054 29.9766 27.0257 29.8126 27.2404 29.6344L27.241 29.6341L27.2418 29.6334C27.2541 29.6226 27.2668 29.612 27.2798 29.6012C27.4926 29.4165 27.6918 29.2266 27.8768 29.0332C28.1212 28.7778 28.3407 28.5169 28.5394 28.2552L28.5541 28.2364C28.6026 28.1719 28.6501 28.1076 28.6963 28.044L28.7093 28.0254C28.7244 28.0035 28.7377 27.9828 28.7526 27.9612C28.8167 27.8695 28.8802 27.7776 28.9396 27.6865C28.9539 27.6646 28.9685 27.6424 28.9828 27.6204C29.0136 27.5721 29.0433 27.5237 29.073 27.4761C29.0954 27.4386 29.1184 27.4013 29.1401 27.3642C29.1643 27.3238 29.1886 27.2833 29.2121 27.2432C29.2537 27.1703 29.2944 27.0979 29.3334 27.026C29.3487 26.9974 29.3632 26.9697 29.3782 26.9415C29.4079 26.8855 29.4371 26.8302 29.4646 26.7754C29.4774 26.7498 29.4904 26.7243 29.5029 26.6989L29.5142 26.6749C29.5488 26.6058 29.5817 26.5371 29.6136 26.4697C29.5788 26.5012 29.5442 26.531 29.5096 26.5612Z" fill="#EFCFA5"/>
<path id="Vector_15" d="M16.9068 21.0308C16.7642 21.0784 16.6071 21.1358 16.4413 21.2039C15.9992 21.3859 15.4975 21.6446 15.0529 22.0019C14.9972 22.0465 14.9425 22.0926 14.8889 22.1403C14.7977 22.2218 14.7107 22.3087 14.6271 22.3998C14.6175 22.4101 14.6073 22.42 14.5982 22.4304C14.5854 22.4444 14.573 22.459 14.5606 22.4731C14.529 22.5098 14.4978 22.5473 14.4674 22.5854C14.4552 22.6008 14.4432 22.6161 14.431 22.6314C14.3911 22.6839 14.3521 22.737 14.3152 22.7922C14.279 22.8463 14.2441 22.9022 14.2112 22.9589C13.9477 23.4158 13.7983 23.9627 13.8442 24.6149L13.8455 24.6082L13.8464 24.6034C13.8475 24.5975 13.8491 24.5892 13.8512 24.5791L13.8526 24.5737C13.8545 24.5638 13.8574 24.5522 13.8605 24.5393L13.8623 24.5312C13.8659 24.5163 13.8702 24.4993 13.875 24.4808L13.8783 24.4687C13.8837 24.4489 13.8896 24.4275 13.8963 24.4043L13.8966 24.4042C13.9031 24.3814 13.9112 24.3568 13.9192 24.3314L13.9245 24.3159C13.9331 24.29 13.9425 24.263 13.9528 24.2351L13.9582 24.2218C13.9678 24.1954 13.9784 24.1684 13.99 24.1405L13.9954 24.1276C14.0078 24.0975 14.0217 24.0665 14.0359 24.0349L14.0452 24.0153C14.0605 23.983 14.0761 23.9503 14.0937 23.9172V23.9171C14.0944 23.9157 14.0952 23.9145 14.0959 23.9133C14.1219 23.8638 14.1512 23.8134 14.1825 23.7628C14.1942 23.7435 14.2055 23.7245 14.2185 23.7052L14.2285 23.6892L14.2288 23.6887C14.2555 23.6491 14.2835 23.6094 14.3138 23.5701C14.3384 23.538 14.3645 23.5061 14.3915 23.4744C14.3999 23.4645 14.409 23.4546 14.418 23.4447C14.4396 23.4207 14.462 23.3967 14.4852 23.3731C14.4948 23.3636 14.5042 23.3538 14.5137 23.3445C14.5455 23.3136 14.5781 23.2834 14.6127 23.2542L14.6156 23.2514V23.2515V23.2514C14.6156 23.2514 14.0175 24.5954 14.2776 25.6611C14.2776 25.6611 14.2773 25.6578 14.2773 25.6522V25.6456C14.277 25.6397 14.277 25.6328 14.277 25.6238C14.277 25.622 14.277 25.6199 14.2769 25.618C14.277 25.607 14.277 25.5944 14.2776 25.5793C14.2776 25.5774 14.2776 25.5756 14.2778 25.5734C14.2778 25.5576 14.279 25.54 14.2798 25.5204C14.2798 25.5186 14.2801 25.5165 14.2801 25.5147C14.2812 25.4946 14.2824 25.4724 14.2842 25.449C14.2842 25.4468 14.2843 25.445 14.2846 25.4431C14.2866 25.419 14.2886 25.3938 14.2917 25.367C14.2919 25.3649 14.2922 25.3627 14.2925 25.3604C14.2951 25.3336 14.299 25.3059 14.303 25.2766C14.3033 25.274 14.3038 25.2714 14.3041 25.2688C14.3087 25.2379 14.3138 25.2058 14.32 25.1727L14.3214 25.1649L14.3246 25.1483V25.1476C14.3319 25.1104 14.3406 25.0723 14.3506 25.0337C14.3513 25.0313 14.3518 25.0287 14.3524 25.026C14.3626 24.9884 14.3735 24.9504 14.3857 24.9121C14.3896 24.9003 14.3931 24.8887 14.397 24.8769L14.4053 24.8525V24.8521C14.4166 24.8206 14.4291 24.7892 14.4425 24.7579L14.4446 24.7528L14.4447 24.7525C14.4634 24.7087 14.4852 24.6663 14.5084 24.6241C14.5144 24.613 14.521 24.6019 14.5275 24.591C14.5523 24.5494 14.5783 24.5086 14.6078 24.4701L14.6091 24.4681V24.4684V24.4681H14.6092C14.6092 24.4681 14.5749 24.7991 14.5838 25.1929C14.5854 25.2548 14.5884 25.3185 14.5924 25.3826C14.5949 25.4254 14.5976 25.4683 14.6016 25.5112C14.628 25.088 14.7059 24.6904 14.8192 24.3197C14.8509 24.2175 14.8854 24.118 14.9221 24.0198C14.9272 24.0057 14.9322 23.9915 14.9376 23.9774C14.973 23.8846 15.0104 23.7942 15.0495 23.7052C15.0572 23.6886 15.0646 23.672 15.0719 23.6554C15.1119 23.5675 15.1532 23.4813 15.1965 23.3971C15.2036 23.384 15.2102 23.3713 15.217 23.3584C15.3088 23.1827 15.4073 23.0156 15.5096 22.8576C15.5172 22.8459 15.5246 22.8344 15.532 22.8228C15.571 22.7637 15.611 22.7067 15.6509 22.6501C15.6613 22.6351 15.6714 22.6192 15.6819 22.6045C15.6917 22.5912 15.7008 22.578 15.7105 22.5648C15.7614 22.4951 15.8124 22.4271 15.864 22.3613C15.8723 22.3509 15.8804 22.3406 15.8886 22.3304C15.9422 22.2629 15.9957 22.197 16.0495 22.1341L16.0524 22.1307C16.1201 22.0512 16.1877 21.9752 16.2547 21.9029C16.3039 21.8498 16.3525 21.7989 16.4008 21.7497C16.4189 21.7313 16.4377 21.7131 16.4564 21.6944C16.5717 21.5788 16.683 21.475 16.7866 21.383C17.0977 21.1064 17.3399 20.9356 17.4244 20.8789C17.3736 20.8915 17.3142 20.9072 17.2484 20.9257C17.1487 20.9536 17.0337 20.9883 16.9068 21.0308Z" fill="#EFCFA5"/>
<path id="Vector_16" d="M24.8607 18.0545C24.8607 18.0545 24.8574 18.0202 24.8451 17.9684C24.7964 17.7719 24.6009 17.3084 23.831 17.3818C23.0262 17.4589 22.7559 18.104 22.6865 18.3238C22.6722 18.3694 22.666 18.3981 22.666 18.3981L22.6879 18.4166C22.7899 18.3305 22.9847 18.3407 23.1612 18.4521C23.242 18.503 23.3062 18.5673 23.3502 18.635V18.6352C23.4182 18.7393 23.4372 18.8515 23.3891 18.9349C23.3788 18.9527 23.366 18.9678 23.3512 18.9811C23.3512 18.9811 23.3821 18.9929 23.4344 19.008C23.6581 19.0735 24.2783 19.2028 24.6139 18.7723C24.6301 18.7515 24.6466 18.7323 24.6614 18.7092C24.5953 18.6757 24.5584 18.5795 24.5582 18.4654C24.5577 18.4105 24.5653 18.3517 24.5831 18.293C24.6381 18.1122 24.7627 18.0054 24.8607 18.0545Z" fill="#EFCFA5"/>
<path id="Vector_17" d="M20.8708 23.9271C20.3499 24.0338 19.8944 24.1133 19.541 24.1699C19.5609 24.1723 19.5793 24.1747 19.6 24.1773C20.1909 24.2502 21.1318 24.3383 22.2698 24.2694C24.3399 24.1442 27.0646 23.4972 29.5388 21.2812L29.5456 21.2725V21.2687C29.5539 21.0831 29.5289 20.7479 29.2928 20.4871C29.2516 20.4415 29.2035 20.3984 29.1487 20.3585C29.1395 20.3531 29.1309 20.3471 29.1213 20.3417C29.0564 20.3056 28.9997 20.2691 28.947 20.2329C28.9032 20.2056 28.8618 20.1784 28.8252 20.1514L28.8198 20.1436C28.6677 20.3608 28.4915 20.5674 28.2941 20.7642C28.2241 20.8337 28.1499 20.9007 28.0751 20.9677C27.3924 21.5785 26.5104 22.0871 25.5583 22.506C23.976 23.2021 22.2075 23.6537 20.8708 23.9271Z" fill="#EFCFA5"/>
<path id="Vector_18" d="M7.7666 20.3457C7.7442 20.3654 7.72125 20.3848 7.70024 20.4068L7.67715 20.432C7.6524 20.4595 7.62835 20.4883 7.60595 20.519L7.59406 20.5338C7.56627 20.5722 7.54042 20.6126 7.51581 20.6537V20.6538L7.51263 20.6592L7.5125 20.6594L7.50254 20.6777C7.49687 20.6877 7.49148 20.698 7.48609 20.7082C7.47185 20.7339 7.4572 20.7588 7.44448 20.7848L7.44379 20.7858L7.44337 20.7866L7.44268 20.7888L7.4377 20.7985L7.43314 20.8083C7.41323 20.8493 7.39512 20.8901 7.37812 20.9303C7.33001 21.0435 7.29282 21.1513 7.26489 21.2414C7.25522 21.2734 7.24609 21.3037 7.23876 21.3305C7.22259 21.3886 7.21125 21.434 7.20614 21.4563L7.20586 21.4582L7.20227 21.4731V21.4729V21.4731L7.20365 21.4557C7.20559 21.4211 7.20959 21.3868 7.21236 21.3524C7.21775 21.2802 7.22231 21.2077 7.23033 21.136C7.23669 21.0756 7.24609 21.0166 7.25466 20.9566C7.25743 20.9379 7.26033 20.9191 7.2631 20.9006C7.26683 20.873 7.2707 20.8454 7.27526 20.8179C7.27927 20.7922 7.28494 20.7669 7.28978 20.7418L7.29005 20.7399V20.7398L7.29545 20.7116L7.29711 20.7039C7.30277 20.6732 7.30872 20.6419 7.31466 20.6111C7.31674 20.5991 7.31895 20.5872 7.32144 20.5753L7.32572 20.554L7.32655 20.55C7.32863 20.54 7.33084 20.5297 7.33305 20.5198C7.33554 20.5071 7.33899 20.4949 7.34162 20.483C7.35185 20.4378 7.36291 20.3935 7.37356 20.3488L7.37535 20.3414C7.38323 20.3082 7.39056 20.2748 7.39913 20.2421L7.39941 20.2406L7.40024 20.2384L7.40287 20.2288C7.42042 20.1615 7.43992 20.0958 7.45941 20.0294L7.46964 19.9929C7.47337 19.9807 7.47655 19.9678 7.48042 19.9554C7.51263 19.8479 7.54706 19.7418 7.58369 19.638L7.58839 19.6249C7.61978 19.5368 7.65157 19.45 7.68489 19.3644L7.68862 19.3547C7.70369 19.3171 7.71918 19.2809 7.73397 19.2437L7.73646 19.2382C7.75913 19.1828 7.78153 19.127 7.80475 19.0733L7.80489 19.0728V19.0725L7.80531 19.0718L7.80793 19.0651C7.81415 19.0516 7.82853 19.0189 7.85093 18.9709L7.85134 18.9701L7.85438 18.9636V18.9635C7.86309 18.9445 7.87139 18.9261 7.87982 18.9069C7.89351 18.8763 7.90733 18.8461 7.92088 18.816L7.93319 18.7896C7.91383 18.7792 7.89351 18.7699 7.8736 18.76L7.86226 18.7543L7.84111 18.7438C7.71185 18.6823 7.57581 18.633 7.4348 18.5967L7.4124 18.5912C7.32199 18.5687 7.22964 18.5515 7.13535 18.5407C7.08075 18.5345 7.026 18.5296 6.97042 18.5274C6.92425 18.5254 6.87808 18.5249 6.83135 18.5259C6.76112 18.5274 6.69199 18.5333 6.62398 18.5407C6.60213 18.5433 6.58126 18.5471 6.56024 18.5499C6.52651 18.555 6.49319 18.5614 6.45974 18.5675C6.44674 18.5702 6.43305 18.5719 6.42006 18.5747C6.39656 18.5797 6.37333 18.5846 6.35011 18.5905C6.30448 18.6017 6.25997 18.6141 6.21573 18.628C6.19513 18.6345 6.17467 18.6397 6.15462 18.6467C6.09476 18.6676 6.03587 18.6904 5.97836 18.7158C5.95541 18.7259 5.93412 18.7376 5.91172 18.7482C5.88545 18.7609 5.85946 18.7747 5.83361 18.7878L5.80693 18.8014C5.77845 18.8171 5.75066 18.8338 5.72315 18.8505C5.69757 18.866 5.67172 18.8825 5.64697 18.8993C5.61656 18.9193 5.58684 18.9394 5.55794 18.9606C5.54011 18.9742 5.5231 18.9881 5.50527 19.0018C5.45827 19.0387 5.41361 19.0784 5.36965 19.1189C5.34698 19.1399 5.32513 19.1613 5.30343 19.183C5.265 19.2209 5.22767 19.2595 5.19228 19.3L5.17444 19.3203C5.15592 19.3423 5.13864 19.3655 5.12136 19.3885L5.11859 19.3918L5.11638 19.3948C5.10463 19.4102 5.09191 19.425 5.08043 19.4408L5.07587 19.4468L5.07131 19.453L5.07103 19.4535L5.07076 19.454C4.99984 19.553 4.93762 19.6577 4.88371 19.7672C4.87583 19.7827 4.86878 19.7985 4.86159 19.8143C4.83643 19.8677 4.81375 19.9223 4.79274 19.9781C4.78458 20.0002 4.77546 20.0216 4.76785 20.044L4.76758 20.0443V20.0444C4.77186 20.0588 4.7767 20.0724 4.78113 20.0866C4.79647 20.1361 4.81209 20.1842 4.82855 20.2309L4.83421 20.2469L4.84043 20.2631C4.85772 20.3112 4.87555 20.3572 4.89394 20.4021C4.94979 20.5396 5.00868 20.6623 5.06702 20.7711C5.07587 20.787 5.08458 20.8037 5.09315 20.819L5.09937 20.8304L5.10753 20.844C5.15149 20.9216 5.19449 20.9901 5.23444 21.0501C5.29804 21.1454 5.35375 21.2179 5.39343 21.2668C5.40214 21.2773 5.4096 21.2861 5.41638 21.2945C5.42232 21.3015 5.42771 21.3078 5.43283 21.3133C5.4479 21.3306 5.4573 21.3405 5.4573 21.3406C5.45149 21.3162 5.44859 21.2922 5.44347 21.2675C5.40753 21.0921 5.38887 20.919 5.3843 20.7494L5.38417 20.7393L5.38375 20.7197C5.38181 20.6111 5.38347 20.5034 5.39218 20.3988H5.39232C5.40352 20.439 5.41555 20.4779 5.42771 20.5163C5.4461 20.5743 5.46504 20.6307 5.48467 20.685L5.49145 20.7045L5.49421 20.7115C5.58034 20.9428 5.67836 21.1373 5.77015 21.294C5.87992 21.4817 5.98043 21.6146 6.04043 21.6876C6.0526 21.7023 6.06283 21.7147 6.07154 21.7244C6.08854 21.7441 6.09794 21.7541 6.09794 21.7541C6.05453 21.5678 6.03255 21.3836 6.02564 21.2032C6.02315 21.1424 6.02094 21.0815 6.02204 21.0221C6.02315 20.9459 6.02716 20.8708 6.03338 20.7967V20.797V20.7967C6.06683 20.9233 6.10527 21.0405 6.14633 21.1509L6.14923 21.1594C6.29674 21.5564 6.47881 21.8483 6.60448 22.0213L6.61886 22.0404C6.64098 22.0698 6.66006 22.0945 6.67734 22.1167C6.68923 22.1316 6.70056 22.146 6.7101 22.1567C6.72227 22.1714 6.73139 22.1822 6.73886 22.1903C6.74812 22.2008 6.75379 22.2074 6.75379 22.2074L6.74867 22.1814C6.74301 22.1553 6.73762 22.1295 6.7325 22.1037C6.71439 22.0106 6.7025 21.918 6.69365 21.8266C6.68771 21.7655 6.68204 21.7044 6.67983 21.6442C6.67762 21.5868 6.67789 21.5303 6.67872 21.4738C6.679 21.4637 6.67941 21.4535 6.67955 21.4434C6.68052 21.4141 6.68121 21.3849 6.68273 21.3559L6.68384 21.338L6.68494 21.3251C6.6895 21.2508 6.696 21.1772 6.70526 21.1051V21.1054V21.1051C6.7195 21.1531 6.73457 21.1998 6.75006 21.2447C6.76167 21.279 6.77384 21.3115 6.786 21.3443L6.78863 21.3511L6.79264 21.3625L6.79996 21.3825C6.8149 21.4218 6.83024 21.4594 6.84586 21.4968C6.87559 21.5664 6.90531 21.6322 6.93586 21.6938C6.97277 21.7697 7.01038 21.8398 7.04674 21.9039C7.06789 21.94 7.08807 21.9741 7.10812 22.0066C7.13342 22.0475 7.15803 22.0857 7.18153 22.1203C7.2031 22.1522 7.22314 22.1802 7.24222 22.2065C7.24706 22.213 7.25204 22.2197 7.2566 22.226C7.27443 22.2501 7.29144 22.2727 7.30651 22.2917C7.31784 22.3061 7.32835 22.319 7.33789 22.3305C7.36264 22.3605 7.38019 22.3801 7.38807 22.3886L7.39264 22.3934L7.4084 22.4041C7.40992 22.391 7.41185 22.378 7.41351 22.3647C7.42747 22.2492 7.44365 22.1328 7.46093 22.017C7.46286 22.003 7.46508 21.9892 7.46715 21.9754C7.48733 21.845 7.50863 21.7154 7.53074 21.5903C7.53365 21.5739 7.53627 21.5581 7.53932 21.5421L7.54098 21.5338C7.5436 21.5194 7.54609 21.5047 7.54872 21.4903C7.55245 21.4688 7.55632 21.4472 7.56033 21.4259C7.57844 21.3268 7.5971 21.2309 7.61521 21.14C7.63167 21.0579 7.64756 20.9802 7.66291 20.907L7.66775 20.8834C7.66996 20.8719 7.67245 20.8614 7.6748 20.8504C7.67715 20.8397 7.67936 20.8286 7.68157 20.8175L7.6824 20.8136C7.68641 20.7954 7.69056 20.7766 7.69429 20.7593L7.6954 20.7544C7.69885 20.7373 7.70217 20.7227 7.70563 20.7067C7.7113 20.6815 7.71669 20.6557 7.72194 20.6322L7.72346 20.6256C7.72775 20.6066 7.73176 20.5872 7.73577 20.5698C7.74157 20.5446 7.74697 20.5216 7.75153 20.4997L7.7518 20.499L7.75208 20.4985C7.75484 20.486 7.75747 20.4752 7.7601 20.4636L7.76065 20.4616C7.76314 20.4511 7.76535 20.4401 7.7677 20.4309C7.77309 20.4079 7.77793 20.387 7.7818 20.3709L7.78526 20.3567L7.78664 20.3514L7.79065 20.3345L7.79342 20.3229L7.79397 20.3212L7.79203 20.3227L7.7666 20.3457Z" fill="#EFCFA5"/>
<path id="Vector_19" d="M24.5221 26.0903C24.7173 26.0233 24.8874 25.9691 25.0193 25.912C25.2836 25.8002 25.4256 25.7248 25.4167 25.6969C25.4078 25.6685 25.2482 25.6899 24.9674 25.753C24.8268 25.7856 24.6565 25.8141 24.4606 25.8577C24.3633 25.8809 24.2557 25.8943 24.1443 25.9157C24.032 25.935 23.914 25.9595 23.7893 25.9728C23.5433 26.0074 23.262 26.039 22.9632 26.0734C22.816 26.0854 22.6641 26.0979 22.5079 26.1104C22.3501 26.1182 22.1881 26.1262 22.0218 26.1343C21.3572 26.1536 20.6237 26.1237 19.8773 25.9874C19.4837 25.9186 18.9576 25.741 18.5793 25.5276L18.5653 25.5197C18.7886 24.7355 19.6116 24.6236 19.6116 24.6236L19.5878 24.6167C19.5741 24.615 19.5603 24.6137 19.5463 24.612C19.4266 24.5973 19.3214 24.583 19.2311 24.571C19.1667 24.5625 19.1101 24.5548 19.0624 24.5489C19.0165 24.5432 18.9838 24.5398 18.9647 24.5386C18.4689 24.5048 18.1973 24.9218 18.1034 25.1025C18.09 25.1286 18.0777 25.1554 18.0653 25.1827C17.9936 25.3447 17.9461 25.5316 17.9334 25.7291C17.9089 26.0976 18.0044 26.5023 18.2888 26.8468C18.4783 27.0791 18.8083 27.284 19.2362 27.446C18.8631 27.2115 18.5353 26.7658 18.5112 26.0535C18.9339 26.234 19.4263 26.3444 19.7963 26.4097C20.5886 26.5547 21.3532 26.572 22.0404 26.5302C22.2121 26.5159 22.3793 26.5034 22.5416 26.4872C22.704 26.4662 22.8618 26.446 23.0147 26.4263C23.312 26.3765 23.5865 26.3283 23.8442 26.2719C23.9726 26.248 24.0918 26.213 24.2046 26.1825C24.3174 26.1499 24.4244 26.1255 24.5221 26.0903Z" fill="#EFCFA5"/>
<path id="Vector_20" d="M23.8634 16.912C24.2773 16.9216 24.5584 17.052 24.7458 17.2419C24.7915 17.0589 24.8139 16.8395 24.7992 16.6018C24.7833 16.3417 24.7286 16.1072 24.6502 15.9233C24.6224 15.8188 24.458 15.5193 24.2515 15.5358C23.9849 15.5519 23.7986 16.054 23.8345 16.6578C23.8396 16.746 23.8499 16.8305 23.8634 16.912Z" fill="#59473D"/>
<path id="Vector_21" d="M24.5645 18.4687C24.5649 18.5829 24.6016 18.679 24.6676 18.7125C24.7666 18.7617 24.89 18.6543 24.9449 18.4733C24.95 18.4575 24.9529 18.4417 24.9567 18.4262V18.4258C24.9918 18.2615 24.956 18.1024 24.8668 18.058C24.7688 18.0085 24.6444 18.1156 24.5895 18.2962C24.5716 18.3551 24.5642 18.4137 24.5645 18.4687Z" fill="#59473D"/>
<path id="Vector_22" d="M22.6848 18.7603C22.7286 18.8313 22.7948 18.8998 22.8793 18.9533C23.0581 19.0659 23.2566 19.0754 23.3572 18.9848C23.3722 18.9716 23.385 18.9561 23.3951 18.9384C23.4434 18.855 23.4244 18.7428 23.3567 18.6386L23.3564 18.6383C23.3124 18.5709 23.2482 18.5065 23.1674 18.4556C22.9909 18.3442 22.7961 18.3339 22.6941 18.4203C22.6773 18.4346 22.6623 18.4505 22.6512 18.4699C22.605 18.5506 22.6222 18.6584 22.6848 18.7601V18.7603Z" fill="#59473D"/>
<path id="Vector_23" d="M29.5468 21.2732V21.2695L29.5352 21.2863C29.5368 21.2848 29.5386 21.2835 29.5403 21.282L29.5468 21.2732Z" fill="#59473D"/>
<path id="Vector_24" d="M29.3316 25.0834L29.3222 25.0923C29.0705 25.331 28.7753 25.5619 28.4514 25.7819C27.0284 26.7474 25.0378 27.4953 23.6272 27.683L23.6218 27.6838L23.6164 27.6847C22.5561 27.852 21.5173 27.8814 20.6123 27.7697C20.0922 27.7054 19.6242 27.5935 19.2362 27.4464C18.8086 27.2844 18.4786 27.0797 18.2888 26.8473C18.0044 26.5028 17.9089 26.0981 17.9335 25.7296C17.9463 25.5321 17.9939 25.3451 18.0655 25.1832C18.0777 25.1559 18.0902 25.129 18.1035 25.103C18.1975 24.9223 18.4689 24.5053 18.9649 24.5389C18.9837 24.5405 19.0168 24.5436 19.0624 24.5494C19.1101 24.5552 19.1668 24.5628 19.2313 24.5715C19.3213 24.5836 19.4268 24.5977 19.5465 24.6124C19.5605 24.6142 19.5741 24.6156 19.5877 24.6171C20.9532 24.7821 22.2666 24.7646 23.515 24.5745C25.3264 24.2988 26.9998 23.6573 28.486 22.6578C28.5645 22.605 28.6426 22.5512 28.72 22.4964L29.5347 21.2861C27.0621 23.4985 24.3396 24.1447 22.2704 24.27C21.1325 24.339 20.1916 24.2509 19.601 24.178C19.58 24.1753 19.5619 24.173 19.5417 24.1704C19.3645 24.148 19.22 24.1277 19.1169 24.1148C19.0653 24.1083 19.0237 24.1039 18.9924 24.1019C18.8375 24.0914 18.69 24.1105 18.5523 24.1534C18.2707 24.2408 18.0301 24.4296 17.8494 24.68C17.6261 24.9885 17.4947 25.3897 17.4884 25.8094C17.4842 26.1547 17.565 26.5116 17.7517 26.8388C17.759 26.852 17.766 26.8654 17.7739 26.8788C17.7955 26.9146 17.8187 26.9499 17.8429 26.9846C17.8757 27.0321 17.9101 27.0791 17.948 27.1248C18.3814 27.6556 19.3137 28.0505 20.5577 28.2041C21.3993 28.3081 22.3844 28.2997 23.4527 28.15C26.6012 27.5848 28.0979 26.5743 28.7891 25.8646C28.8396 25.8128 28.886 25.7624 28.9283 25.7141C29.1761 25.4303 29.2877 25.2119 29.3283 25.1176L29.334 25.1047C29.3443 25.0802 29.3485 25.0673 29.3486 25.0668L29.3316 25.0834Z" fill="#59473D"/>
<path id="Vector_25" d="M19.3113 14.2388C19.2121 14.1851 19.1037 14.1468 18.9943 14.1199C18.922 14.1022 18.8493 14.0895 18.7776 14.0806C18.7506 14.0773 18.7238 14.0749 18.6968 14.0727C18.3283 14.0407 18.0096 14.1026 18.0096 14.1026C17.9413 14.1181 17.8758 14.1357 17.8125 14.1549C17.3119 14.3057 16.9633 14.5646 16.7197 14.8634C16.5226 15.1051 16.3944 15.373 16.3126 15.6314C16.3053 15.6542 16.2988 15.6769 16.2923 15.6994C16.2732 15.7666 16.2565 15.8323 16.2424 15.897C16.1962 16.1144 16.1784 16.3148 16.1732 16.4734C16.167 16.6904 16.184 16.8302 16.184 16.8302C16.271 16.6407 16.3622 16.4668 16.4562 16.3041C16.6895 15.9007 16.9423 15.5757 17.1978 15.3145C17.6956 14.8059 18.2027 14.5375 18.5958 14.3964C19.0203 14.244 19.3113 14.2388 19.3113 14.2388Z" fill="#E1B27E"/>
<path id="Vector_26" d="M25.2916 13.5308L25.2749 13.5088C25.2185 13.4382 25.1513 13.3729 25.0707 13.3182C24.8806 13.1883 24.6182 13.1206 24.2545 13.1947C24.2545 13.1947 23.8228 13.296 23.5703 13.5765C23.5703 13.5765 24.3228 13.2573 25.1194 13.8197C25.192 13.8709 25.2648 13.9302 25.3375 13.9971C25.4118 14.0654 25.4857 14.1412 25.5596 14.2273C25.5596 14.2273 25.5279 13.8826 25.3302 13.5856C25.3183 13.5669 25.3052 13.5486 25.2916 13.5308Z" fill="#E1B27E"/>
<path id="Vector_27" d="M19.4035 19.0035C19.6919 18.9149 20.0043 18.8332 20.3389 18.758C20.3971 18.4993 20.4115 18.1789 20.3703 17.8369C20.275 17.0347 19.9106 16.4202 19.557 16.4636C19.2029 16.507 18.994 17.1924 19.0895 17.9942C19.1377 18.3981 19.2542 18.7548 19.4035 19.0035Z" fill="#59473D"/>
<path id="Vector_28" d="M17.7612 1.05225L17.0192 1.21881L17.1749 2.57052L15.197 1.5706L14.3828 1.81173L14.3955 1.82601L16.7981 4.54591L16.8211 4.53149L16.8521 4.51227C16.9269 4.4649 17.0018 4.41766 17.0773 4.37111C17.1037 4.35477 17.1299 4.33788 17.1563 4.32168C17.2653 4.25536 17.3744 4.19013 17.4839 4.12532L16.4633 2.9642L18.1147 3.76611L18.1209 3.76268C18.1707 3.73562 18.22 3.70844 18.2697 3.68166L18.1174 2.51051L18.8668 3.37133L18.8759 3.36694C18.9393 3.33522 19.0014 3.30515 19.0638 3.27453L19.0833 3.26519L19.1135 3.25008C19.1242 3.245 19.1351 3.23965 19.1456 3.23429C19.1721 3.22152 19.1994 3.20779 19.2255 3.19516C19.2309 3.19241 19.236 3.19022 19.2414 3.18761C19.3303 3.14504 19.4175 3.10439 19.5048 3.06375L17.7612 1.05225Z" fill="#FACE56"/>
<path id="Vector_29" d="M17.0244 1.26159L17.0195 1.21875L17.0244 1.26173V1.26159Z" fill="#4D94C3"/>
<path id="Vector_30" d="M17.0186 1.21877L17.1282 1.19433C16.9465 1.11056 16.7307 1.05083 16.4809 1.01994C15.9806 0.957323 15.3453 1.01486 14.6216 1.20064C13.8979 1.38519 13.0864 1.69552 12.2258 2.12119C10.5044 2.97198 8.58819 4.28319 6.74423 5.95402C6.10083 6.53678 5.50083 7.13217 4.94922 7.72934L7.18898 10.4542C7.79381 9.79124 8.45367 9.132 9.16482 8.48772C10.1157 7.62663 11.0852 6.85836 12.0438 6.19075C12.9727 5.54441 13.8901 4.99571 14.7734 4.55177L14.3844 2.81188L14.3949 1.82597L14.3822 1.81169L15.1963 1.57056L16.7864 2.37865L16.7412 1.82844L17.0186 1.21877Z" fill="#4D94C3"/>
<path id="Vector_31" d="M17.0195 1.21875L16.7422 1.82842L16.7874 2.37864L17.1752 2.57046L17.0195 1.21875Z" fill="#141C26"/>
<path id="Vector_32" d="M16.4629 2.96436L18.1143 3.76627L17.4834 4.12548L16.4629 2.96436Z" fill="#141C26"/>
<path id="Vector_33" d="M18.1172 2.51074L18.2694 3.68189L18.8665 3.37156L18.1172 2.51074Z" fill="#141C26"/>
<path id="Vector_34" d="M24.3644 2.07748C24.4661 2.0735 24.5658 2.0724 24.6638 2.07446C24.9417 2.08009 25.2027 2.11264 25.4501 2.17401C25.4633 2.17745 25.4771 2.17937 25.4903 2.18294L25.4933 2.18376L25.503 2.18582L25.5273 2.19283L25.5497 2.19955C25.5206 2.18033 25.4908 2.16221 25.4607 2.14449C25.1831 2.0389 24.8893 1.96997 24.5871 1.93138C23.0882 1.73983 21.3818 2.28181 20.4059 2.66669C20.3524 2.68894 20.2985 2.71105 20.2439 2.73412C20.1619 2.76886 20.0792 2.80428 19.9955 2.84095C19.8549 2.90246 19.7126 2.96686 19.567 3.03415C19.5459 3.04376 19.5249 3.05378 19.5039 3.06367C19.4166 3.10431 19.3294 3.14496 19.2405 3.18752C19.2351 3.19013 19.23 3.19233 19.2246 3.19508C19.1985 3.20771 19.1712 3.22144 19.1447 3.23421C19.1342 3.23957 19.1233 3.24492 19.1126 3.25L19.0823 3.26511L19.0628 3.27444C19.0005 3.30507 18.9384 3.33514 18.875 3.36686L18.8658 3.37125C18.8639 3.37235 18.862 3.37331 18.8602 3.37427C18.8444 3.38169 18.8296 3.38896 18.8141 3.39665L18.8061 3.4005C18.7945 3.4064 18.7832 3.41244 18.7718 3.41835C18.6746 3.46723 18.5779 3.51776 18.4815 3.56843C18.414 3.60386 18.3469 3.63956 18.2795 3.67567L18.2688 3.68158C18.2191 3.70835 18.1698 3.73554 18.12 3.76259L18.1138 3.76603C17.9523 3.85473 17.7919 3.94522 17.6318 4.03818C17.6151 4.04779 17.5984 4.05699 17.5815 4.06688C17.5673 4.07526 17.5529 4.08349 17.5389 4.09173C17.5257 4.09942 17.5127 4.10752 17.4998 4.11521L17.4829 4.12524C17.3735 4.19005 17.2644 4.25527 17.1554 4.3216C17.129 4.3378 17.1028 4.35469 17.0764 4.37103C17.0009 4.41758 16.9259 4.46481 16.8512 4.51219L16.8202 4.53141L16.7972 4.54583C16.589 4.67834 16.3825 4.81441 16.1769 4.95324C15.8378 5.18255 15.5024 5.41914 15.1717 5.66383C15.1287 5.69555 15.0861 5.72782 15.0431 5.75995C14.1762 6.40821 13.3388 7.10384 12.5366 7.82624C11.6895 8.5893 10.8824 9.38228 10.12 10.179C9.70704 10.59 9.35229 10.9582 9.0628 11.2679C8.48202 11.8891 8.16529 12.2731 8.17829 12.2818C8.18354 12.2874 8.2347 12.2403 8.32539 12.1502C8.25032 12.2368 8.17525 12.3231 8.10156 12.4092C9.36764 11.0685 10.7718 9.69549 12.2796 8.402C13.1955 7.61698 14.1485 6.86121 15.1331 6.16008V6.16022C15.5643 5.85278 16.0018 5.55618 16.4446 5.27222C16.586 5.18118 16.7287 5.09137 16.8715 5.00294C16.9427 4.959 17.0146 4.9163 17.086 4.87291C17.1263 4.84833 17.1668 4.82348 17.2076 4.79917C17.284 4.75331 17.3607 4.70827 17.4373 4.66309C17.5125 4.61915 17.5875 4.57521 17.6628 4.53182C17.7023 4.50944 17.7417 4.48665 17.7811 4.4644C17.8767 4.41003 17.9729 4.35689 18.0693 4.30388C18.1265 4.2723 18.1843 4.24044 18.2418 4.20941L18.2423 4.20914C18.424 4.11082 18.6066 4.01594 18.7897 3.9227C18.8047 3.91487 18.8201 3.90732 18.8356 3.89963C18.8642 3.88508 18.8928 3.87066 18.9214 3.85624C18.9594 3.83715 18.997 3.81752 19.0352 3.79871C19.0497 3.7917 19.0637 3.78415 19.0781 3.77701L19.0841 3.77426C19.1101 3.76149 19.1356 3.74941 19.1611 3.73705C19.1665 3.73444 19.1719 3.73197 19.1773 3.72936L19.1863 3.72469C19.2665 3.68583 19.3461 3.64752 19.4246 3.6099C19.439 3.60331 19.4535 3.59576 19.4682 3.58903C19.4938 3.57667 19.5189 3.56541 19.5446 3.55333C19.6364 3.51035 19.728 3.46751 19.8181 3.42618C19.843 3.41505 19.8683 3.40269 19.8929 3.39171C19.9059 3.38581 19.9186 3.38018 19.9316 3.37441C19.9572 3.36301 19.9829 3.35161 20.0086 3.34008C20.1146 3.29243 20.2201 3.24547 20.3235 3.20084C20.4181 3.15992 20.5099 3.12244 20.6022 3.08385C21.1237 2.86607 21.6139 2.68304 22.0695 2.53748C22.9451 2.2586 23.7011 2.10577 24.3644 2.07748Z" fill="white"/>
</g>
</svg>
