<svg width="31" height="32" viewBox="0 0 31 32" fill="none" xmlns="http://www.w3.org/2000/svg">
<g id="Component 9">
<path id="Vector" d="M6.52063 20.1649C6.52063 22.0188 5.06904 23.5173 3.27301 23.5173C1.47698 23.5173 0.0253906 22.0188 0.0253906 20.1649C0.0253906 18.3109 1.47698 16.8125 3.27301 16.8125H6.52063V20.1649ZM8.14444 20.1649C8.14444 18.3109 9.59602 16.8125 11.3921 16.8125C13.1881 16.8125 14.6397 18.3109 14.6397 20.1649V28.5458C14.6397 30.3998 13.1881 31.8982 11.3921 31.8982C9.59602 31.8982 8.14444 30.3998 8.14444 28.5458V20.1649Z" fill="#E01E5A"/>
<path id="Vector_2" d="M11.3913 6.70476C9.59524 6.70476 8.14365 5.20635 8.14365 3.35238C8.14365 1.49841 9.59524 0 11.3913 0C13.1873 0 14.6389 1.49841 14.6389 3.35238V6.70476H11.3913ZM11.3913 8.40635C13.1873 8.40635 14.6389 9.90476 14.6389 11.7587C14.6389 13.6127 13.1873 15.1111 11.3913 15.1111H3.24762C1.45159 15.1111 0 13.6127 0 11.7587C0 9.90476 1.45159 8.40635 3.24762 8.40635H11.3913Z" fill="#36C5F0"/>
<path id="Vector_3" d="M24.4062 11.7587C24.4062 9.90476 25.8577 8.40635 27.6538 8.40635C29.4498 8.40635 30.9014 9.90476 30.9014 11.7587C30.9014 13.6127 29.4498 15.1111 27.6538 15.1111H24.4062V11.7587ZM22.7823 11.7587C22.7823 13.6127 21.3308 15.1111 19.5347 15.1111C17.7387 15.1111 16.2871 13.6127 16.2871 11.7587V3.35238C16.2871 1.49841 17.7387 0 19.5347 0C21.3308 0 22.7823 1.49841 22.7823 3.35238V11.7587Z" fill="#2EB67D"/>
<path id="Vector_4" d="M19.5347 25.1935C21.3308 25.1935 22.7823 26.6919 22.7823 28.5458C22.7823 30.3998 21.3308 31.8982 19.5347 31.8982C17.7387 31.8982 16.2871 30.3998 16.2871 28.5458V25.1935H19.5347ZM19.5347 23.5173C17.7387 23.5173 16.2871 22.0188 16.2871 20.1649C16.2871 18.3109 17.7387 16.8125 19.5347 16.8125H27.6784C29.4744 16.8125 30.926 18.3109 30.926 20.1649C30.926 22.0188 29.4744 23.5173 27.6784 23.5173H19.5347Z" fill="#ECB22E"/>
</g>
</svg>
