<svg width="224" height="61" viewBox="0 0 224 61" fill="none" xmlns="http://www.w3.org/2000/svg">
<g id="Social">
<g id="Twitter Icon">
<rect id="Rectangle" opacity="0.25" x="164.25" y="0.5" width="59.2483" height="59.2483" rx="19" stroke="white"/>
<path id="Twitter" fill-rule="evenodd" clip-rule="evenodd" d="M193.583 26.1474L193.627 26.8824L192.901 26.7924C190.26 26.4474 187.953 25.2774 185.994 23.3124L185.036 22.3374L184.79 23.0574C184.267 24.6624 184.601 26.3574 185.689 27.4974C186.27 28.1274 186.139 28.2174 185.138 27.8424C184.79 27.7224 184.485 27.6324 184.456 27.6774C184.354 27.7824 184.703 29.1474 184.978 29.6874C185.356 30.4374 186.125 31.1724 186.966 31.6074L187.677 31.9524L186.836 31.9674C186.023 31.9674 185.994 31.9824 186.081 32.2974C186.371 33.2724 187.518 34.3074 188.795 34.7574L189.694 35.0724L188.911 35.5524C187.75 36.2424 186.386 36.6324 185.022 36.6624C184.369 36.6774 183.832 36.7374 183.832 36.7824C183.832 36.9324 185.602 37.7724 186.633 38.1024C189.723 39.0774 193.395 38.6574 196.152 36.9924C198.111 35.8074 200.07 33.4524 200.984 31.1724C201.477 29.9574 201.971 27.7374 201.971 26.6724C201.971 25.9824 202.014 25.8924 202.827 25.0674C203.306 24.5874 203.755 24.0624 203.843 23.9124C203.988 23.6274 203.973 23.6274 203.233 23.8824C202 24.3324 201.826 24.2724 202.435 23.5974C202.885 23.1174 203.422 22.2474 203.422 21.9924C203.422 21.9474 203.204 22.0224 202.957 22.1574C202.696 22.3074 202.116 22.5324 201.68 22.6674L200.897 22.9224L200.186 22.4274C199.794 22.1574 199.243 21.8574 198.952 21.7674C198.212 21.5574 197.08 21.5874 196.413 21.8274C194.599 22.5024 193.453 24.2424 193.583 26.1474Z" fill="white"/>
</g>
<g id="Linkedin Icon">
<rect id="Rectangle_2" opacity="0.25" x="82.375" y="0.5" width="59.2483" height="59.2483" rx="19" stroke="white"/>
<g id="Group 14">
<path id="Shape" fill-rule="evenodd" clip-rule="evenodd" d="M106.592 40.1661H101.957V26.2627H106.592V40.1661Z" fill="white"/>
<path id="Shape_2" fill-rule="evenodd" clip-rule="evenodd" d="M104.26 23.1726H104.234C102.851 23.1726 101.957 22.1422 101.957 20.8545C101.957 19.5396 102.878 18.5381 104.288 18.5381C105.697 18.5381 106.565 19.5396 106.592 20.8545C106.592 22.1422 105.697 23.1726 104.26 23.1726Z" fill="white"/>
<path id="Shape_3" fill-rule="evenodd" clip-rule="evenodd" d="M123.583 40.1658H119.029V32.8983C119.029 31.0728 118.37 29.8272 116.721 29.8272C115.463 29.8272 114.714 30.6669 114.384 31.478C114.264 31.7687 114.234 32.1737 114.234 32.5797V40.1661H109.68C109.68 40.1661 109.74 27.8567 109.68 26.582H114.234V28.5061C114.839 27.5812 115.922 26.2627 118.339 26.2627C121.336 26.2627 123.583 28.2046 123.583 32.3771L123.583 40.1658Z" fill="white"/>
</g>
</g>
<g id="Facebook Icon">
<rect id="Rectangle_3" opacity="0.25" x="0.5" y="0.5" width="59.2483" height="59.2483" rx="19" stroke="white"/>
<path id="Shape_4" fill-rule="evenodd" clip-rule="evenodd" d="M27.1144 41.7105V30.1234H24.7188V26.1302H27.1144V23.7328C27.1144 20.4752 28.4671 18.5381 32.3103 18.5381H35.5099V22.5317H33.5099C32.0139 22.5317 31.9149 23.0897 31.9149 24.1312L31.9095 26.1298H35.5325L35.1086 30.1229H31.9095V41.7105H27.1144Z" fill="white"/>
</g>
</g>
</svg>
