<svg width="43" height="43" viewBox="0 0 43 43" fill="none" xmlns="http://www.w3.org/2000/svg">
<g id="Social">
<g id="Social_2">
<g id="Linkedin Icon">
<rect id="Rectangle" opacity="0.25" x="0.5" y="0.5" width="41.2483" height="41.2483" rx="19" stroke="white"/>
<g id="Group 14">
<path id="Vector" d="M32.0473 16.5017C32.0473 16.5017 31.8418 15.0581 31.2091 14.4243C30.4079 13.59 29.5121 13.5859 29.1013 13.5369C26.1593 13.3242 21.7424 13.3242 21.7424 13.3242H21.7342C21.7342 13.3242 17.3172 13.3242 14.3753 13.5369C13.9644 13.5859 13.0687 13.59 12.2675 14.4243C11.6347 15.0581 11.4334 16.5017 11.4334 16.5017C11.4334 16.5017 11.2197 18.1988 11.2197 19.8918V21.4785C11.2197 23.1715 11.4293 24.8686 11.4293 24.8686C11.4293 24.8686 11.6347 26.3122 12.2634 26.946C13.0646 27.7803 14.1164 27.7517 14.5848 27.8416C16.2694 28.0011 21.7383 28.0502 21.7383 28.0502C21.7383 28.0502 26.1593 28.042 29.1013 27.8334C29.5121 27.7844 30.4079 27.7803 31.2091 26.946C31.8418 26.3122 32.0473 24.8686 32.0473 24.8686C32.0473 24.8686 32.2568 23.1756 32.2568 21.4785V19.8918C32.2568 18.1988 32.0473 16.5017 32.0473 16.5017ZM19.5647 23.4046V17.52L25.2472 20.4725L19.5647 23.4046Z" fill="white"/>
</g>
</g>
</g>
</g>
</svg>
